solid OpenSCAD_Model
  facet normal 0 -0 -1
    outer loop
      vertex 3.33333 5 -5
      vertex 5 5 -5
      vertex 1.66666 -5 -5
    endloop
  endfacet
  facet normal 0 0 -1
    outer loop
      vertex 5 5 -5
      vertex 1.66666 -6.66666 -5
      vertex 1.66666 -5 -5
    endloop
  endfacet
  facet normal -0 -0 -1
    outer loop
      vertex 1.66666 -5 -5
      vertex 1.66666 -6.66666 -5
      vertex 0 -1.66667 -5
    endloop
  endfacet
  facet normal -0 -0 -1
    outer loop
      vertex -3.33334 5 -5
      vertex -1.66667 -5 -5
      vertex -5 5 -5
    endloop
  endfacet
  facet normal 0 0 -1
    outer loop
      vertex -5 5 -5
      vertex -1.66667 -5 -5
      vertex -1.66667 -6.66666 -5
    endloop
  endfacet
  facet normal 0 0 -1
    outer loop
      vertex 1.66666 -5 -5
      vertex 0 -1.66667 -5
      vertex 0 0 -5
    endloop
  endfacet
  facet normal -0 0 -1
    outer loop
      vertex 0 -1.66667 -5
      vertex -1.66667 -5 -5
      vertex 0 0 -5
    endloop
  endfacet
  facet normal 0 0 -1
    outer loop
      vertex -1.66667 -5 -5
      vertex 0 -1.66667 -5
      vertex -1.66667 -6.66666 -5
    endloop
  endfacet
  facet normal 0 0 1
    outer loop
      vertex 1.66666 -5 5
      vertex 5 5 5
      vertex 3.33333 5 5
    endloop
  endfacet
  facet normal -0 0 1
    outer loop
      vertex 1.66666 -5 5
      vertex 1.66666 -6.66666 5
      vertex 5 5 5
    endloop
  endfacet
  facet normal 0 0 1
    outer loop
      vertex 0 -1.66667 5
      vertex 1.66666 -6.66666 5
      vertex 1.66666 -5 5
    endloop
  endfacet
  facet normal -0 0 1
    outer loop
      vertex -5 5 5
      vertex -1.66667 -5 5
      vertex -3.33334 5 5
    endloop
  endfacet
  facet normal 0 -0 1
    outer loop
      vertex -1.66667 -6.66666 5
      vertex -1.66667 -5 5
      vertex -5 5 5
    endloop
  endfacet
  facet normal 0 0 1
    outer loop
      vertex 0 0 5
      vertex 0 -1.66667 5
      vertex 1.66666 -5 5
    endloop
  endfacet
  facet normal 0 0 1
    outer loop
      vertex 0 0 5
      vertex -1.66667 -5 5
      vertex 0 -1.66667 5
    endloop
  endfacet
  facet normal 0 0 1
    outer loop
      vertex -1.66667 -6.66666 5
      vertex 0 -1.66667 5
      vertex -1.66667 -5 5
    endloop
  endfacet
  facet normal 0 1 0
    outer loop
      vertex 3.33333 5 -5
      vertex 5 5 5
      vertex 5 5 -5
    endloop
  endfacet
  facet normal 0 1 0
    outer loop
      vertex 3.33333 5 -5
      vertex 3.33333 5 5
      vertex 5 5 5
    endloop
  endfacet
  facet normal -0.986394 0.164399 0
    outer loop
      vertex 1.66666 -5 -5
      vertex 3.33333 5 5
      vertex 3.33333 5 -5
    endloop
  endfacet
  facet normal -0.986394 0.164399 0
    outer loop
      vertex 1.66666 -5 -5
      vertex 1.66666 -5 5
      vertex 3.33333 5 5
    endloop
  endfacet
  facet normal 0.948684 0.316227 0
    outer loop
      vertex 0 0 -5
      vertex 1.66666 -5 5
      vertex 1.66666 -5 -5
    endloop
  endfacet
  facet normal 0.948684 0.316227 -0
    outer loop
      vertex 0 0 -5
      vertex 0 0 5
      vertex 1.66666 -5 5
    endloop
  endfacet
  facet normal -0.948683 0.316228 0
    outer loop
      vertex -1.66667 -5 -5
      vertex 0 0 5
      vertex 0 0 -5
    endloop
  endfacet
  facet normal -0.948683 0.316228 0
    outer loop
      vertex -1.66667 -5 -5
      vertex -1.66667 -5 5
      vertex 0 0 5
    endloop
  endfacet
  facet normal 0.986394 0.164399 0
    outer loop
      vertex -3.33334 5 -5
      vertex -1.66667 -5 5
      vertex -1.66667 -5 -5
    endloop
  endfacet
  facet normal 0.986394 0.164399 -0
    outer loop
      vertex -3.33334 5 -5
      vertex -3.33334 5 5
      vertex -1.66667 -5 5
    endloop
  endfacet
  facet normal 0 1 0
    outer loop
      vertex -5 5 -5
      vertex -3.33334 5 5
      vertex -3.33334 5 -5
    endloop
  endfacet
  facet normal 0 1 0
    outer loop
      vertex -5 5 -5
      vertex -5 5 5
      vertex -3.33334 5 5
    endloop
  endfacet
  facet normal -0.961524 -0.274721 0
    outer loop
      vertex -1.66667 -6.66666 -5
      vertex -5 5 5
      vertex -5 5 -5
    endloop
  endfacet
  facet normal -0.961524 -0.274721 0
    outer loop
      vertex -1.66667 -6.66666 -5
      vertex -1.66667 -6.66666 5
      vertex -5 5 5
    endloop
  endfacet
  facet normal 0.948683 -0.316229 0
    outer loop
      vertex 0 -1.66667 -5
      vertex -1.66667 -6.66666 5
      vertex -1.66667 -6.66666 -5
    endloop
  endfacet
  facet normal 0.948683 -0.316229 0
    outer loop
      vertex 0 -1.66667 -5
      vertex 0 -1.66667 5
      vertex -1.66667 -6.66666 5
    endloop
  endfacet
  facet normal -0.948683 -0.316227 0
    outer loop
      vertex 1.66666 -6.66666 -5
      vertex 0 -1.66667 5
      vertex 0 -1.66667 -5
    endloop
  endfacet
  facet normal -0.948683 -0.316227 0
    outer loop
      vertex 1.66666 -6.66666 -5
      vertex 1.66666 -6.66666 5
      vertex 0 -1.66667 5
    endloop
  endfacet
  facet normal 0.961524 -0.274722 0
    outer loop
      vertex 5 5 -5
      vertex 1.66666 -6.66666 5
      vertex 1.66666 -6.66666 -5
    endloop
  endfacet
  facet normal 0.961524 -0.274722 0
    outer loop
      vertex 5 5 -5
      vertex 5 5 5
      vertex 1.66666 -6.66666 5
    endloop
  endfacet
endsolid OpenSCAD_Model
