solid OpenSCAD_Model
  facet normal -0 -0 -1
    outer loop
      vertex 5 5 -5
      vertex 5 3.33333 -5
      vertex 3.33333 5 -5
    endloop
  endfacet
  facet normal 0 0 -1
    outer loop
      vertex 3.33333 5 -5
      vertex 1.66666 -1.66667 -5
      vertex 0 -1.66667 -5
    endloop
  endfacet
  facet normal -0 0 -1
    outer loop
      vertex 5 3.33333 -5
      vertex 1.66666 -1.66667 -5
      vertex 3.33333 5 -5
    endloop
  endfacet
  facet normal -0 0 -1
    outer loop
      vertex -3.33334 5 -5
      vertex -5 3.33333 -5
      vertex -5 5 -5
    endloop
  endfacet
  facet normal 0 -0 -1
    outer loop
      vertex -3.33334 5 -5
      vertex -1.66667 -1.66667 -5
      vertex -5 3.33333 -5
    endloop
  endfacet
  facet normal 0 0 -1
    outer loop
      vertex -3.33334 5 -5
      vertex 0 -1.66667 -5
      vertex -1.66667 -1.66667 -5
    endloop
  endfacet
  facet normal -0 0 1
    outer loop
      vertex 3.33333 5 5
      vertex 5 3.33333 5
      vertex 5 5 5
    endloop
  endfacet
  facet normal 0 0 1
    outer loop
      vertex 0 -1.66667 5
      vertex 1.66666 -1.66667 5
      vertex 3.33333 5 5
    endloop
  endfacet
  facet normal 0 0 1
    outer loop
      vertex 3.33333 5 5
      vertex 1.66666 -1.66667 5
      vertex 5 3.33333 5
    endloop
  endfacet
  facet normal -0 0 1
    outer loop
      vertex -5 5 5
      vertex -5 3.33333 5
      vertex -3.33334 5 5
    endloop
  endfacet
  facet normal -0 0 1
    outer loop
      vertex -5 3.33333 5
      vertex -1.66667 -1.66667 5
      vertex -3.33334 5 5
    endloop
  endfacet
  facet normal 0 -0 1
    outer loop
      vertex -1.66667 -1.66667 5
      vertex 0 -1.66667 5
      vertex -3.33334 5 5
    endloop
  endfacet
  facet normal 1 0 0
    outer loop
      vertex 5 5 -5
      vertex 5 3.33333 5
      vertex 5 3.33333 -5
    endloop
  endfacet
  facet normal 1 0 -0
    outer loop
      vertex 5 5 -5
      vertex 5 5 5
      vertex 5 3.33333 5
    endloop
  endfacet
  facet normal 0 1 0
    outer loop
      vertex 3.33333 5 -5
      vertex 5 5 5
      vertex 5 5 -5
    endloop
  endfacet
  facet normal 0 1 0
    outer loop
      vertex 3.33333 5 -5
      vertex 3.33333 5 5
      vertex 5 5 5
    endloop
  endfacet
  facet normal -0.894427 0.447213 0
    outer loop
      vertex 0 -1.66667 -5
      vertex 3.33333 5 5
      vertex 3.33333 5 -5
    endloop
  endfacet
  facet normal -0.894427 0.447213 0
    outer loop
      vertex 0 -1.66667 -5
      vertex 0 -1.66667 5
      vertex 3.33333 5 5
    endloop
  endfacet
  facet normal 0.894427 0.447214 0
    outer loop
      vertex -3.33334 5 -5
      vertex 0 -1.66667 5
      vertex 0 -1.66667 -5
    endloop
  endfacet
  facet normal 0.894427 0.447214 -0
    outer loop
      vertex -3.33334 5 -5
      vertex -3.33334 5 5
      vertex 0 -1.66667 5
    endloop
  endfacet
  facet normal 0 1 0
    outer loop
      vertex -5 5 -5
      vertex -3.33334 5 5
      vertex -3.33334 5 -5
    endloop
  endfacet
  facet normal 0 1 0
    outer loop
      vertex -5 5 -5
      vertex -5 5 5
      vertex -3.33334 5 5
    endloop
  endfacet
  facet normal -1 0 0
    outer loop
      vertex -5 3.33333 -5
      vertex -5 5 5
      vertex -5 5 -5
    endloop
  endfacet
  facet normal -1 0 0
    outer loop
      vertex -5 3.33333 -5
      vertex -5 3.33333 5
      vertex -5 5 5
    endloop
  endfacet
  facet normal -0.832051 -0.5547 0
    outer loop
      vertex -1.66667 -1.66667 -5
      vertex -5 3.33333 5
      vertex -5 3.33333 -5
    endloop
  endfacet
  facet normal -0.832051 -0.5547 0
    outer loop
      vertex -1.66667 -1.66667 -5
      vertex -1.66667 -1.66667 5
      vertex -5 3.33333 5
    endloop
  endfacet
  facet normal 0 -1 0
    outer loop
      vertex 1.66666 -1.66667 -5
      vertex -1.66667 -1.66667 5
      vertex -1.66667 -1.66667 -5
    endloop
  endfacet
  facet normal 0 -1 0
    outer loop
      vertex 1.66666 -1.66667 -5
      vertex 1.66666 -1.66667 5
      vertex -1.66667 -1.66667 5
    endloop
  endfacet
  facet normal 0.83205 -0.554701 0
    outer loop
      vertex 5 3.33333 -5
      vertex 1.66666 -1.66667 5
      vertex 1.66666 -1.66667 -5
    endloop
  endfacet
  facet normal 0.83205 -0.554701 0
    outer loop
      vertex 5 3.33333 -5
      vertex 5 3.33333 5
      vertex 1.66666 -1.66667 5
    endloop
  endfacet
endsolid OpenSCAD_Model
