solid OpenSCAD_Model
  facet normal 0 0 -1
    outer loop
      vertex 3.33333 5 -5
      vertex 2.59195 4.27571 -5
      vertex 2.35168 4.41101 -5
    endloop
  endfacet
  facet normal -0 -0 -1
    outer loop
      vertex 5 0 -5
      vertex 5 -5 -5
      vertex 3.33333 0 -5
    endloop
  endfacet
  facet normal 0 0 -1
    outer loop
      vertex -0.370377 2.77777 -5
      vertex -0.948425 3.19556 -5
      vertex -0.932861 3.19965 -5
    endloop
  endfacet
  facet normal 0 0 -1
    outer loop
      vertex 2.86058 4.10086 -5
      vertex 2.59195 4.27571 -5
      vertex 3.33333 5 -5
    endloop
  endfacet
  facet normal 0 0 -1
    outer loop
      vertex 3.11745 3.90915 -5
      vertex 2.86058 4.10086 -5
      vertex 3.33333 5 -5
    endloop
  endfacet
  facet normal 0 -0 -1
    outer loop
      vertex 0.480103 4.97688 -5
      vertex 0.492767 3.29565 -5
      vertex 0.320068 3.31792 -5
    endloop
  endfacet
  facet normal 0 0 -1
    outer loop
      vertex 3.3615 3.70139 -5
      vertex 3.11745 3.90915 -5
      vertex 3.33333 5 -5
    endloop
  endfacet
  facet normal 0 0 -1
    outer loop
      vertex 0.492767 3.29565 -5
      vertex 2.02391 4.57205 -5
      vertex 2.31268 4.43298 -5
    endloop
  endfacet
  facet normal -0 0 -1
    outer loop
      vertex 5 5 -5
      vertex 3.3615 3.70139 -5
      vertex 3.33333 5 -5
    endloop
  endfacet
  facet normal 0 0 -1
    outer loop
      vertex 0.492767 3.29565 -5
      vertex 2.31268 4.43298 -5
      vertex 2.35168 4.41101 -5
    endloop
  endfacet
  facet normal 0 0 -1
    outer loop
      vertex 5 5 -5
      vertex 3.59174 3.47841 -5
      vertex 3.3615 3.70139 -5
    endloop
  endfacet
  facet normal 0 0 -1
    outer loop
      vertex -0.370377 2.77777 -5
      vertex 2.53815 2.16075 -5
      vertex 2.67137 1.9937 -5
    endloop
  endfacet
  facet normal 0 0 -1
    outer loop
      vertex 5 5 -5
      vertex 3.80722 3.24113 -5
      vertex 3.59174 3.47841 -5
    endloop
  endfacet
  facet normal 0 0 -1
    outer loop
      vertex -0.370377 2.77777 -5
      vertex 2.79362 1.81844 -5
      vertex 2.90439 1.63571 -5
    endloop
  endfacet
  facet normal 0 0 -1
    outer loop
      vertex 5 5 -5
      vertex 4.00706 2.99054 -5
      vertex 3.80722 3.24113 -5
    endloop
  endfacet
  facet normal 0 0 -1
    outer loop
      vertex -0.370377 2.77777 -5
      vertex 3.00322 1.44627 -5
      vertex 3.08972 1.25089 -5
    endloop
  endfacet
  facet normal 0 0 -1
    outer loop
      vertex 5 5 -5
      vertex 4.19043 2.72766 -5
      vertex 4.00706 2.99054 -5
    endloop
  endfacet
  facet normal 0 0 -1
    outer loop
      vertex -0.370377 2.77777 -5
      vertex 3.16351 1.05035 -5
      vertex 3.2243 0.845505 -5
    endloop
  endfacet
  facet normal 0 0 -1
    outer loop
      vertex 5 5 -5
      vertex 4.35658 2.45358 -5
      vertex 4.19043 2.72766 -5
    endloop
  endfacet
  facet normal 0 0 -1
    outer loop
      vertex 5 5 -5
      vertex 4.50484 2.16942 -5
      vertex 4.35658 2.45358 -5
    endloop
  endfacet
  facet normal 0 0 -1
    outer loop
      vertex 5 5 -5
      vertex 4.63458 1.87633 -5
      vertex 4.50484 2.16942 -5
    endloop
  endfacet
  facet normal 0 0 -1
    outer loop
      vertex 5 5 -5
      vertex 4.74527 1.57553 -5
      vertex 4.63458 1.87633 -5
    endloop
  endfacet
  facet normal 0 0 -1
    outer loop
      vertex 5 5 -5
      vertex 4.83647 1.26826 -5
      vertex 4.74527 1.57553 -5
    endloop
  endfacet
  facet normal 0 0 -1
    outer loop
      vertex 5 5 -5
      vertex 4.90779 0.95578 -5
      vertex 4.83647 1.26826 -5
    endloop
  endfacet
  facet normal 0 0 -1
    outer loop
      vertex 5 5 -5
      vertex 4.95894 0.639374 -5
      vertex 4.90779 0.95578 -5
    endloop
  endfacet
  facet normal 0 0 -1
    outer loop
      vertex 5 5 -5
      vertex 4.98972 0.320343 -5
      vertex 4.95894 0.639374 -5
    endloop
  endfacet
  facet normal 0 -0 -1
    outer loop
      vertex 5 5 -5
      vertex 5 0 -5
      vertex 4.98972 0.320343 -5
    endloop
  endfacet
  facet normal 0 0 -1
    outer loop
      vertex -5 -5 -5
      vertex -3.33334 0 -5
      vertex 3.33333 0 -5
    endloop
  endfacet
  facet normal -0 0 -1
    outer loop
      vertex -3.33334 0 -5
      vertex -5 -5 -5
      vertex -5 0 -5
    endloop
  endfacet
  facet normal 0 0 -1
    outer loop
      vertex -3.32649 0.213562 -5
      vertex -3.33334 0 -5
      vertex -5 0 -5
    endloop
  endfacet
  facet normal 0 0 -1
    outer loop
      vertex -3.30597 0.426254 -5
      vertex -3.32649 0.213562 -5
      vertex -5 0 -5
    endloop
  endfacet
  facet normal 0 0 -1
    outer loop
      vertex -3.27187 0.637192 -5
      vertex -3.30597 0.426254 -5
      vertex -5 0 -5
    endloop
  endfacet
  facet normal -0 0 -1
    outer loop
      vertex -3.22432 0.845505 -5
      vertex -5 0 -5
      vertex -3.16353 1.05035 -5
    endloop
  endfacet
  facet normal 0 0 -1
    outer loop
      vertex -2.46384 4.34787 -5
      vertex -2.3127 4.43298 -5
      vertex -0.932861 3.19965 -5
    endloop
  endfacet
  facet normal 0 0 -1
    outer loop
      vertex 0.492767 3.29565 -5
      vertex 1.72682 4.69234 -5
      vertex 2.02391 4.57205 -5
    endloop
  endfacet
  facet normal 0 0 -1
    outer loop
      vertex 0.480103 4.97688 -5
      vertex 0.320068 3.31792 -5
      vertex 0.106827 3.33162 -5
    endloop
  endfacet
  facet normal 0 0 -1
    outer loop
      vertex -0.320084 3.31792 -5
      vertex -0.480118 4.97688 -5
      vertex -0.106842 3.33162 -5
    endloop
  endfacet
  facet normal -0 0 -1
    outer loop
      vertex 1.11259 4.87463 -5
      vertex 0.492767 3.29565 -5
      vertex 0.797989 4.9359 -5
    endloop
  endfacet
  facet normal 0 -0 -1
    outer loop
      vertex 1.11259 4.87463 -5
      vertex 1.42262 4.79333 -5
      vertex 0.492767 3.29565 -5
    endloop
  endfacet
  facet normal 0 0 -1
    outer loop
      vertex 0.492767 3.29565 -5
      vertex 1.42262 4.79333 -5
      vertex 1.72682 4.69234 -5
    endloop
  endfacet
  facet normal 0 0 -1
    outer loop
      vertex -0.370377 2.77777 -5
      vertex 3.32648 0.213562 -5
      vertex 3.33333 0 -5
    endloop
  endfacet
  facet normal 0 0 -1
    outer loop
      vertex -0.370377 2.77777 -5
      vertex 2.241 2.46759 -5
      vertex 2.39449 2.31894 -5
    endloop
  endfacet
  facet normal 0 0 -1
    outer loop
      vertex 3.32648 0.213562 -5
      vertex -0.370377 2.77777 -5
      vertex 3.30595 0.426254 -5
    endloop
  endfacet
  facet normal 0 0 -1
    outer loop
      vertex 3.30595 0.426254 -5
      vertex -0.370377 2.77777 -5
      vertex 3.27185 0.637192 -5
    endloop
  endfacet
  facet normal 0 0 -1
    outer loop
      vertex 3.27185 0.637192 -5
      vertex -0.370377 2.77777 -5
      vertex 3.2243 0.845505 -5
    endloop
  endfacet
  facet normal 0 0 -1
    outer loop
      vertex -0.370377 2.77777 -5
      vertex 3.08972 1.25089 -5
      vertex 3.16351 1.05035 -5
    endloop
  endfacet
  facet normal 0 0 -1
    outer loop
      vertex -0.370377 2.77777 -5
      vertex 2.90439 1.63571 -5
      vertex 3.00322 1.44627 -5
    endloop
  endfacet
  facet normal 0 0 -1
    outer loop
      vertex -0.370377 2.77777 -5
      vertex 2.67137 1.9937 -5
      vertex 2.79362 1.81844 -5
    endloop
  endfacet
  facet normal 0 0 -1
    outer loop
      vertex -0.370377 2.77777 -5
      vertex 2.39449 2.31894 -5
      vertex 2.53815 2.16075 -5
    endloop
  endfacet
  facet normal 0 0 -1
    outer loop
      vertex -0.370377 2.77777 -5
      vertex 2.07829 2.60609 -5
      vertex 2.241 2.46759 -5
    endloop
  endfacet
  facet normal 0 0 -1
    outer loop
      vertex -0.370377 2.77777 -5
      vertex 1.90704 2.7339 -5
      vertex 2.07829 2.60609 -5
    endloop
  endfacet
  facet normal 0 0 -1
    outer loop
      vertex -0.370377 2.77777 -5
      vertex 1.72797 2.85046 -5
      vertex 1.90704 2.7339 -5
    endloop
  endfacet
  facet normal 0 0 -1
    outer loop
      vertex -0.370377 2.77777 -5
      vertex 1.54179 2.95532 -5
      vertex 1.72797 2.85046 -5
    endloop
  endfacet
  facet normal 0 0 -1
    outer loop
      vertex -0.370377 2.77777 -5
      vertex 1.34927 3.04803 -5
      vertex 1.54179 2.95532 -5
    endloop
  endfacet
  facet normal 0 0 -1
    outer loop
      vertex -0.370377 2.77777 -5
      vertex 1.15121 3.12822 -5
      vertex 1.34927 3.04803 -5
    endloop
  endfacet
  facet normal 0 0 -1
    outer loop
      vertex -0.370377 2.77777 -5
      vertex 0.94841 3.19556 -5
      vertex 1.15121 3.12822 -5
    endloop
  endfacet
  facet normal 0 0 -1
    outer loop
      vertex -0.370377 2.77777 -5
      vertex 0.74173 3.24976 -5
      vertex 0.94841 3.19556 -5
    endloop
  endfacet
  facet normal 0 0 -1
    outer loop
      vertex -0.370377 2.77777 -5
      vertex 0.531998 3.2906 -5
      vertex 0.74173 3.24976 -5
    endloop
  endfacet
  facet normal 0 0 -1
    outer loop
      vertex -0.370377 2.77777 -5
      vertex 0.492767 3.29565 -5
      vertex 0.531998 3.2906 -5
    endloop
  endfacet
  facet normal 0 0 -1
    outer loop
      vertex 0.492767 3.29565 -5
      vertex 0.480103 4.97688 -5
      vertex 0.797989 4.9359 -5
    endloop
  endfacet
  facet normal 0 -0 -1
    outer loop
      vertex 0.160248 4.99742 -5
      vertex 0.480103 4.97688 -5
      vertex 0.106827 3.33162 -5
    endloop
  endfacet
  facet normal 0 0 -1
    outer loop
      vertex -0.160263 4.99742 -5
      vertex 0.160248 4.99742 -5
      vertex 0.106827 3.33162 -5
    endloop
  endfacet
  facet normal 0 0 -1
    outer loop
      vertex -0.106842 3.33162 -5
      vertex -0.160263 4.99742 -5
      vertex 0.106827 3.33162 -5
    endloop
  endfacet
  facet normal 0 0 -1
    outer loop
      vertex -0.106842 3.33162 -5
      vertex -0.480118 4.97688 -5
      vertex -0.160263 4.99742 -5
    endloop
  endfacet
  facet normal -0 0 -1
    outer loop
      vertex -0.320084 3.31792 -5
      vertex -0.532013 3.2906 -5
      vertex -0.480118 4.97688 -5
    endloop
  endfacet
  facet normal 0 0 -1
    outer loop
      vertex -0.480118 4.97688 -5
      vertex -0.532013 3.2906 -5
      vertex -0.798004 4.9359 -5
    endloop
  endfacet
  facet normal 0 -0 -1
    outer loop
      vertex -0.798004 4.9359 -5
      vertex -0.532013 3.2906 -5
      vertex -1.11261 4.87463 -5
    endloop
  endfacet
  facet normal 0 0 -1
    outer loop
      vertex -1.11261 4.87463 -5
      vertex -0.532013 3.2906 -5
      vertex -0.741745 3.24976 -5
    endloop
  endfacet
  facet normal 0 0 -1
    outer loop
      vertex -0.932861 3.19965 -5
      vertex -1.11261 4.87463 -5
      vertex -0.741745 3.24976 -5
    endloop
  endfacet
  facet normal 0 0 -1
    outer loop
      vertex -0.932861 3.19965 -5
      vertex -1.42264 4.79333 -5
      vertex -1.11261 4.87463 -5
    endloop
  endfacet
  facet normal 0 0 -1
    outer loop
      vertex -0.932861 3.19965 -5
      vertex -1.72684 4.69234 -5
      vertex -1.42264 4.79333 -5
    endloop
  endfacet
  facet normal 0 0 -1
    outer loop
      vertex -0.932861 3.19965 -5
      vertex -2.02393 4.57205 -5
      vertex -1.72684 4.69234 -5
    endloop
  endfacet
  facet normal 0 0 -1
    outer loop
      vertex -0.932861 3.19965 -5
      vertex -2.3127 4.43298 -5
      vertex -2.02393 4.57205 -5
    endloop
  endfacet
  facet normal -0 0 -1
    outer loop
      vertex -3.16353 1.05035 -5
      vertex -5 0 -5
      vertex -3.13919 1.11649 -5
    endloop
  endfacet
  facet normal 0 0 -1
    outer loop
      vertex -3.22432 0.845505 -5
      vertex -3.27187 0.637192 -5
      vertex -5 0 -5
    endloop
  endfacet
  facet normal 0 0 -1
    outer loop
      vertex -1.15123 3.12822 -5
      vertex -0.948425 3.19556 -5
      vertex -0.370377 2.77777 -5
    endloop
  endfacet
  facet normal 0 0 -1
    outer loop
      vertex -1.34929 3.04803 -5
      vertex -1.15123 3.12822 -5
      vertex -0.370377 2.77777 -5
    endloop
  endfacet
  facet normal 0 0 -1
    outer loop
      vertex -1.54181 2.95532 -5
      vertex -1.34929 3.04803 -5
      vertex -0.370377 2.77777 -5
    endloop
  endfacet
  facet normal 0 0 -1
    outer loop
      vertex -1.72798 2.85046 -5
      vertex -1.54181 2.95532 -5
      vertex -0.370377 2.77777 -5
    endloop
  endfacet
  facet normal 0 0 -1
    outer loop
      vertex -1.90706 2.7339 -5
      vertex -1.72798 2.85046 -5
      vertex -0.370377 2.77777 -5
    endloop
  endfacet
  facet normal 0 0 -1
    outer loop
      vertex -2.07831 2.60609 -5
      vertex -1.90706 2.7339 -5
      vertex -0.370377 2.77777 -5
    endloop
  endfacet
  facet normal 0 0 -1
    outer loop
      vertex -2.24101 2.46759 -5
      vertex -2.07831 2.60609 -5
      vertex -0.370377 2.77777 -5
    endloop
  endfacet
  facet normal 0 0 -1
    outer loop
      vertex -2.3945 2.31894 -5
      vertex -2.24101 2.46759 -5
      vertex -0.370377 2.77777 -5
    endloop
  endfacet
  facet normal 0 0 -1
    outer loop
      vertex -2.53816 2.16075 -5
      vertex -2.3945 2.31894 -5
      vertex -0.370377 2.77777 -5
    endloop
  endfacet
  facet normal 0 0 -1
    outer loop
      vertex -2.67139 1.9937 -5
      vertex -2.53816 2.16075 -5
      vertex -0.370377 2.77777 -5
    endloop
  endfacet
  facet normal 0 0 -1
    outer loop
      vertex -2.79364 1.81844 -5
      vertex -2.67139 1.9937 -5
      vertex -0.370377 2.77777 -5
    endloop
  endfacet
  facet normal 0 0 -1
    outer loop
      vertex -2.9044 1.63571 -5
      vertex -2.79364 1.81844 -5
      vertex -0.370377 2.77777 -5
    endloop
  endfacet
  facet normal 0 0 -1
    outer loop
      vertex -3.00323 1.44627 -5
      vertex -2.9044 1.63571 -5
      vertex -0.370377 2.77777 -5
    endloop
  endfacet
  facet normal 0 0 -1
    outer loop
      vertex -3.08974 1.25089 -5
      vertex -3.00323 1.44627 -5
      vertex -0.370377 2.77777 -5
    endloop
  endfacet
  facet normal 0 0 -1
    outer loop
      vertex -3.13919 1.11649 -5
      vertex -3.08974 1.25089 -5
      vertex -0.370377 2.77777 -5
    endloop
  endfacet
  facet normal 0 -0 -1
    outer loop
      vertex 3.33333 0 -5
      vertex 5 -5 -5
      vertex -5 -5 -5
    endloop
  endfacet
  facet normal -0 0 -1
    outer loop
      vertex -4.98973 0.320343 -5
      vertex -5 0 -5
      vertex -5 5 -5
    endloop
  endfacet
  facet normal -0 0 -1
    outer loop
      vertex -4.95895 0.639374 -5
      vertex -4.98973 0.320343 -5
      vertex -5 5 -5
    endloop
  endfacet
  facet normal -0 0 -1
    outer loop
      vertex -4.90781 0.95578 -5
      vertex -4.95895 0.639374 -5
      vertex -5 5 -5
    endloop
  endfacet
  facet normal -0 0 -1
    outer loop
      vertex -4.83649 1.26826 -5
      vertex -4.90781 0.95578 -5
      vertex -5 5 -5
    endloop
  endfacet
  facet normal -0 0 -1
    outer loop
      vertex -4.74529 1.57553 -5
      vertex -4.83649 1.26826 -5
      vertex -5 5 -5
    endloop
  endfacet
  facet normal -0 0 -1
    outer loop
      vertex -4.6346 1.87633 -5
      vertex -4.74529 1.57553 -5
      vertex -5 5 -5
    endloop
  endfacet
  facet normal 0 0 -1
    outer loop
      vertex -4.50485 2.16942 -5
      vertex -5 5 -5
      vertex -4.3566 2.45358 -5
    endloop
  endfacet
  facet normal 0 0 -1
    outer loop
      vertex -4.3566 2.45358 -5
      vertex -5 5 -5
      vertex -4.19044 2.72766 -5
    endloop
  endfacet
  facet normal 0 0 -1
    outer loop
      vertex -4.19044 2.72766 -5
      vertex -5 5 -5
      vertex -4.00708 2.99054 -5
    endloop
  endfacet
  facet normal 0 0 -1
    outer loop
      vertex -4.00708 2.99054 -5
      vertex -5 5 -5
      vertex -3.80724 3.24113 -5
    endloop
  endfacet
  facet normal 0 0 -1
    outer loop
      vertex -3.80724 3.24113 -5
      vertex -5 5 -5
      vertex -3.59175 3.47841 -5
    endloop
  endfacet
  facet normal 0 0 -1
    outer loop
      vertex -3.59175 3.47841 -5
      vertex -5 5 -5
      vertex -3.36151 3.70139 -5
    endloop
  endfacet
  facet normal 0 0 -1
    outer loop
      vertex -3.36151 3.70139 -5
      vertex -5 5 -5
      vertex -3.33334 5 -5
    endloop
  endfacet
  facet normal -0 0 -1
    outer loop
      vertex -3.11746 3.90915 -5
      vertex -3.36151 3.70139 -5
      vertex -3.33334 5 -5
    endloop
  endfacet
  facet normal -0 0 -1
    outer loop
      vertex -2.8606 4.10086 -5
      vertex -3.11746 3.90915 -5
      vertex -3.33334 5 -5
    endloop
  endfacet
  facet normal -0 0 -1
    outer loop
      vertex -2.46384 4.34787 -5
      vertex -2.59196 4.27571 -5
      vertex -3.33334 5 -5
    endloop
  endfacet
  facet normal -0 0 -1
    outer loop
      vertex -2.59196 4.27571 -5
      vertex -2.8606 4.10086 -5
      vertex -3.33334 5 -5
    endloop
  endfacet
  facet normal -0 0 -1
    outer loop
      vertex -4.50485 2.16942 -5
      vertex -4.6346 1.87633 -5
      vertex -5 5 -5
    endloop
  endfacet
  facet normal -0 0 1
    outer loop
      vertex 2.35168 4.41101 5
      vertex 2.59195 4.27571 5
      vertex 3.33333 5 5
    endloop
  endfacet
  facet normal -0 0 1
    outer loop
      vertex 3.33333 0 5
      vertex 5 -5 5
      vertex 5 0 5
    endloop
  endfacet
  facet normal 0 0 1
    outer loop
      vertex -0.932861 3.19965 5
      vertex -0.948425 3.19556 5
      vertex -0.370377 2.77777 5
    endloop
  endfacet
  facet normal 0 0 1
    outer loop
      vertex 3.33333 5 5
      vertex 2.59195 4.27571 5
      vertex 2.86058 4.10086 5
    endloop
  endfacet
  facet normal 0 0 1
    outer loop
      vertex 3.33333 5 5
      vertex 2.86058 4.10086 5
      vertex 3.11745 3.90915 5
    endloop
  endfacet
  facet normal -0 0 1
    outer loop
      vertex 0.320068 3.31792 5
      vertex 0.492767 3.29565 5
      vertex 0.480103 4.97688 5
    endloop
  endfacet
  facet normal 0 0 1
    outer loop
      vertex 3.33333 5 5
      vertex 3.11745 3.90915 5
      vertex 3.3615 3.70139 5
    endloop
  endfacet
  facet normal 0 0 1
    outer loop
      vertex 2.31268 4.43298 5
      vertex 2.02391 4.57205 5
      vertex 0.492767 3.29565 5
    endloop
  endfacet
  facet normal -0 0 1
    outer loop
      vertex 3.33333 5 5
      vertex 3.3615 3.70139 5
      vertex 5 5 5
    endloop
  endfacet
  facet normal 0 0 1
    outer loop
      vertex 2.35168 4.41101 5
      vertex 2.31268 4.43298 5
      vertex 0.492767 3.29565 5
    endloop
  endfacet
  facet normal -0 0 1
    outer loop
      vertex 3.3615 3.70139 5
      vertex 3.59174 3.47841 5
      vertex 5 5 5
    endloop
  endfacet
  facet normal 0 0 1
    outer loop
      vertex 2.67137 1.9937 5
      vertex 2.53815 2.16075 5
      vertex -0.370377 2.77777 5
    endloop
  endfacet
  facet normal -0 0 1
    outer loop
      vertex 3.59174 3.47841 5
      vertex 3.80722 3.24113 5
      vertex 5 5 5
    endloop
  endfacet
  facet normal 0 0 1
    outer loop
      vertex 2.90439 1.63571 5
      vertex 2.79362 1.81844 5
      vertex -0.370377 2.77777 5
    endloop
  endfacet
  facet normal -0 0 1
    outer loop
      vertex 3.80722 3.24113 5
      vertex 4.00706 2.99054 5
      vertex 5 5 5
    endloop
  endfacet
  facet normal 0 0 1
    outer loop
      vertex 3.08972 1.25089 5
      vertex 3.00322 1.44627 5
      vertex -0.370377 2.77777 5
    endloop
  endfacet
  facet normal -0 0 1
    outer loop
      vertex 4.00706 2.99054 5
      vertex 4.19043 2.72766 5
      vertex 5 5 5
    endloop
  endfacet
  facet normal 0 0 1
    outer loop
      vertex 3.2243 0.845505 5
      vertex 3.16351 1.05035 5
      vertex -0.370377 2.77777 5
    endloop
  endfacet
  facet normal -0 0 1
    outer loop
      vertex 4.19043 2.72766 5
      vertex 4.35658 2.45358 5
      vertex 5 5 5
    endloop
  endfacet
  facet normal -0 0 1
    outer loop
      vertex 4.35658 2.45358 5
      vertex 4.50484 2.16942 5
      vertex 5 5 5
    endloop
  endfacet
  facet normal -0 0 1
    outer loop
      vertex 4.50484 2.16942 5
      vertex 4.63458 1.87633 5
      vertex 5 5 5
    endloop
  endfacet
  facet normal -0 0 1
    outer loop
      vertex 4.63458 1.87633 5
      vertex 4.74527 1.57553 5
      vertex 5 5 5
    endloop
  endfacet
  facet normal -0 0 1
    outer loop
      vertex 4.74527 1.57553 5
      vertex 4.83647 1.26826 5
      vertex 5 5 5
    endloop
  endfacet
  facet normal -0 0 1
    outer loop
      vertex 4.83647 1.26826 5
      vertex 4.90779 0.95578 5
      vertex 5 5 5
    endloop
  endfacet
  facet normal -0 0 1
    outer loop
      vertex 4.90779 0.95578 5
      vertex 4.95894 0.639374 5
      vertex 5 5 5
    endloop
  endfacet
  facet normal -0 0 1
    outer loop
      vertex 4.95894 0.639374 5
      vertex 4.98972 0.320343 5
      vertex 5 5 5
    endloop
  endfacet
  facet normal -0 0 1
    outer loop
      vertex 4.98972 0.320343 5
      vertex 5 0 5
      vertex 5 5 5
    endloop
  endfacet
  facet normal 0 0 1
    outer loop
      vertex 3.33333 0 5
      vertex -3.33334 0 5
      vertex -5 -5 5
    endloop
  endfacet
  facet normal -0 0 1
    outer loop
      vertex -5 0 5
      vertex -5 -5 5
      vertex -3.33334 0 5
    endloop
  endfacet
  facet normal 0 0 1
    outer loop
      vertex -5 0 5
      vertex -3.33334 0 5
      vertex -3.32649 0.213562 5
    endloop
  endfacet
  facet normal 0 0 1
    outer loop
      vertex -5 0 5
      vertex -3.32649 0.213562 5
      vertex -3.30597 0.426254 5
    endloop
  endfacet
  facet normal 0 0 1
    outer loop
      vertex -5 0 5
      vertex -3.30597 0.426254 5
      vertex -3.27187 0.637192 5
    endloop
  endfacet
  facet normal 0 0 1
    outer loop
      vertex -3.16353 1.05035 5
      vertex -5 0 5
      vertex -3.22432 0.845505 5
    endloop
  endfacet
  facet normal 0 0 1
    outer loop
      vertex -0.932861 3.19965 5
      vertex -2.3127 4.43298 5
      vertex -2.46384 4.34787 5
    endloop
  endfacet
  facet normal 0 0 1
    outer loop
      vertex 2.02391 4.57205 5
      vertex 1.72682 4.69234 5
      vertex 0.492767 3.29565 5
    endloop
  endfacet
  facet normal -0 0 1
    outer loop
      vertex 0.106827 3.33162 5
      vertex 0.320068 3.31792 5
      vertex 0.480103 4.97688 5
    endloop
  endfacet
  facet normal 0 0 1
    outer loop
      vertex -0.106842 3.33162 5
      vertex -0.480118 4.97688 5
      vertex -0.320084 3.31792 5
    endloop
  endfacet
  facet normal 0 0 1
    outer loop
      vertex 0.797989 4.9359 5
      vertex 0.492767 3.29565 5
      vertex 1.11259 4.87463 5
    endloop
  endfacet
  facet normal 0 0 1
    outer loop
      vertex 0.492767 3.29565 5
      vertex 1.42262 4.79333 5
      vertex 1.11259 4.87463 5
    endloop
  endfacet
  facet normal 0 0 1
    outer loop
      vertex 1.72682 4.69234 5
      vertex 1.42262 4.79333 5
      vertex 0.492767 3.29565 5
    endloop
  endfacet
  facet normal 0 0 1
    outer loop
      vertex 3.33333 0 5
      vertex 3.32648 0.213562 5
      vertex -0.370377 2.77777 5
    endloop
  endfacet
  facet normal 0 0 1
    outer loop
      vertex 2.39449 2.31894 5
      vertex 2.241 2.46759 5
      vertex -0.370377 2.77777 5
    endloop
  endfacet
  facet normal 0 0 1
    outer loop
      vertex 3.30595 0.426254 5
      vertex -0.370377 2.77777 5
      vertex 3.32648 0.213562 5
    endloop
  endfacet
  facet normal 0 0 1
    outer loop
      vertex 3.27185 0.637192 5
      vertex -0.370377 2.77777 5
      vertex 3.30595 0.426254 5
    endloop
  endfacet
  facet normal 0 0 1
    outer loop
      vertex 3.2243 0.845505 5
      vertex -0.370377 2.77777 5
      vertex 3.27185 0.637192 5
    endloop
  endfacet
  facet normal 0 0 1
    outer loop
      vertex 3.16351 1.05035 5
      vertex 3.08972 1.25089 5
      vertex -0.370377 2.77777 5
    endloop
  endfacet
  facet normal 0 0 1
    outer loop
      vertex 3.00322 1.44627 5
      vertex 2.90439 1.63571 5
      vertex -0.370377 2.77777 5
    endloop
  endfacet
  facet normal 0 0 1
    outer loop
      vertex 2.79362 1.81844 5
      vertex 2.67137 1.9937 5
      vertex -0.370377 2.77777 5
    endloop
  endfacet
  facet normal 0 0 1
    outer loop
      vertex 2.53815 2.16075 5
      vertex 2.39449 2.31894 5
      vertex -0.370377 2.77777 5
    endloop
  endfacet
  facet normal 0 0 1
    outer loop
      vertex 2.241 2.46759 5
      vertex 2.07829 2.60609 5
      vertex -0.370377 2.77777 5
    endloop
  endfacet
  facet normal 0 0 1
    outer loop
      vertex 2.07829 2.60609 5
      vertex 1.90704 2.7339 5
      vertex -0.370377 2.77777 5
    endloop
  endfacet
  facet normal 0 0 1
    outer loop
      vertex 1.90704 2.7339 5
      vertex 1.72797 2.85046 5
      vertex -0.370377 2.77777 5
    endloop
  endfacet
  facet normal 0 0 1
    outer loop
      vertex 1.72797 2.85046 5
      vertex 1.54179 2.95532 5
      vertex -0.370377 2.77777 5
    endloop
  endfacet
  facet normal 0 0 1
    outer loop
      vertex 1.54179 2.95532 5
      vertex 1.34927 3.04803 5
      vertex -0.370377 2.77777 5
    endloop
  endfacet
  facet normal 0 0 1
    outer loop
      vertex 1.34927 3.04803 5
      vertex 1.15121 3.12822 5
      vertex -0.370377 2.77777 5
    endloop
  endfacet
  facet normal 0 0 1
    outer loop
      vertex 1.15121 3.12822 5
      vertex 0.94841 3.19556 5
      vertex -0.370377 2.77777 5
    endloop
  endfacet
  facet normal 0 0 1
    outer loop
      vertex 0.94841 3.19556 5
      vertex 0.74173 3.24976 5
      vertex -0.370377 2.77777 5
    endloop
  endfacet
  facet normal 0 0 1
    outer loop
      vertex 0.74173 3.24976 5
      vertex 0.531998 3.2906 5
      vertex -0.370377 2.77777 5
    endloop
  endfacet
  facet normal 0 0 1
    outer loop
      vertex 0.531998 3.2906 5
      vertex 0.492767 3.29565 5
      vertex -0.370377 2.77777 5
    endloop
  endfacet
  facet normal 0 0 1
    outer loop
      vertex 0.797989 4.9359 5
      vertex 0.480103 4.97688 5
      vertex 0.492767 3.29565 5
    endloop
  endfacet
  facet normal 0 0 1
    outer loop
      vertex 0.106827 3.33162 5
      vertex 0.480103 4.97688 5
      vertex 0.160248 4.99742 5
    endloop
  endfacet
  facet normal 0 -0 1
    outer loop
      vertex 0.106827 3.33162 5
      vertex 0.160248 4.99742 5
      vertex -0.160263 4.99742 5
    endloop
  endfacet
  facet normal 0 0 1
    outer loop
      vertex 0.106827 3.33162 5
      vertex -0.160263 4.99742 5
      vertex -0.106842 3.33162 5
    endloop
  endfacet
  facet normal 0 0 1
    outer loop
      vertex -0.160263 4.99742 5
      vertex -0.480118 4.97688 5
      vertex -0.106842 3.33162 5
    endloop
  endfacet
  facet normal 0 0 1
    outer loop
      vertex -0.480118 4.97688 5
      vertex -0.532013 3.2906 5
      vertex -0.320084 3.31792 5
    endloop
  endfacet
  facet normal -0 0 1
    outer loop
      vertex -0.798004 4.9359 5
      vertex -0.532013 3.2906 5
      vertex -0.480118 4.97688 5
    endloop
  endfacet
  facet normal -0 0 1
    outer loop
      vertex -1.11261 4.87463 5
      vertex -0.532013 3.2906 5
      vertex -0.798004 4.9359 5
    endloop
  endfacet
  facet normal 0 -0 1
    outer loop
      vertex -0.741745 3.24976 5
      vertex -0.532013 3.2906 5
      vertex -1.11261 4.87463 5
    endloop
  endfacet
  facet normal 0 0 1
    outer loop
      vertex -0.741745 3.24976 5
      vertex -1.11261 4.87463 5
      vertex -0.932861 3.19965 5
    endloop
  endfacet
  facet normal 0 0 1
    outer loop
      vertex -1.11261 4.87463 5
      vertex -1.42264 4.79333 5
      vertex -0.932861 3.19965 5
    endloop
  endfacet
  facet normal 0 0 1
    outer loop
      vertex -1.42264 4.79333 5
      vertex -1.72684 4.69234 5
      vertex -0.932861 3.19965 5
    endloop
  endfacet
  facet normal 0 0 1
    outer loop
      vertex -1.72684 4.69234 5
      vertex -2.02393 4.57205 5
      vertex -0.932861 3.19965 5
    endloop
  endfacet
  facet normal 0 0 1
    outer loop
      vertex -2.02393 4.57205 5
      vertex -2.3127 4.43298 5
      vertex -0.932861 3.19965 5
    endloop
  endfacet
  facet normal 0 0 1
    outer loop
      vertex -3.13919 1.11649 5
      vertex -5 0 5
      vertex -3.16353 1.05035 5
    endloop
  endfacet
  facet normal 0 0 1
    outer loop
      vertex -5 0 5
      vertex -3.27187 0.637192 5
      vertex -3.22432 0.845505 5
    endloop
  endfacet
  facet normal 0 0 1
    outer loop
      vertex -0.370377 2.77777 5
      vertex -0.948425 3.19556 5
      vertex -1.15123 3.12822 5
    endloop
  endfacet
  facet normal 0 0 1
    outer loop
      vertex -0.370377 2.77777 5
      vertex -1.15123 3.12822 5
      vertex -1.34929 3.04803 5
    endloop
  endfacet
  facet normal 0 0 1
    outer loop
      vertex -0.370377 2.77777 5
      vertex -1.34929 3.04803 5
      vertex -1.54181 2.95532 5
    endloop
  endfacet
  facet normal 0 0 1
    outer loop
      vertex -0.370377 2.77777 5
      vertex -1.54181 2.95532 5
      vertex -1.72798 2.85046 5
    endloop
  endfacet
  facet normal 0 0 1
    outer loop
      vertex -0.370377 2.77777 5
      vertex -1.72798 2.85046 5
      vertex -1.90706 2.7339 5
    endloop
  endfacet
  facet normal 0 0 1
    outer loop
      vertex -0.370377 2.77777 5
      vertex -1.90706 2.7339 5
      vertex -2.07831 2.60609 5
    endloop
  endfacet
  facet normal 0 0 1
    outer loop
      vertex -0.370377 2.77777 5
      vertex -2.07831 2.60609 5
      vertex -2.24101 2.46759 5
    endloop
  endfacet
  facet normal 0 0 1
    outer loop
      vertex -0.370377 2.77777 5
      vertex -2.24101 2.46759 5
      vertex -2.3945 2.31894 5
    endloop
  endfacet
  facet normal 0 0 1
    outer loop
      vertex -0.370377 2.77777 5
      vertex -2.3945 2.31894 5
      vertex -2.53816 2.16075 5
    endloop
  endfacet
  facet normal 0 0 1
    outer loop
      vertex -0.370377 2.77777 5
      vertex -2.53816 2.16075 5
      vertex -2.67139 1.9937 5
    endloop
  endfacet
  facet normal 0 0 1
    outer loop
      vertex -0.370377 2.77777 5
      vertex -2.67139 1.9937 5
      vertex -2.79364 1.81844 5
    endloop
  endfacet
  facet normal 0 0 1
    outer loop
      vertex -0.370377 2.77777 5
      vertex -2.79364 1.81844 5
      vertex -2.9044 1.63571 5
    endloop
  endfacet
  facet normal 0 0 1
    outer loop
      vertex -0.370377 2.77777 5
      vertex -2.9044 1.63571 5
      vertex -3.00323 1.44627 5
    endloop
  endfacet
  facet normal 0 0 1
    outer loop
      vertex -0.370377 2.77777 5
      vertex -3.00323 1.44627 5
      vertex -3.08974 1.25089 5
    endloop
  endfacet
  facet normal 0 0 1
    outer loop
      vertex -0.370377 2.77777 5
      vertex -3.08974 1.25089 5
      vertex -3.13919 1.11649 5
    endloop
  endfacet
  facet normal 0 0 1
    outer loop
      vertex -5 -5 5
      vertex 5 -5 5
      vertex 3.33333 0 5
    endloop
  endfacet
  facet normal 0 0 1
    outer loop
      vertex -5 5 5
      vertex -5 0 5
      vertex -4.98973 0.320343 5
    endloop
  endfacet
  facet normal 0 0 1
    outer loop
      vertex -5 5 5
      vertex -4.98973 0.320343 5
      vertex -4.95895 0.639374 5
    endloop
  endfacet
  facet normal 0 0 1
    outer loop
      vertex -5 5 5
      vertex -4.95895 0.639374 5
      vertex -4.90781 0.95578 5
    endloop
  endfacet
  facet normal 0 0 1
    outer loop
      vertex -5 5 5
      vertex -4.90781 0.95578 5
      vertex -4.83649 1.26826 5
    endloop
  endfacet
  facet normal 0 0 1
    outer loop
      vertex -5 5 5
      vertex -4.83649 1.26826 5
      vertex -4.74529 1.57553 5
    endloop
  endfacet
  facet normal 0 0 1
    outer loop
      vertex -5 5 5
      vertex -4.74529 1.57553 5
      vertex -4.6346 1.87633 5
    endloop
  endfacet
  facet normal 0 0 1
    outer loop
      vertex -4.3566 2.45358 5
      vertex -5 5 5
      vertex -4.50485 2.16942 5
    endloop
  endfacet
  facet normal 0 0 1
    outer loop
      vertex -4.19044 2.72766 5
      vertex -5 5 5
      vertex -4.3566 2.45358 5
    endloop
  endfacet
  facet normal 0 0 1
    outer loop
      vertex -4.00708 2.99054 5
      vertex -5 5 5
      vertex -4.19044 2.72766 5
    endloop
  endfacet
  facet normal 0 0 1
    outer loop
      vertex -3.80724 3.24113 5
      vertex -5 5 5
      vertex -4.00708 2.99054 5
    endloop
  endfacet
  facet normal 0 0 1
    outer loop
      vertex -3.59175 3.47841 5
      vertex -5 5 5
      vertex -3.80724 3.24113 5
    endloop
  endfacet
  facet normal 0 0 1
    outer loop
      vertex -3.36151 3.70139 5
      vertex -5 5 5
      vertex -3.59175 3.47841 5
    endloop
  endfacet
  facet normal 0 0 1
    outer loop
      vertex -3.33334 5 5
      vertex -5 5 5
      vertex -3.36151 3.70139 5
    endloop
  endfacet
  facet normal 0 0 1
    outer loop
      vertex -3.33334 5 5
      vertex -3.36151 3.70139 5
      vertex -3.11746 3.90915 5
    endloop
  endfacet
  facet normal 0 0 1
    outer loop
      vertex -3.33334 5 5
      vertex -3.11746 3.90915 5
      vertex -2.8606 4.10086 5
    endloop
  endfacet
  facet normal 0 0 1
    outer loop
      vertex -3.33334 5 5
      vertex -2.59196 4.27571 5
      vertex -2.46384 4.34787 5
    endloop
  endfacet
  facet normal 0 0 1
    outer loop
      vertex -3.33334 5 5
      vertex -2.8606 4.10086 5
      vertex -2.59196 4.27571 5
    endloop
  endfacet
  facet normal 0 0 1
    outer loop
      vertex -5 5 5
      vertex -4.6346 1.87633 5
      vertex -4.50485 2.16942 5
    endloop
  endfacet
  facet normal 0 1 0
    outer loop
      vertex 3.33333 5 -5
      vertex 5 5 5
      vertex 5 5 -5
    endloop
  endfacet
  facet normal 0 1 0
    outer loop
      vertex 3.33333 5 -5
      vertex 3.33333 5 5
      vertex 5 5 5
    endloop
  endfacet
  facet normal -0.514496 0.857493 0
    outer loop
      vertex 2.35168 4.41101 -5
      vertex 3.33333 5 5
      vertex 3.33333 5 -5
    endloop
  endfacet
  facet normal -0.514496 0.857493 0
    outer loop
      vertex 2.35168 4.41101 -5
      vertex 2.35168 4.41101 5
      vertex 3.33333 5 5
    endloop
  endfacet
  facet normal -0.490669 -0.871346 0
    outer loop
      vertex 2.59195 4.27571 -5
      vertex 2.35168 4.41101 5
      vertex 2.35168 4.41101 -5
    endloop
  endfacet
  facet normal -0.490669 -0.871346 0
    outer loop
      vertex 2.59195 4.27571 -5
      vertex 2.59195 4.27571 5
      vertex 2.35168 4.41101 5
    endloop
  endfacet
  facet normal -0.545516 -0.838101 0
    outer loop
      vertex 2.86058 4.10086 -5
      vertex 2.59195 4.27571 5
      vertex 2.59195 4.27571 -5
    endloop
  endfacet
  facet normal -0.545516 -0.838101 0
    outer loop
      vertex 2.86058 4.10086 -5
      vertex 2.86058 4.10086 5
      vertex 2.59195 4.27571 5
    endloop
  endfacet
  facet normal -0.598116 -0.801409 0
    outer loop
      vertex 3.11745 3.90915 -5
      vertex 2.86058 4.10086 5
      vertex 2.86058 4.10086 -5
    endloop
  endfacet
  facet normal -0.598116 -0.801409 0
    outer loop
      vertex 3.11745 3.90915 -5
      vertex 3.11745 3.90915 5
      vertex 2.86058 4.10086 5
    endloop
  endfacet
  facet normal -0.648223 -0.76145 0
    outer loop
      vertex 3.3615 3.70139 -5
      vertex 3.11745 3.90915 5
      vertex 3.11745 3.90915 -5
    endloop
  endfacet
  facet normal -0.648223 -0.76145 0
    outer loop
      vertex 3.3615 3.70139 -5
      vertex 3.3615 3.70139 5
      vertex 3.11745 3.90915 5
    endloop
  endfacet
  facet normal -0.695691 -0.718342 0
    outer loop
      vertex 3.59174 3.47841 -5
      vertex 3.3615 3.70139 5
      vertex 3.3615 3.70139 -5
    endloop
  endfacet
  facet normal -0.695691 -0.718342 0
    outer loop
      vertex 3.59174 3.47841 -5
      vertex 3.59174 3.47841 5
      vertex 3.3615 3.70139 5
    endloop
  endfacet
  facet normal -0.740296 -0.672281 0
    outer loop
      vertex 3.80722 3.24113 -5
      vertex 3.59174 3.47841 5
      vertex 3.59174 3.47841 -5
    endloop
  endfacet
  facet normal -0.740296 -0.672281 0
    outer loop
      vertex 3.80722 3.24113 -5
      vertex 3.80722 3.24113 5
      vertex 3.59174 3.47841 5
    endloop
  endfacet
  facet normal -0.78183 -0.623492 0
    outer loop
      vertex 4.00706 2.99054 -5
      vertex 3.80722 3.24113 5
      vertex 3.80722 3.24113 -5
    endloop
  endfacet
  facet normal -0.78183 -0.623492 0
    outer loop
      vertex 4.00706 2.99054 -5
      vertex 4.00706 2.99054 5
      vertex 3.80722 3.24113 5
    endloop
  endfacet
  facet normal -0.820178 -0.572109 0
    outer loop
      vertex 4.19043 2.72766 -5
      vertex 4.00706 2.99054 5
      vertex 4.00706 2.99054 -5
    endloop
  endfacet
  facet normal -0.820178 -0.572109 0
    outer loop
      vertex 4.19043 2.72766 -5
      vertex 4.19043 2.72766 5
      vertex 4.00706 2.99054 5
    endloop
  endfacet
  facet normal -0.855141 -0.518395 0
    outer loop
      vertex 4.35658 2.45358 -5
      vertex 4.19043 2.72766 5
      vertex 4.19043 2.72766 -5
    endloop
  endfacet
  facet normal -0.855141 -0.518395 0
    outer loop
      vertex 4.35658 2.45358 -5
      vertex 4.35658 2.45358 5
      vertex 4.19043 2.72766 5
    endloop
  endfacet
  facet normal -0.886582 -0.462572 0
    outer loop
      vertex 4.50484 2.16942 -5
      vertex 4.35658 2.45358 5
      vertex 4.35658 2.45358 -5
    endloop
  endfacet
  facet normal -0.886582 -0.462572 0
    outer loop
      vertex 4.50484 2.16942 -5
      vertex 4.50484 2.16942 5
      vertex 4.35658 2.45358 5
    endloop
  endfacet
  facet normal -0.914415 -0.404777 0
    outer loop
      vertex 4.63458 1.87633 -5
      vertex 4.50484 2.16942 5
      vertex 4.50484 2.16942 -5
    endloop
  endfacet
  facet normal -0.914415 -0.404777 0
    outer loop
      vertex 4.63458 1.87633 -5
      vertex 4.63458 1.87633 5
      vertex 4.50484 2.16942 5
    endloop
  endfacet
  facet normal -0.938476 -0.345345 0
    outer loop
      vertex 4.74527 1.57553 -5
      vertex 4.63458 1.87633 5
      vertex 4.63458 1.87633 -5
    endloop
  endfacet
  facet normal -0.938476 -0.345345 0
    outer loop
      vertex 4.74527 1.57553 -5
      vertex 4.74527 1.57553 5
      vertex 4.63458 1.87633 5
    endloop
  endfacet
  facet normal -0.958665 -0.284539 0
    outer loop
      vertex 4.83647 1.26826 -5
      vertex 4.74527 1.57553 5
      vertex 4.74527 1.57553 -5
    endloop
  endfacet
  facet normal -0.958665 -0.284539 0
    outer loop
      vertex 4.83647 1.26826 -5
      vertex 4.83647 1.26826 5
      vertex 4.74527 1.57553 5
    endloop
  endfacet
  facet normal -0.974929 -0.222516 0
    outer loop
      vertex 4.90779 0.95578 -5
      vertex 4.83647 1.26826 5
      vertex 4.83647 1.26826 -5
    endloop
  endfacet
  facet normal -0.974929 -0.222516 0
    outer loop
      vertex 4.90779 0.95578 -5
      vertex 4.90779 0.95578 5
      vertex 4.83647 1.26826 5
    endloop
  endfacet
  facet normal -0.987184 -0.159588 0
    outer loop
      vertex 4.95894 0.639374 -5
      vertex 4.90779 0.95578 5
      vertex 4.90779 0.95578 -5
    endloop
  endfacet
  facet normal -0.987184 -0.159588 0
    outer loop
      vertex 4.95894 0.639374 -5
      vertex 4.95894 0.639374 5
      vertex 4.90779 0.95578 5
    endloop
  endfacet
  facet normal -0.995378 -0.0960337 0
    outer loop
      vertex 4.98972 0.320343 -5
      vertex 4.95894 0.639374 5
      vertex 4.95894 0.639374 -5
    endloop
  endfacet
  facet normal -0.995378 -0.0960337 0
    outer loop
      vertex 4.98972 0.320343 -5
      vertex 4.98972 0.320343 5
      vertex 4.95894 0.639374 5
    endloop
  endfacet
  facet normal -0.999485 -0.0320741 0
    outer loop
      vertex 5 0 -5
      vertex 4.98972 0.320343 5
      vertex 4.98972 0.320343 -5
    endloop
  endfacet
  facet normal -0.999485 -0.0320741 0
    outer loop
      vertex 5 0 -5
      vertex 5 0 5
      vertex 4.98972 0.320343 5
    endloop
  endfacet
  facet normal 0 1 0
    outer loop
      vertex -3.33334 0 -5
      vertex 5 0 5
      vertex 5 0 -5
    endloop
  endfacet
  facet normal 0 1 0
    outer loop
      vertex -3.33334 0 -5
      vertex -3.33334 0 5
      vertex 5 0 5
    endloop
  endfacet
  facet normal 0.999486 -0.0320585 0
    outer loop
      vertex -3.32649 0.213562 -5
      vertex -3.33334 0 5
      vertex -3.33334 0 -5
    endloop
  endfacet
  facet normal 0.999486 -0.0320585 0
    outer loop
      vertex -3.32649 0.213562 -5
      vertex -3.32649 0.213562 5
      vertex -3.33334 0 5
    endloop
  endfacet
  facet normal 0.995378 -0.0960316 0
    outer loop
      vertex -3.30597 0.426254 -5
      vertex -3.32649 0.213562 5
      vertex -3.32649 0.213562 -5
    endloop
  endfacet
  facet normal 0.995378 -0.0960316 0
    outer loop
      vertex -3.30597 0.426254 -5
      vertex -3.30597 0.426254 5
      vertex -3.32649 0.213562 5
    endloop
  endfacet
  facet normal 0.987184 -0.159587 0
    outer loop
      vertex -3.27187 0.637192 -5
      vertex -3.30597 0.426254 5
      vertex -3.30597 0.426254 -5
    endloop
  endfacet
  facet normal 0.987184 -0.159587 0
    outer loop
      vertex -3.27187 0.637192 -5
      vertex -3.27187 0.637192 5
      vertex -3.30597 0.426254 5
    endloop
  endfacet
  facet normal 0.974924 -0.222538 0
    outer loop
      vertex -3.22432 0.845505 -5
      vertex -3.27187 0.637192 5
      vertex -3.27187 0.637192 -5
    endloop
  endfacet
  facet normal 0.974924 -0.222538 0
    outer loop
      vertex -3.22432 0.845505 -5
      vertex -3.22432 0.845505 5
      vertex -3.27187 0.637192 5
    endloop
  endfacet
  facet normal 0.958677 -0.284498 0
    outer loop
      vertex -3.16353 1.05035 -5
      vertex -3.22432 0.845505 5
      vertex -3.22432 0.845505 -5
    endloop
  endfacet
  facet normal 0.958677 -0.284498 0
    outer loop
      vertex -3.16353 1.05035 -5
      vertex -3.16353 1.05035 5
      vertex -3.22432 0.845505 5
    endloop
  endfacet
  facet normal 0.938469 -0.345363 0
    outer loop
      vertex -3.13919 1.11649 -5
      vertex -3.16353 1.05035 5
      vertex -3.16353 1.05035 -5
    endloop
  endfacet
  facet normal 0.938469 -0.345363 0
    outer loop
      vertex -3.13919 1.11649 -5
      vertex -3.13919 1.11649 5
      vertex -3.16353 1.05035 5
    endloop
  endfacet
  facet normal 0.514494 -0.857494 0
    outer loop
      vertex -0.370377 2.77777 -5
      vertex -3.13919 1.11649 5
      vertex -3.13919 1.11649 -5
    endloop
  endfacet
  facet normal 0.514494 -0.857494 0
    outer loop
      vertex -0.370377 2.77777 -5
      vertex -0.370377 2.77777 5
      vertex -3.13919 1.11649 5
    endloop
  endfacet
  facet normal 0.600015 0.799988 0
    outer loop
      vertex -0.932861 3.19965 -5
      vertex -0.370377 2.77777 5
      vertex -0.370377 2.77777 -5
    endloop
  endfacet
  facet normal 0.600015 0.799988 -0
    outer loop
      vertex -0.932861 3.19965 -5
      vertex -0.932861 3.19965 5
      vertex -0.370377 2.77777 5
    endloop
  endfacet
  facet normal 0.253624 -0.967303 0
    outer loop
      vertex -0.741745 3.24976 -5
      vertex -0.932861 3.19965 5
      vertex -0.932861 3.19965 -5
    endloop
  endfacet
  facet normal 0.253624 -0.967303 0
    outer loop
      vertex -0.741745 3.24976 -5
      vertex -0.741745 3.24976 5
      vertex -0.932861 3.19965 5
    endloop
  endfacet
  facet normal 0.191135 -0.981564 0
    outer loop
      vertex -0.532013 3.2906 -5
      vertex -0.741745 3.24976 5
      vertex -0.741745 3.24976 -5
    endloop
  endfacet
  facet normal 0.191135 -0.981564 0
    outer loop
      vertex -0.532013 3.2906 -5
      vertex -0.532013 3.2906 5
      vertex -0.741745 3.24976 5
    endloop
  endfacet
  facet normal 0.127853 -0.991793 0
    outer loop
      vertex -0.320084 3.31792 -5
      vertex -0.532013 3.2906 5
      vertex -0.532013 3.2906 -5
    endloop
  endfacet
  facet normal 0.127853 -0.991793 0
    outer loop
      vertex -0.320084 3.31792 -5
      vertex -0.320084 3.31792 5
      vertex -0.532013 3.2906 5
    endloop
  endfacet
  facet normal 0.0641141 -0.997943 0
    outer loop
      vertex -0.106842 3.33162 -5
      vertex -0.320084 3.31792 5
      vertex -0.320084 3.31792 -5
    endloop
  endfacet
  facet normal 0.0641141 -0.997943 0
    outer loop
      vertex -0.106842 3.33162 -5
      vertex -0.106842 3.33162 5
      vertex -0.320084 3.31792 5
    endloop
  endfacet
  facet normal 0 -1 0
    outer loop
      vertex 0.106827 3.33162 -5
      vertex -0.106842 3.33162 5
      vertex -0.106842 3.33162 -5
    endloop
  endfacet
  facet normal 0 -1 0
    outer loop
      vertex 0.106827 3.33162 -5
      vertex 0.106827 3.33162 5
      vertex -0.106842 3.33162 5
    endloop
  endfacet
  facet normal -0.0641144 -0.997943 0
    outer loop
      vertex 0.320068 3.31792 -5
      vertex 0.106827 3.33162 5
      vertex 0.106827 3.33162 -5
    endloop
  endfacet
  facet normal -0.0641144 -0.997943 0
    outer loop
      vertex 0.320068 3.31792 -5
      vertex 0.320068 3.31792 5
      vertex 0.106827 3.33162 5
    endloop
  endfacet
  facet normal -0.127894 -0.991788 0
    outer loop
      vertex 0.492767 3.29565 -5
      vertex 0.320068 3.31792 5
      vertex 0.320068 3.31792 -5
    endloop
  endfacet
  facet normal -0.127894 -0.991788 0
    outer loop
      vertex 0.492767 3.29565 -5
      vertex 0.492767 3.29565 5
      vertex 0.320068 3.31792 5
    endloop
  endfacet
  facet normal -0.514491 0.857496 0
    outer loop
      vertex -0.370377 2.77777 -5
      vertex 0.492767 3.29565 5
      vertex 0.492767 3.29565 -5
    endloop
  endfacet
  facet normal -0.514491 0.857496 0
    outer loop
      vertex -0.370377 2.77777 -5
      vertex -0.370377 2.77777 5
      vertex 0.492767 3.29565 5
    endloop
  endfacet
  facet normal -0.599999 -0.800001 0
    outer loop
      vertex 3.33333 0 -5
      vertex -0.370377 2.77777 5
      vertex -0.370377 2.77777 -5
    endloop
  endfacet
  facet normal -0.599999 -0.800001 0
    outer loop
      vertex 3.33333 0 -5
      vertex 3.33333 0 5
      vertex -0.370377 2.77777 5
    endloop
  endfacet
  facet normal 0.999486 0.0320585 0
    outer loop
      vertex 3.32648 0.213562 -5
      vertex 3.33333 0 5
      vertex 3.33333 0 -5
    endloop
  endfacet
  facet normal 0.999486 0.0320585 -0
    outer loop
      vertex 3.32648 0.213562 -5
      vertex 3.32648 0.213562 5
      vertex 3.33333 0 5
    endloop
  endfacet
  facet normal 0.995374 0.096078 0
    outer loop
      vertex 3.30595 0.426254 -5
      vertex 3.32648 0.213562 5
      vertex 3.32648 0.213562 -5
    endloop
  endfacet
  facet normal 0.995374 0.096078 -0
    outer loop
      vertex 3.30595 0.426254 -5
      vertex 3.30595 0.426254 5
      vertex 3.32648 0.213562 5
    endloop
  endfacet
  facet normal 0.987184 0.159587 0
    outer loop
      vertex 3.27185 0.637192 -5
      vertex 3.30595 0.426254 5
      vertex 3.30595 0.426254 -5
    endloop
  endfacet
  facet normal 0.987184 0.159587 -0
    outer loop
      vertex 3.27185 0.637192 -5
      vertex 3.27185 0.637192 5
      vertex 3.30595 0.426254 5
    endloop
  endfacet
  facet normal 0.974924 0.222538 0
    outer loop
      vertex 3.2243 0.845505 -5
      vertex 3.27185 0.637192 5
      vertex 3.27185 0.637192 -5
    endloop
  endfacet
  facet normal 0.974924 0.222538 -0
    outer loop
      vertex 3.2243 0.845505 -5
      vertex 3.2243 0.845505 5
      vertex 3.27185 0.637192 5
    endloop
  endfacet
  facet normal 0.958677 0.284498 0
    outer loop
      vertex 3.16351 1.05035 -5
      vertex 3.2243 0.845505 5
      vertex 3.2243 0.845505 -5
    endloop
  endfacet
  facet normal 0.958677 0.284498 -0
    outer loop
      vertex 3.16351 1.05035 -5
      vertex 3.16351 1.05035 5
      vertex 3.2243 0.845505 5
    endloop
  endfacet
  facet normal 0.938484 0.345321 0
    outer loop
      vertex 3.08972 1.25089 -5
      vertex 3.16351 1.05035 5
      vertex 3.16351 1.05035 -5
    endloop
  endfacet
  facet normal 0.938484 0.345321 -0
    outer loop
      vertex 3.08972 1.25089 -5
      vertex 3.08972 1.25089 5
      vertex 3.16351 1.05035 5
    endloop
  endfacet
  facet normal 0.914393 0.404827 0
    outer loop
      vertex 3.00322 1.44627 -5
      vertex 3.08972 1.25089 5
      vertex 3.08972 1.25089 -5
    endloop
  endfacet
  facet normal 0.914393 0.404827 -0
    outer loop
      vertex 3.00322 1.44627 -5
      vertex 3.00322 1.44627 5
      vertex 3.08972 1.25089 5
    endloop
  endfacet
  facet normal 0.886601 0.462536 0
    outer loop
      vertex 2.90439 1.63571 -5
      vertex 3.00322 1.44627 5
      vertex 3.00322 1.44627 -5
    endloop
  endfacet
  facet normal 0.886601 0.462536 -0
    outer loop
      vertex 2.90439 1.63571 -5
      vertex 2.90439 1.63571 5
      vertex 3.00322 1.44627 5
    endloop
  endfacet
  facet normal 0.855147 0.518386 0
    outer loop
      vertex 2.79362 1.81844 -5
      vertex 2.90439 1.63571 5
      vertex 2.90439 1.63571 -5
    endloop
  endfacet
  facet normal 0.855147 0.518386 -0
    outer loop
      vertex 2.79362 1.81844 -5
      vertex 2.79362 1.81844 5
      vertex 2.90439 1.63571 5
    endloop
  endfacet
  facet normal 0.820181 0.572105 0
    outer loop
      vertex 2.67137 1.9937 -5
      vertex 2.79362 1.81844 5
      vertex 2.79362 1.81844 -5
    endloop
  endfacet
  facet normal 0.820181 0.572105 -0
    outer loop
      vertex 2.67137 1.9937 -5
      vertex 2.67137 1.9937 5
      vertex 2.79362 1.81844 5
    endloop
  endfacet
  facet normal 0.781827 0.623496 0
    outer loop
      vertex 2.53815 2.16075 -5
      vertex 2.67137 1.9937 5
      vertex 2.67137 1.9937 -5
    endloop
  endfacet
  facet normal 0.781827 0.623496 -0
    outer loop
      vertex 2.53815 2.16075 -5
      vertex 2.53815 2.16075 5
      vertex 2.67137 1.9937 5
    endloop
  endfacet
  facet normal 0.740287 0.672291 0
    outer loop
      vertex 2.39449 2.31894 -5
      vertex 2.53815 2.16075 5
      vertex 2.53815 2.16075 -5
    endloop
  endfacet
  facet normal 0.740287 0.672291 -0
    outer loop
      vertex 2.39449 2.31894 -5
      vertex 2.39449 2.31894 5
      vertex 2.53815 2.16075 5
    endloop
  endfacet
  facet normal 0.69569 0.718342 0
    outer loop
      vertex 2.241 2.46759 -5
      vertex 2.39449 2.31894 5
      vertex 2.39449 2.31894 -5
    endloop
  endfacet
  facet normal 0.69569 0.718342 -0
    outer loop
      vertex 2.241 2.46759 -5
      vertex 2.241 2.46759 5
      vertex 2.39449 2.31894 5
    endloop
  endfacet
  facet normal 0.648182 0.761485 0
    outer loop
      vertex 2.07829 2.60609 -5
      vertex 2.241 2.46759 5
      vertex 2.241 2.46759 -5
    endloop
  endfacet
  facet normal 0.648182 0.761485 -0
    outer loop
      vertex 2.07829 2.60609 -5
      vertex 2.07829 2.60609 5
      vertex 2.241 2.46759 5
    endloop
  endfacet
  facet normal 0.598119 0.801407 0
    outer loop
      vertex 1.90704 2.7339 -5
      vertex 2.07829 2.60609 5
      vertex 2.07829 2.60609 -5
    endloop
  endfacet
  facet normal 0.598119 0.801407 -0
    outer loop
      vertex 1.90704 2.7339 -5
      vertex 1.90704 2.7339 5
      vertex 2.07829 2.60609 5
    endloop
  endfacet
  facet normal 0.545529 0.838092 0
    outer loop
      vertex 1.72797 2.85046 -5
      vertex 1.90704 2.7339 5
      vertex 1.90704 2.7339 -5
    endloop
  endfacet
  facet normal 0.545529 0.838092 -0
    outer loop
      vertex 1.72797 2.85046 -5
      vertex 1.72797 2.85046 5
      vertex 1.90704 2.7339 5
    endloop
  endfacet
  facet normal 0.490737 0.871308 0
    outer loop
      vertex 1.54179 2.95532 -5
      vertex 1.72797 2.85046 5
      vertex 1.72797 2.85046 -5
    endloop
  endfacet
  facet normal 0.490737 0.871308 -0
    outer loop
      vertex 1.54179 2.95532 -5
      vertex 1.54179 2.95532 5
      vertex 1.72797 2.85046 5
    endloop
  endfacet
  facet normal 0.433873 0.900974 0
    outer loop
      vertex 1.34927 3.04803 -5
      vertex 1.54179 2.95532 5
      vertex 1.54179 2.95532 -5
    endloop
  endfacet
  facet normal 0.433873 0.900974 -0
    outer loop
      vertex 1.34927 3.04803 -5
      vertex 1.34927 3.04803 5
      vertex 1.54179 2.95532 5
    endloop
  endfacet
  facet normal 0.375285 0.92691 0
    outer loop
      vertex 1.15121 3.12822 -5
      vertex 1.34927 3.04803 5
      vertex 1.34927 3.04803 -5
    endloop
  endfacet
  facet normal 0.375285 0.92691 -0
    outer loop
      vertex 1.15121 3.12822 -5
      vertex 1.15121 3.12822 5
      vertex 1.34927 3.04803 5
    endloop
  endfacet
  facet normal 0.315133 0.949048 0
    outer loop
      vertex 0.94841 3.19556 -5
      vertex 1.15121 3.12822 5
      vertex 1.15121 3.12822 -5
    endloop
  endfacet
  facet normal 0.315133 0.949048 -0
    outer loop
      vertex 0.94841 3.19556 -5
      vertex 0.94841 3.19556 5
      vertex 1.15121 3.12822 5
    endloop
  endfacet
  facet normal 0.253664 0.967292 0
    outer loop
      vertex 0.74173 3.24976 -5
      vertex 0.94841 3.19556 5
      vertex 0.94841 3.19556 -5
    endloop
  endfacet
  facet normal 0.253664 0.967292 -0
    outer loop
      vertex 0.74173 3.24976 -5
      vertex 0.74173 3.24976 5
      vertex 0.94841 3.19556 5
    endloop
  endfacet
  facet normal 0.191135 0.981564 0
    outer loop
      vertex 0.531998 3.2906 -5
      vertex 0.74173 3.24976 5
      vertex 0.74173 3.24976 -5
    endloop
  endfacet
  facet normal 0.191135 0.981564 -0
    outer loop
      vertex 0.531998 3.2906 -5
      vertex 0.531998 3.2906 5
      vertex 0.74173 3.24976 5
    endloop
  endfacet
  facet normal 0.127671 0.991817 0
    outer loop
      vertex 0.492767 3.29565 -5
      vertex 0.531998 3.2906 5
      vertex 0.531998 3.2906 -5
    endloop
  endfacet
  facet normal 0.127671 0.991817 -0
    outer loop
      vertex 0.492767 3.29565 -5
      vertex 0.492767 3.29565 5
      vertex 0.531998 3.2906 5
    endloop
  endfacet
  facet normal 0.5145 -0.85749 0
    outer loop
      vertex 2.35168 4.41101 -5
      vertex 0.492767 3.29565 5
      vertex 0.492767 3.29565 -5
    endloop
  endfacet
  facet normal 0.5145 -0.85749 0
    outer loop
      vertex 2.35168 4.41101 -5
      vertex 2.35168 4.41101 5
      vertex 0.492767 3.29565 5
    endloop
  endfacet
  facet normal 0.490813 0.871265 0
    outer loop
      vertex 2.31268 4.43298 -5
      vertex 2.35168 4.41101 5
      vertex 2.35168 4.41101 -5
    endloop
  endfacet
  facet normal 0.490813 0.871265 -0
    outer loop
      vertex 2.31268 4.43298 -5
      vertex 2.31268 4.43298 5
      vertex 2.35168 4.41101 5
    endloop
  endfacet
  facet normal 0.433898 0.900962 0
    outer loop
      vertex 2.02391 4.57205 -5
      vertex 2.31268 4.43298 5
      vertex 2.31268 4.43298 -5
    endloop
  endfacet
  facet normal 0.433898 0.900962 -0
    outer loop
      vertex 2.02391 4.57205 -5
      vertex 2.02391 4.57205 5
      vertex 2.31268 4.43298 5
    endloop
  endfacet
  facet normal 0.375298 0.926904 0
    outer loop
      vertex 1.72682 4.69234 -5
      vertex 2.02391 4.57205 5
      vertex 2.02391 4.57205 -5
    endloop
  endfacet
  facet normal 0.375298 0.926904 -0
    outer loop
      vertex 1.72682 4.69234 -5
      vertex 1.72682 4.69234 5
      vertex 2.02391 4.57205 5
    endloop
  endfacet
  facet normal 0.315076 0.949066 0
    outer loop
      vertex 1.42262 4.79333 -5
      vertex 1.72682 4.69234 5
      vertex 1.72682 4.69234 -5
    endloop
  endfacet
  facet normal 0.315076 0.949066 -0
    outer loop
      vertex 1.42262 4.79333 -5
      vertex 1.42262 4.79333 5
      vertex 1.72682 4.69234 5
    endloop
  endfacet
  facet normal 0.253656 0.967294 0
    outer loop
      vertex 1.11259 4.87463 -5
      vertex 1.42262 4.79333 5
      vertex 1.42262 4.79333 -5
    endloop
  endfacet
  facet normal 0.253656 0.967294 -0
    outer loop
      vertex 1.11259 4.87463 -5
      vertex 1.11259 4.87463 5
      vertex 1.42262 4.79333 5
    endloop
  endfacet
  facet normal 0.191163 0.981558 0
    outer loop
      vertex 0.797989 4.9359 -5
      vertex 1.11259 4.87463 5
      vertex 1.11259 4.87463 -5
    endloop
  endfacet
  facet normal 0.191163 0.981558 -0
    outer loop
      vertex 0.797989 4.9359 -5
      vertex 0.797989 4.9359 5
      vertex 1.11259 4.87463 5
    endloop
  endfacet
  facet normal 0.127856 0.991793 0
    outer loop
      vertex 0.480103 4.97688 -5
      vertex 0.797989 4.9359 5
      vertex 0.797989 4.9359 -5
    endloop
  endfacet
  facet normal 0.127856 0.991793 -0
    outer loop
      vertex 0.480103 4.97688 -5
      vertex 0.480103 4.97688 5
      vertex 0.797989 4.9359 5
    endloop
  endfacet
  facet normal 0.0640846 0.997944 0
    outer loop
      vertex 0.160248 4.99742 -5
      vertex 0.480103 4.97688 5
      vertex 0.480103 4.97688 -5
    endloop
  endfacet
  facet normal 0.0640846 0.997944 -0
    outer loop
      vertex 0.160248 4.99742 -5
      vertex 0.160248 4.99742 5
      vertex 0.480103 4.97688 5
    endloop
  endfacet
  facet normal 0 1 0
    outer loop
      vertex -0.160263 4.99742 -5
      vertex 0.160248 4.99742 5
      vertex 0.160248 4.99742 -5
    endloop
  endfacet
  facet normal 0 1 0
    outer loop
      vertex -0.160263 4.99742 -5
      vertex -0.160263 4.99742 5
      vertex 0.160248 4.99742 5
    endloop
  endfacet
  facet normal -0.0640846 0.997944 0
    outer loop
      vertex -0.480118 4.97688 -5
      vertex -0.160263 4.99742 5
      vertex -0.160263 4.99742 -5
    endloop
  endfacet
  facet normal -0.0640846 0.997944 0
    outer loop
      vertex -0.480118 4.97688 -5
      vertex -0.480118 4.97688 5
      vertex -0.160263 4.99742 5
    endloop
  endfacet
  facet normal -0.127856 0.991793 0
    outer loop
      vertex -0.798004 4.9359 -5
      vertex -0.480118 4.97688 5
      vertex -0.480118 4.97688 -5
    endloop
  endfacet
  facet normal -0.127856 0.991793 0
    outer loop
      vertex -0.798004 4.9359 -5
      vertex -0.798004 4.9359 5
      vertex -0.480118 4.97688 5
    endloop
  endfacet
  facet normal -0.19116 0.981559 0
    outer loop
      vertex -1.11261 4.87463 -5
      vertex -0.798004 4.9359 5
      vertex -0.798004 4.9359 -5
    endloop
  endfacet
  facet normal -0.19116 0.981559 0
    outer loop
      vertex -1.11261 4.87463 -5
      vertex -1.11261 4.87463 5
      vertex -0.798004 4.9359 5
    endloop
  endfacet
  facet normal -0.253656 0.967294 0
    outer loop
      vertex -1.42264 4.79333 -5
      vertex -1.11261 4.87463 5
      vertex -1.11261 4.87463 -5
    endloop
  endfacet
  facet normal -0.253656 0.967294 0
    outer loop
      vertex -1.42264 4.79333 -5
      vertex -1.42264 4.79333 5
      vertex -1.11261 4.87463 5
    endloop
  endfacet
  facet normal -0.315076 0.949066 0
    outer loop
      vertex -1.72684 4.69234 -5
      vertex -1.42264 4.79333 5
      vertex -1.42264 4.79333 -5
    endloop
  endfacet
  facet normal -0.315076 0.949066 0
    outer loop
      vertex -1.72684 4.69234 -5
      vertex -1.72684 4.69234 5
      vertex -1.42264 4.79333 5
    endloop
  endfacet
  facet normal -0.375298 0.926904 0
    outer loop
      vertex -2.02393 4.57205 -5
      vertex -1.72684 4.69234 5
      vertex -1.72684 4.69234 -5
    endloop
  endfacet
  facet normal -0.375298 0.926904 0
    outer loop
      vertex -2.02393 4.57205 -5
      vertex -2.02393 4.57205 5
      vertex -1.72684 4.69234 5
    endloop
  endfacet
  facet normal -0.433898 0.900962 0
    outer loop
      vertex -2.3127 4.43298 -5
      vertex -2.02393 4.57205 5
      vertex -2.02393 4.57205 -5
    endloop
  endfacet
  facet normal -0.433898 0.900962 0
    outer loop
      vertex -2.3127 4.43298 -5
      vertex -2.3127 4.43298 5
      vertex -2.02393 4.57205 5
    endloop
  endfacet
  facet normal -0.490672 0.871344 0
    outer loop
      vertex -2.46384 4.34787 -5
      vertex -2.3127 4.43298 5
      vertex -2.3127 4.43298 -5
    endloop
  endfacet
  facet normal -0.490672 0.871344 0
    outer loop
      vertex -2.46384 4.34787 -5
      vertex -2.46384 4.34787 5
      vertex -2.3127 4.43298 5
    endloop
  endfacet
  facet normal -0.599995 -0.800004 0
    outer loop
      vertex -0.932861 3.19965 -5
      vertex -2.46384 4.34787 5
      vertex -2.46384 4.34787 -5
    endloop
  endfacet
  facet normal -0.599995 -0.800004 0
    outer loop
      vertex -0.932861 3.19965 -5
      vertex -0.932861 3.19965 5
      vertex -2.46384 4.34787 5
    endloop
  endfacet
  facet normal -0.254157 0.967163 0
    outer loop
      vertex -0.948425 3.19556 -5
      vertex -0.932861 3.19965 5
      vertex -0.932861 3.19965 -5
    endloop
  endfacet
  facet normal -0.254157 0.967163 0
    outer loop
      vertex -0.948425 3.19556 -5
      vertex -0.948425 3.19556 5
      vertex -0.932861 3.19965 5
    endloop
  endfacet
  facet normal -0.315126 0.94905 0
    outer loop
      vertex -1.15123 3.12822 -5
      vertex -0.948425 3.19556 5
      vertex -0.948425 3.19556 -5
    endloop
  endfacet
  facet normal -0.315126 0.94905 0
    outer loop
      vertex -1.15123 3.12822 -5
      vertex -1.15123 3.12822 5
      vertex -0.948425 3.19556 5
    endloop
  endfacet
  facet normal -0.375285 0.92691 0
    outer loop
      vertex -1.34929 3.04803 -5
      vertex -1.15123 3.12822 5
      vertex -1.15123 3.12822 -5
    endloop
  endfacet
  facet normal -0.375285 0.92691 0
    outer loop
      vertex -1.34929 3.04803 -5
      vertex -1.34929 3.04803 5
      vertex -1.15123 3.12822 5
    endloop
  endfacet
  facet normal -0.433873 0.900974 0
    outer loop
      vertex -1.54181 2.95532 -5
      vertex -1.34929 3.04803 5
      vertex -1.34929 3.04803 -5
    endloop
  endfacet
  facet normal -0.433873 0.900974 0
    outer loop
      vertex -1.54181 2.95532 -5
      vertex -1.54181 2.95532 5
      vertex -1.34929 3.04803 5
    endloop
  endfacet
  facet normal -0.490757 0.871297 0
    outer loop
      vertex -1.72798 2.85046 -5
      vertex -1.54181 2.95532 5
      vertex -1.54181 2.95532 -5
    endloop
  endfacet
  facet normal -0.490757 0.871297 0
    outer loop
      vertex -1.72798 2.85046 -5
      vertex -1.72798 2.85046 5
      vertex -1.54181 2.95532 5
    endloop
  endfacet
  facet normal -0.545508 0.838106 0
    outer loop
      vertex -1.90706 2.7339 -5
      vertex -1.72798 2.85046 5
      vertex -1.72798 2.85046 -5
    endloop
  endfacet
  facet normal -0.545508 0.838106 0
    outer loop
      vertex -1.90706 2.7339 -5
      vertex -1.90706 2.7339 5
      vertex -1.72798 2.85046 5
    endloop
  endfacet
  facet normal -0.598119 0.801407 0
    outer loop
      vertex -2.07831 2.60609 -5
      vertex -1.90706 2.7339 5
      vertex -1.90706 2.7339 -5
    endloop
  endfacet
  facet normal -0.598119 0.801407 0
    outer loop
      vertex -2.07831 2.60609 -5
      vertex -2.07831 2.60609 5
      vertex -1.90706 2.7339 5
    endloop
  endfacet
  facet normal -0.648205 0.761466 0
    outer loop
      vertex -2.24101 2.46759 -5
      vertex -2.07831 2.60609 5
      vertex -2.07831 2.60609 -5
    endloop
  endfacet
  facet normal -0.648205 0.761466 0
    outer loop
      vertex -2.24101 2.46759 -5
      vertex -2.24101 2.46759 5
      vertex -2.07831 2.60609 5
    endloop
  endfacet
  facet normal -0.69569 0.718342 0
    outer loop
      vertex -2.3945 2.31894 -5
      vertex -2.24101 2.46759 5
      vertex -2.24101 2.46759 -5
    endloop
  endfacet
  facet normal -0.69569 0.718342 0
    outer loop
      vertex -2.3945 2.31894 -5
      vertex -2.3945 2.31894 5
      vertex -2.24101 2.46759 5
    endloop
  endfacet
  facet normal -0.740287 0.672291 0
    outer loop
      vertex -2.53816 2.16075 -5
      vertex -2.3945 2.31894 5
      vertex -2.3945 2.31894 -5
    endloop
  endfacet
  facet normal -0.740287 0.672291 0
    outer loop
      vertex -2.53816 2.16075 -5
      vertex -2.53816 2.16075 5
      vertex -2.3945 2.31894 5
    endloop
  endfacet
  facet normal -0.781804 0.623524 0
    outer loop
      vertex -2.67139 1.9937 -5
      vertex -2.53816 2.16075 5
      vertex -2.53816 2.16075 -5
    endloop
  endfacet
  facet normal -0.781804 0.623524 0
    outer loop
      vertex -2.67139 1.9937 -5
      vertex -2.67139 1.9937 5
      vertex -2.53816 2.16075 5
    endloop
  endfacet
  facet normal -0.820181 0.572105 0
    outer loop
      vertex -2.79364 1.81844 -5
      vertex -2.67139 1.9937 5
      vertex -2.67139 1.9937 -5
    endloop
  endfacet
  facet normal -0.820181 0.572105 0
    outer loop
      vertex -2.79364 1.81844 -5
      vertex -2.79364 1.81844 5
      vertex -2.67139 1.9937 5
    endloop
  endfacet
  facet normal -0.855168 0.518352 0
    outer loop
      vertex -2.9044 1.63571 -5
      vertex -2.79364 1.81844 5
      vertex -2.79364 1.81844 -5
    endloop
  endfacet
  facet normal -0.855168 0.518352 0
    outer loop
      vertex -2.9044 1.63571 -5
      vertex -2.9044 1.63571 5
      vertex -2.79364 1.81844 5
    endloop
  endfacet
  facet normal -0.886601 0.462536 0
    outer loop
      vertex -3.00323 1.44627 -5
      vertex -2.9044 1.63571 5
      vertex -2.9044 1.63571 -5
    endloop
  endfacet
  facet normal -0.886601 0.462536 0
    outer loop
      vertex -3.00323 1.44627 -5
      vertex -3.00323 1.44627 5
      vertex -2.9044 1.63571 5
    endloop
  endfacet
  facet normal -0.914376 0.404866 0
    outer loop
      vertex -3.08974 1.25089 -5
      vertex -3.00323 1.44627 5
      vertex -3.00323 1.44627 -5
    endloop
  endfacet
  facet normal -0.914376 0.404866 0
    outer loop
      vertex -3.08974 1.25089 -5
      vertex -3.08974 1.25089 5
      vertex -3.00323 1.44627 5
    endloop
  endfacet
  facet normal -0.938492 0.345301 0
    outer loop
      vertex -3.13919 1.11649 -5
      vertex -3.08974 1.25089 5
      vertex -3.08974 1.25089 -5
    endloop
  endfacet
  facet normal -0.938492 0.345301 0
    outer loop
      vertex -3.13919 1.11649 -5
      vertex -3.13919 1.11649 5
      vertex -3.08974 1.25089 5
    endloop
  endfacet
  facet normal -0.514497 0.857492 0
    outer loop
      vertex -5 0 -5
      vertex -3.13919 1.11649 5
      vertex -3.13919 1.11649 -5
    endloop
  endfacet
  facet normal -0.514497 0.857492 0
    outer loop
      vertex -5 0 -5
      vertex -5 0 5
      vertex -3.13919 1.11649 5
    endloop
  endfacet
  facet normal 0.999486 -0.0320429 0
    outer loop
      vertex -4.98973 0.320343 -5
      vertex -5 0 5
      vertex -5 0 -5
    endloop
  endfacet
  facet normal 0.999486 -0.0320429 0
    outer loop
      vertex -4.98973 0.320343 -5
      vertex -4.98973 0.320343 5
      vertex -5 0 5
    endloop
  endfacet
  facet normal 0.995378 -0.0960337 0
    outer loop
      vertex -4.95895 0.639374 -5
      vertex -4.98973 0.320343 5
      vertex -4.98973 0.320343 -5
    endloop
  endfacet
  facet normal 0.995378 -0.0960337 0
    outer loop
      vertex -4.95895 0.639374 -5
      vertex -4.95895 0.639374 5
      vertex -4.98973 0.320343 5
    endloop
  endfacet
  facet normal 0.987189 -0.159557 0
    outer loop
      vertex -4.90781 0.95578 -5
      vertex -4.95895 0.639374 5
      vertex -4.95895 0.639374 -5
    endloop
  endfacet
  facet normal 0.987189 -0.159557 0
    outer loop
      vertex -4.90781 0.95578 -5
      vertex -4.90781 0.95578 5
      vertex -4.95895 0.639374 5
    endloop
  endfacet
  facet normal 0.974929 -0.222516 0
    outer loop
      vertex -4.83649 1.26826 -5
      vertex -4.90781 0.95578 5
      vertex -4.90781 0.95578 -5
    endloop
  endfacet
  facet normal 0.974929 -0.222516 0
    outer loop
      vertex -4.83649 1.26826 -5
      vertex -4.83649 1.26826 5
      vertex -4.90781 0.95578 5
    endloop
  endfacet
  facet normal 0.958665 -0.284539 0
    outer loop
      vertex -4.74529 1.57553 -5
      vertex -4.83649 1.26826 5
      vertex -4.83649 1.26826 -5
    endloop
  endfacet
  facet normal 0.958665 -0.284539 0
    outer loop
      vertex -4.74529 1.57553 -5
      vertex -4.74529 1.57553 5
      vertex -4.83649 1.26826 5
    endloop
  endfacet
  facet normal 0.938476 -0.345345 0
    outer loop
      vertex -4.6346 1.87633 -5
      vertex -4.74529 1.57553 5
      vertex -4.74529 1.57553 -5
    endloop
  endfacet
  facet normal 0.938476 -0.345345 0
    outer loop
      vertex -4.6346 1.87633 -5
      vertex -4.6346 1.87633 5
      vertex -4.74529 1.57553 5
    endloop
  endfacet
  facet normal 0.914404 -0.404804 0
    outer loop
      vertex -4.50485 2.16942 -5
      vertex -4.6346 1.87633 5
      vertex -4.6346 1.87633 -5
    endloop
  endfacet
  facet normal 0.914404 -0.404804 0
    outer loop
      vertex -4.50485 2.16942 -5
      vertex -4.50485 2.16942 5
      vertex -4.6346 1.87633 5
    endloop
  endfacet
  facet normal 0.886594 -0.462548 0
    outer loop
      vertex -4.3566 2.45358 -5
      vertex -4.50485 2.16942 5
      vertex -4.50485 2.16942 -5
    endloop
  endfacet
  facet normal 0.886594 -0.462548 0
    outer loop
      vertex -4.3566 2.45358 -5
      vertex -4.3566 2.45358 5
      vertex -4.50485 2.16942 5
    endloop
  endfacet
  facet normal 0.855127 -0.518418 0
    outer loop
      vertex -4.19044 2.72766 -5
      vertex -4.3566 2.45358 5
      vertex -4.3566 2.45358 -5
    endloop
  endfacet
  facet normal 0.855127 -0.518418 0
    outer loop
      vertex -4.19044 2.72766 -5
      vertex -4.19044 2.72766 5
      vertex -4.3566 2.45358 5
    endloop
  endfacet
  facet normal 0.820192 -0.572088 0
    outer loop
      vertex -4.00708 2.99054 -5
      vertex -4.19044 2.72766 5
      vertex -4.19044 2.72766 -5
    endloop
  endfacet
  facet normal 0.820192 -0.572088 0
    outer loop
      vertex -4.00708 2.99054 -5
      vertex -4.00708 2.99054 5
      vertex -4.19044 2.72766 5
    endloop
  endfacet
  facet normal 0.78183 -0.623492 0
    outer loop
      vertex -3.80724 3.24113 -5
      vertex -4.00708 2.99054 5
      vertex -4.00708 2.99054 -5
    endloop
  endfacet
  facet normal 0.78183 -0.623492 0
    outer loop
      vertex -3.80724 3.24113 -5
      vertex -3.80724 3.24113 5
      vertex -4.00708 2.99054 5
    endloop
  endfacet
  facet normal 0.74028 -0.672298 0
    outer loop
      vertex -3.59175 3.47841 -5
      vertex -3.80724 3.24113 5
      vertex -3.80724 3.24113 -5
    endloop
  endfacet
  facet normal 0.74028 -0.672298 0
    outer loop
      vertex -3.59175 3.47841 -5
      vertex -3.59175 3.47841 5
      vertex -3.80724 3.24113 5
    endloop
  endfacet
  facet normal 0.695691 -0.718342 0
    outer loop
      vertex -3.36151 3.70139 -5
      vertex -3.59175 3.47841 5
      vertex -3.59175 3.47841 -5
    endloop
  endfacet
  facet normal 0.695691 -0.718342 0
    outer loop
      vertex -3.36151 3.70139 -5
      vertex -3.36151 3.70139 5
      vertex -3.59175 3.47841 5
    endloop
  endfacet
  facet normal 0.648223 -0.76145 0
    outer loop
      vertex -3.11746 3.90915 -5
      vertex -3.36151 3.70139 5
      vertex -3.36151 3.70139 -5
    endloop
  endfacet
  facet normal 0.648223 -0.76145 0
    outer loop
      vertex -3.11746 3.90915 -5
      vertex -3.11746 3.90915 5
      vertex -3.36151 3.70139 5
    endloop
  endfacet
  facet normal 0.598131 -0.801398 0
    outer loop
      vertex -2.8606 4.10086 -5
      vertex -3.11746 3.90915 5
      vertex -3.11746 3.90915 -5
    endloop
  endfacet
  facet normal 0.598131 -0.801398 0
    outer loop
      vertex -2.8606 4.10086 -5
      vertex -2.8606 4.10086 5
      vertex -3.11746 3.90915 5
    endloop
  endfacet
  facet normal 0.545501 -0.83811 0
    outer loop
      vertex -2.59196 4.27571 -5
      vertex -2.8606 4.10086 5
      vertex -2.8606 4.10086 -5
    endloop
  endfacet
  facet normal 0.545501 -0.83811 0
    outer loop
      vertex -2.59196 4.27571 -5
      vertex -2.59196 4.27571 5
      vertex -2.8606 4.10086 5
    endloop
  endfacet
  facet normal 0.490739 -0.871307 0
    outer loop
      vertex -2.46384 4.34787 -5
      vertex -2.59196 4.27571 5
      vertex -2.59196 4.27571 -5
    endloop
  endfacet
  facet normal 0.490739 -0.871307 0
    outer loop
      vertex -2.46384 4.34787 -5
      vertex -2.46384 4.34787 5
      vertex -2.59196 4.27571 5
    endloop
  endfacet
  facet normal 0.600003 0.799998 0
    outer loop
      vertex -3.33334 5 -5
      vertex -2.46384 4.34787 5
      vertex -2.46384 4.34787 -5
    endloop
  endfacet
  facet normal 0.600003 0.799998 -0
    outer loop
      vertex -3.33334 5 -5
      vertex -3.33334 5 5
      vertex -2.46384 4.34787 5
    endloop
  endfacet
  facet normal 0 1 0
    outer loop
      vertex -5 5 -5
      vertex -3.33334 5 5
      vertex -3.33334 5 -5
    endloop
  endfacet
  facet normal 0 1 0
    outer loop
      vertex -5 5 -5
      vertex -5 5 5
      vertex -3.33334 5 5
    endloop
  endfacet
  facet normal -1 0 0
    outer loop
      vertex -5 -5 -5
      vertex -5 5 5
      vertex -5 5 -5
    endloop
  endfacet
  facet normal -1 0 0
    outer loop
      vertex -5 -5 -5
      vertex -5 -5 5
      vertex -5 5 5
    endloop
  endfacet
  facet normal 0 -1 0
    outer loop
      vertex 5 -5 -5
      vertex -5 -5 5
      vertex -5 -5 -5
    endloop
  endfacet
  facet normal 0 -1 0
    outer loop
      vertex 5 -5 -5
      vertex 5 -5 5
      vertex -5 -5 5
    endloop
  endfacet
  facet normal 1 0 0
    outer loop
      vertex 5 5 -5
      vertex 5 -5 5
      vertex 5 -5 -5
    endloop
  endfacet
  facet normal 1 0 -0
    outer loop
      vertex 5 5 -5
      vertex 5 5 5
      vertex 5 -5 5
    endloop
  endfacet
endsolid OpenSCAD_Model
