solid OpenSCAD_Model
  facet normal 0 0 -1
    outer loop
      vertex 5 3.33333 -5
      vertex 3.33333 5 -5
      vertex 5 5 -5
    endloop
  endfacet
  facet normal -0 0 -1
    outer loop
      vertex 5 3.33333 -5
      vertex 0.833328 0 -5
      vertex 3.33333 5 -5
    endloop
  endfacet
  facet normal 0 0 -1
    outer loop
      vertex 0 0 -5
      vertex 0.833328 0 -5
      vertex 0.833328 -5 -5
    endloop
  endfacet
  facet normal 0 0 -1
    outer loop
      vertex 3.33333 5 -5
      vertex 0.833328 0 -5
      vertex 0 0 -5
    endloop
  endfacet
  facet normal 0 0 -1
    outer loop
      vertex -5 3.33333 -5
      vertex -5 5 -5
      vertex -3.33334 3.33333 -5
    endloop
  endfacet
  facet normal -0 0 -1
    outer loop
      vertex 0 0 -5
      vertex -0.833344 -5 -5
      vertex -0.833344 0 -5
    endloop
  endfacet
  facet normal 0 -0 -1
    outer loop
      vertex 0 0 -5
      vertex 0.833328 -5 -5
      vertex -0.833344 -5 -5
    endloop
  endfacet
  facet normal 0 0 -1
    outer loop
      vertex 0 0 -5
      vertex -3.33334 3.33333 -5
      vertex -3.33334 5 -5
    endloop
  endfacet
  facet normal 0 0 -1
    outer loop
      vertex -3.33334 3.33333 -5
      vertex -5 5 -5
      vertex -3.33334 5 -5
    endloop
  endfacet
  facet normal 0 0 -1
    outer loop
      vertex 0 0 -5
      vertex -0.833344 0 -5
      vertex -3.33334 3.33333 -5
    endloop
  endfacet
  facet normal 0 0 1
    outer loop
      vertex 5 5 5
      vertex 3.33333 5 5
      vertex 5 3.33333 5
    endloop
  endfacet
  facet normal 0 0 1
    outer loop
      vertex 3.33333 5 5
      vertex 0.833328 0 5
      vertex 5 3.33333 5
    endloop
  endfacet
  facet normal 0 -0 1
    outer loop
      vertex 0.833328 -5 5
      vertex 0.833328 0 5
      vertex 0 0 5
    endloop
  endfacet
  facet normal 0 0 1
    outer loop
      vertex 0 0 5
      vertex 0.833328 0 5
      vertex 3.33333 5 5
    endloop
  endfacet
  facet normal 0 0 1
    outer loop
      vertex -3.33334 3.33333 5
      vertex -5 5 5
      vertex -5 3.33333 5
    endloop
  endfacet
  facet normal -0 0 1
    outer loop
      vertex -0.833344 0 5
      vertex -0.833344 -5 5
      vertex 0 0 5
    endloop
  endfacet
  facet normal 0 0 1
    outer loop
      vertex -0.833344 -5 5
      vertex 0.833328 -5 5
      vertex 0 0 5
    endloop
  endfacet
  facet normal 0 0 1
    outer loop
      vertex -3.33334 5 5
      vertex -3.33334 3.33333 5
      vertex 0 0 5
    endloop
  endfacet
  facet normal 0 0 1
    outer loop
      vertex -3.33334 5 5
      vertex -5 5 5
      vertex -3.33334 3.33333 5
    endloop
  endfacet
  facet normal 0 0 1
    outer loop
      vertex -3.33334 3.33333 5
      vertex -0.833344 0 5
      vertex 0 0 5
    endloop
  endfacet
  facet normal 0.624694 -0.78087 0
    outer loop
      vertex 5 3.33333 -5
      vertex 0.833328 0 5
      vertex 0.833328 0 -5
    endloop
  endfacet
  facet normal 0.624694 -0.78087 0
    outer loop
      vertex 5 3.33333 -5
      vertex 5 3.33333 5
      vertex 0.833328 0 5
    endloop
  endfacet
  facet normal 1 0 0
    outer loop
      vertex 5 5 -5
      vertex 5 3.33333 5
      vertex 5 3.33333 -5
    endloop
  endfacet
  facet normal 1 0 -0
    outer loop
      vertex 5 5 -5
      vertex 5 5 5
      vertex 5 3.33333 5
    endloop
  endfacet
  facet normal 0 1 0
    outer loop
      vertex 3.33333 5 -5
      vertex 5 5 5
      vertex 5 5 -5
    endloop
  endfacet
  facet normal 0 1 0
    outer loop
      vertex 3.33333 5 -5
      vertex 3.33333 5 5
      vertex 5 5 5
    endloop
  endfacet
  facet normal -0.832051 0.5547 0
    outer loop
      vertex 0 0 -5
      vertex 3.33333 5 5
      vertex 3.33333 5 -5
    endloop
  endfacet
  facet normal -0.832051 0.5547 0
    outer loop
      vertex 0 0 -5
      vertex 0 0 5
      vertex 3.33333 5 5
    endloop
  endfacet
  facet normal 0.83205 0.554701 0
    outer loop
      vertex -3.33334 5 -5
      vertex 0 0 5
      vertex 0 0 -5
    endloop
  endfacet
  facet normal 0.83205 0.554701 -0
    outer loop
      vertex -3.33334 5 -5
      vertex -3.33334 5 5
      vertex 0 0 5
    endloop
  endfacet
  facet normal 0 1 0
    outer loop
      vertex -5 5 -5
      vertex -3.33334 5 5
      vertex -3.33334 5 -5
    endloop
  endfacet
  facet normal 0 1 0
    outer loop
      vertex -5 5 -5
      vertex -5 5 5
      vertex -3.33334 5 5
    endloop
  endfacet
  facet normal -1 0 0
    outer loop
      vertex -5 3.33333 -5
      vertex -5 5 5
      vertex -5 5 -5
    endloop
  endfacet
  facet normal -1 0 0
    outer loop
      vertex -5 3.33333 -5
      vertex -5 3.33333 5
      vertex -5 5 5
    endloop
  endfacet
  facet normal 0 -1 0
    outer loop
      vertex -3.33334 3.33333 -5
      vertex -5 3.33333 5
      vertex -5 3.33333 -5
    endloop
  endfacet
  facet normal 0 -1 0
    outer loop
      vertex -3.33334 3.33333 -5
      vertex -3.33334 3.33333 5
      vertex -5 3.33333 5
    endloop
  endfacet
  facet normal -0.8 -0.6 0
    outer loop
      vertex -0.833344 0 -5
      vertex -3.33334 3.33333 5
      vertex -3.33334 3.33333 -5
    endloop
  endfacet
  facet normal -0.8 -0.6 0
    outer loop
      vertex -0.833344 0 -5
      vertex -0.833344 0 5
      vertex -3.33334 3.33333 5
    endloop
  endfacet
  facet normal -1 0 0
    outer loop
      vertex -0.833344 -5 -5
      vertex -0.833344 0 5
      vertex -0.833344 0 -5
    endloop
  endfacet
  facet normal -1 0 0
    outer loop
      vertex -0.833344 -5 -5
      vertex -0.833344 -5 5
      vertex -0.833344 0 5
    endloop
  endfacet
  facet normal 0 -1 0
    outer loop
      vertex 0.833328 -5 -5
      vertex -0.833344 -5 5
      vertex -0.833344 -5 -5
    endloop
  endfacet
  facet normal 0 -1 0
    outer loop
      vertex 0.833328 -5 -5
      vertex 0.833328 -5 5
      vertex -0.833344 -5 5
    endloop
  endfacet
  facet normal 1 0 0
    outer loop
      vertex 0.833328 0 -5
      vertex 0.833328 -5 5
      vertex 0.833328 -5 -5
    endloop
  endfacet
  facet normal 1 0 -0
    outer loop
      vertex 0.833328 0 -5
      vertex 0.833328 0 5
      vertex 0.833328 -5 5
    endloop
  endfacet
endsolid OpenSCAD_Model
