solid OpenSCAD_Model
  facet normal -0 0 -1
    outer loop
      vertex -3.11746 0.575821 -5
      vertex -3.33334 0.392029 -5
      vertex -3.33334 5 -5
    endloop
  endfacet
  facet normal 0 0 -1
    outer loop
      vertex 0.531998 -0.0427399 -5
      vertex 0.106827 -0.00172424 -5
      vertex 0.320068 -0.0154114 -5
    endloop
  endfacet
  facet normal 0 0 -1
    outer loop
      vertex -3.33334 5 -5
      vertex -2.3127 1.09966 -5
      vertex -2.59196 0.942368 -5
    endloop
  endfacet
  facet normal 0 0 -1
    outer loop
      vertex -3.11746 0.575821 -5
      vertex -3.33334 5 -5
      vertex -2.8606 0.767517 -5
    endloop
  endfacet
  facet normal 0 0 -1
    outer loop
      vertex -3.36151 0.368042 -5
      vertex -3.33334 0.392029 -5
      vertex -3.33334 -3.33334 -5
    endloop
  endfacet
  facet normal -0 -0 -1
    outer loop
      vertex 0.531998 -0.0427399 -5
      vertex 0.74173 -0.0835876 -5
      vertex 0.106827 -0.00172424 -5
    endloop
  endfacet
  facet normal 0 0 -1
    outer loop
      vertex 0.94841 -0.137787 -5
      vertex -0.948425 -0.137787 -5
      vertex 0.106827 -0.00172424 -5
    endloop
  endfacet
  facet normal 0 0 -1
    outer loop
      vertex -3.33334 5 -5
      vertex -2.02393 1.23872 -5
      vertex -2.3127 1.09966 -5
    endloop
  endfacet
  facet normal -0 -0 -1
    outer loop
      vertex 1.54179 -0.378006 -5
      vertex 1.72797 -0.482864 -5
      vertex 1.34927 -0.285294 -5
    endloop
  endfacet
  facet normal 0 0 -1
    outer loop
      vertex -3.33334 5 -5
      vertex -1.72684 1.35899 -5
      vertex -2.02393 1.23872 -5
    endloop
  endfacet
  facet normal -0 -0 -1
    outer loop
      vertex 2.241 -0.865753 -5
      vertex 2.39449 -1.0144 -5
      vertex 1.72797 -0.482864 -5
    endloop
  endfacet
  facet normal 0 0 -1
    outer loop
      vertex -3.33334 5 -5
      vertex -1.42264 1.45999 -5
      vertex -1.72684 1.35899 -5
    endloop
  endfacet
  facet normal 0 0 -1
    outer loop
      vertex 2.07829 -0.727234 -5
      vertex 1.72797 -0.482864 -5
      vertex 1.90704 -0.599426 -5
    endloop
  endfacet
  facet normal 0 0 -1
    outer loop
      vertex -3.33334 5 -5
      vertex -1.11261 1.54131 -5
      vertex -1.42264 1.45999 -5
    endloop
  endfacet
  facet normal -0 -0 -1
    outer loop
      vertex 2.39449 -1.0144 -5
      vertex 3.27185 -2.69615 -5
      vertex 0.94841 -0.137787 -5
    endloop
  endfacet
  facet normal 0 0 -1
    outer loop
      vertex -3.33334 5 -5
      vertex -0.798004 1.60257 -5
      vertex -1.11261 1.54131 -5
    endloop
  endfacet
  facet normal -0 -0 -1
    outer loop
      vertex 2.79362 -1.51489 -5
      vertex 2.90439 -1.69762 -5
      vertex 2.67137 -1.33965 -5
    endloop
  endfacet
  facet normal 0 0 -1
    outer loop
      vertex -3.33334 5 -5
      vertex -0.480118 1.64355 -5
      vertex -0.798004 1.60257 -5
    endloop
  endfacet
  facet normal -0 -0 -1
    outer loop
      vertex 3.2243 -2.48782 -5
      vertex 3.27185 -2.69615 -5
      vertex 2.67137 -1.33965 -5
    endloop
  endfacet
  facet normal 0 0 -1
    outer loop
      vertex -3.33334 5 -5
      vertex -0.160263 1.66409 -5
      vertex -0.480118 1.64355 -5
    endloop
  endfacet
  facet normal -0 -0 -1
    outer loop
      vertex 3.08972 -2.08246 -5
      vertex 3.2243 -2.48782 -5
      vertex 3.00322 -1.88705 -5
    endloop
  endfacet
  facet normal 0 0 -1
    outer loop
      vertex -3.33334 5 -5
      vertex 0.160248 1.66409 -5
      vertex -0.160263 1.66409 -5
    endloop
  endfacet
  facet normal 0 0 -1
    outer loop
      vertex 3.27185 -2.69615 -5
      vertex -3.27187 -2.69615 -5
      vertex 0.94841 -0.137787 -5
    endloop
  endfacet
  facet normal 0 0 -1
    outer loop
      vertex -3.33334 5 -5
      vertex 3.33333 5 -5
      vertex 0.160248 1.66409 -5
    endloop
  endfacet
  facet normal 0 -0 -1
    outer loop
      vertex 3.30595 -2.90709 -5
      vertex 3.33333 -3.33334 -5
      vertex -3.33334 -3.33334 -5
    endloop
  endfacet
  facet normal 0 0 -1
    outer loop
      vertex 0.160248 1.66409 -5
      vertex 3.33333 5 -5
      vertex 0.480103 1.64355 -5
    endloop
  endfacet
  facet normal -0 -0 -1
    outer loop
      vertex 3.32648 -3.11977 -5
      vertex 3.33333 -3.33334 -5
      vertex 3.30595 -2.90709 -5
    endloop
  endfacet
  facet normal 0 0 -1
    outer loop
      vertex 0.480103 1.64355 -5
      vertex 3.33333 5 -5
      vertex 0.797989 1.60257 -5
    endloop
  endfacet
  facet normal 0 0 -1
    outer loop
      vertex 3.2243 -2.48782 -5
      vertex 2.90439 -1.69762 -5
      vertex 3.00322 -1.88705 -5
    endloop
  endfacet
  facet normal 0 0 -1
    outer loop
      vertex 0.797989 1.60257 -5
      vertex 3.33333 5 -5
      vertex 1.11259 1.54131 -5
    endloop
  endfacet
  facet normal 0 0 -1
    outer loop
      vertex 3.2243 -2.48782 -5
      vertex 3.08972 -2.08246 -5
      vertex 3.16351 -2.28297 -5
    endloop
  endfacet
  facet normal 0 0 -1
    outer loop
      vertex 1.11259 1.54131 -5
      vertex 3.33333 5 -5
      vertex 1.42262 1.45999 -5
    endloop
  endfacet
  facet normal 0 0 -1
    outer loop
      vertex 3.2243 -2.48782 -5
      vertex 2.67137 -1.33965 -5
      vertex 2.90439 -1.69762 -5
    endloop
  endfacet
  facet normal 0 0 -1
    outer loop
      vertex 1.42262 1.45999 -5
      vertex 3.33333 5 -5
      vertex 1.72682 1.35899 -5
    endloop
  endfacet
  facet normal -0 -0 -1
    outer loop
      vertex 2.67137 -1.33965 -5
      vertex 3.27185 -2.69615 -5
      vertex 2.39449 -1.0144 -5
    endloop
  endfacet
  facet normal 0 0 -1
    outer loop
      vertex 1.72682 1.35899 -5
      vertex 3.33333 5 -5
      vertex 2.02391 1.23872 -5
    endloop
  endfacet
  facet normal 0 0 -1
    outer loop
      vertex 2.67137 -1.33965 -5
      vertex 2.39449 -1.0144 -5
      vertex 2.53815 -1.17258 -5
    endloop
  endfacet
  facet normal 0 0 -1
    outer loop
      vertex 2.02391 1.23872 -5
      vertex 3.33333 5 -5
      vertex 2.31268 1.09966 -5
    endloop
  endfacet
  facet normal 0 0 -1
    outer loop
      vertex 2.241 -0.865753 -5
      vertex 1.72797 -0.482864 -5
      vertex 2.07829 -0.727234 -5
    endloop
  endfacet
  facet normal 0 0 -1
    outer loop
      vertex 2.31268 1.09966 -5
      vertex 3.33333 5 -5
      vertex 2.59195 0.942368 -5
    endloop
  endfacet
  facet normal -0 -0 -1
    outer loop
      vertex 1.72797 -0.482864 -5
      vertex 2.39449 -1.0144 -5
      vertex 0.94841 -0.137787 -5
    endloop
  endfacet
  facet normal 0 0 -1
    outer loop
      vertex 2.59195 0.942368 -5
      vertex 3.33333 5 -5
      vertex 2.86058 0.767517 -5
    endloop
  endfacet
  facet normal -0 -0 -1
    outer loop
      vertex 1.15121 -0.205109 -5
      vertex 1.34927 -0.285294 -5
      vertex 0.94841 -0.137787 -5
    endloop
  endfacet
  facet normal 0 0 -1
    outer loop
      vertex 2.86058 0.767517 -5
      vertex 3.33333 5 -5
      vertex 3.11745 0.575821 -5
    endloop
  endfacet
  facet normal -0 -0 -1
    outer loop
      vertex 1.34927 -0.285294 -5
      vertex 1.72797 -0.482864 -5
      vertex 0.94841 -0.137787 -5
    endloop
  endfacet
  facet normal 0 0 -1
    outer loop
      vertex 3.11745 0.575821 -5
      vertex 3.33333 5 -5
      vertex 3.33333 0.392029 -5
    endloop
  endfacet
  facet normal 0 0 -1
    outer loop
      vertex 0.106827 -0.00172424 -5
      vertex 0.74173 -0.0835876 -5
      vertex 0.94841 -0.137787 -5
    endloop
  endfacet
  facet normal 0 -0 -1
    outer loop
      vertex 4.98972 -3.01299 -5
      vertex 5 -3.33334 -5
      vertex 3.33333 -3.33334 -5
    endloop
  endfacet
  facet normal 0 -0 -1
    outer loop
      vertex 4.95894 -2.69395 -5
      vertex 4.98972 -3.01299 -5
      vertex 3.33333 -3.33334 -5
    endloop
  endfacet
  facet normal 0 -0 -1
    outer loop
      vertex 4.90779 -2.37755 -5
      vertex 4.95894 -2.69395 -5
      vertex 3.33333 -3.33334 -5
    endloop
  endfacet
  facet normal 0 -0 -1
    outer loop
      vertex 4.83647 -2.06506 -5
      vertex 4.90779 -2.37755 -5
      vertex 3.33333 -3.33334 -5
    endloop
  endfacet
  facet normal 0 -0 -1
    outer loop
      vertex 4.74527 -1.7578 -5
      vertex 4.83647 -2.06506 -5
      vertex 3.33333 -3.33334 -5
    endloop
  endfacet
  facet normal 0 -0 -1
    outer loop
      vertex 4.63458 -1.457 -5
      vertex 4.74527 -1.7578 -5
      vertex 3.33333 -3.33334 -5
    endloop
  endfacet
  facet normal 0 -0 -1
    outer loop
      vertex 4.50484 -1.16393 -5
      vertex 4.63458 -1.457 -5
      vertex 3.33333 -3.33334 -5
    endloop
  endfacet
  facet normal 0 -0 -1
    outer loop
      vertex 4.35658 -0.879761 -5
      vertex 4.50484 -1.16393 -5
      vertex 3.33333 -3.33334 -5
    endloop
  endfacet
  facet normal 0 -0 -1
    outer loop
      vertex 4.19043 -0.605667 -5
      vertex 4.35658 -0.879761 -5
      vertex 3.33333 -3.33334 -5
    endloop
  endfacet
  facet normal 0 -0 -1
    outer loop
      vertex 4.00706 -0.342789 -5
      vertex 4.19043 -0.605667 -5
      vertex 3.33333 -3.33334 -5
    endloop
  endfacet
  facet normal 0 -0 -1
    outer loop
      vertex 3.80722 -0.0921936 -5
      vertex 4.00706 -0.342789 -5
      vertex 3.33333 -3.33334 -5
    endloop
  endfacet
  facet normal 0 -0 -1
    outer loop
      vertex 3.59174 0.145065 -5
      vertex 3.80722 -0.0921936 -5
      vertex 3.33333 -3.33334 -5
    endloop
  endfacet
  facet normal 0 -0 -1
    outer loop
      vertex 3.3615 0.368042 -5
      vertex 3.59174 0.145065 -5
      vertex 3.33333 -3.33334 -5
    endloop
  endfacet
  facet normal 0 0 -1
    outer loop
      vertex 3.33333 0.392029 -5
      vertex 3.3615 0.368042 -5
      vertex 3.33333 -3.33334 -5
    endloop
  endfacet
  facet normal 0 0 -1
    outer loop
      vertex -2.8606 0.767517 -5
      vertex -3.33334 5 -5
      vertex -2.59196 0.942368 -5
    endloop
  endfacet
  facet normal 0 0 -1
    outer loop
      vertex -3.33334 -3.33334 -5
      vertex -3.59175 0.145065 -5
      vertex -3.36151 0.368042 -5
    endloop
  endfacet
  facet normal 0 0 -1
    outer loop
      vertex -3.33334 -3.33334 -5
      vertex -3.80724 -0.0921936 -5
      vertex -3.59175 0.145065 -5
    endloop
  endfacet
  facet normal 0 0 -1
    outer loop
      vertex -3.33334 -3.33334 -5
      vertex -4.00708 -0.342789 -5
      vertex -3.80724 -0.0921936 -5
    endloop
  endfacet
  facet normal 0 0 -1
    outer loop
      vertex -3.33334 -3.33334 -5
      vertex -4.19044 -0.605667 -5
      vertex -4.00708 -0.342789 -5
    endloop
  endfacet
  facet normal 0 0 -1
    outer loop
      vertex -3.33334 -3.33334 -5
      vertex -4.3566 -0.879761 -5
      vertex -4.19044 -0.605667 -5
    endloop
  endfacet
  facet normal 0 0 -1
    outer loop
      vertex -3.33334 -3.33334 -5
      vertex -4.50485 -1.16393 -5
      vertex -4.3566 -0.879761 -5
    endloop
  endfacet
  facet normal 0 0 -1
    outer loop
      vertex -3.33334 -3.33334 -5
      vertex -4.6346 -1.457 -5
      vertex -4.50485 -1.16393 -5
    endloop
  endfacet
  facet normal 0 0 -1
    outer loop
      vertex -3.33334 -3.33334 -5
      vertex -4.74529 -1.7578 -5
      vertex -4.6346 -1.457 -5
    endloop
  endfacet
  facet normal 0 0 -1
    outer loop
      vertex -3.33334 -3.33334 -5
      vertex -4.83649 -2.06506 -5
      vertex -4.74529 -1.7578 -5
    endloop
  endfacet
  facet normal 0 0 -1
    outer loop
      vertex -3.33334 -3.33334 -5
      vertex -4.90781 -2.37755 -5
      vertex -4.83649 -2.06506 -5
    endloop
  endfacet
  facet normal 0 0 -1
    outer loop
      vertex -3.33334 -3.33334 -5
      vertex -4.95895 -2.69395 -5
      vertex -4.90781 -2.37755 -5
    endloop
  endfacet
  facet normal 0 0 -1
    outer loop
      vertex -3.33334 -3.33334 -5
      vertex -4.98973 -3.01299 -5
      vertex -4.95895 -2.69395 -5
    endloop
  endfacet
  facet normal 0 0 -1
    outer loop
      vertex -3.33334 -3.33334 -5
      vertex -5 -3.33334 -5
      vertex -4.98973 -3.01299 -5
    endloop
  endfacet
  facet normal 0 -0 -1
    outer loop
      vertex -0.106842 -0.00172424 -5
      vertex 0.106827 -0.00172424 -5
      vertex -0.948425 -0.137787 -5
    endloop
  endfacet
  facet normal 0 -0 -1
    outer loop
      vertex -0.532013 -0.0427399 -5
      vertex -0.106842 -0.00172424 -5
      vertex -0.741745 -0.0835876 -5
    endloop
  endfacet
  facet normal 0 0 -1
    outer loop
      vertex -0.532013 -0.0427399 -5
      vertex -0.320084 -0.0154114 -5
      vertex -0.106842 -0.00172424 -5
    endloop
  endfacet
  facet normal 0 -0 -1
    outer loop
      vertex -0.741745 -0.0835876 -5
      vertex -0.106842 -0.00172424 -5
      vertex -0.948425 -0.137787 -5
    endloop
  endfacet
  facet normal 0 -0 -1
    outer loop
      vertex -0.948425 -0.137787 -5
      vertex 0.94841 -0.137787 -5
      vertex -3.27187 -2.69615 -5
    endloop
  endfacet
  facet normal 0 -0 -1
    outer loop
      vertex -2.3945 -1.0144 -5
      vertex -0.948425 -0.137787 -5
      vertex -3.27187 -2.69615 -5
    endloop
  endfacet
  facet normal 0 0 -1
    outer loop
      vertex -1.34929 -0.285294 -5
      vertex -1.15123 -0.205109 -5
      vertex -0.948425 -0.137787 -5
    endloop
  endfacet
  facet normal 0 -0 -1
    outer loop
      vertex -1.54181 -0.378006 -5
      vertex -1.34929 -0.285294 -5
      vertex -1.72798 -0.482864 -5
    endloop
  endfacet
  facet normal 0 0 -1
    outer loop
      vertex -1.72798 -0.482864 -5
      vertex -1.34929 -0.285294 -5
      vertex -0.948425 -0.137787 -5
    endloop
  endfacet
  facet normal 0 -0 -1
    outer loop
      vertex -2.07831 -0.727234 -5
      vertex -1.72798 -0.482864 -5
      vertex -2.24101 -0.865753 -5
    endloop
  endfacet
  facet normal 0 0 -1
    outer loop
      vertex -2.07831 -0.727234 -5
      vertex -1.90706 -0.599426 -5
      vertex -1.72798 -0.482864 -5
    endloop
  endfacet
  facet normal 0 -0 -1
    outer loop
      vertex -2.24101 -0.865753 -5
      vertex -1.72798 -0.482864 -5
      vertex -2.3945 -1.0144 -5
    endloop
  endfacet
  facet normal 0 0 -1
    outer loop
      vertex -2.3945 -1.0144 -5
      vertex -1.72798 -0.482864 -5
      vertex -0.948425 -0.137787 -5
    endloop
  endfacet
  facet normal 0 -0 -1
    outer loop
      vertex -2.67139 -1.33965 -5
      vertex -2.3945 -1.0144 -5
      vertex -3.27187 -2.69615 -5
    endloop
  endfacet
  facet normal 0 0 -1
    outer loop
      vertex -2.67139 -1.33965 -5
      vertex -2.53816 -1.17258 -5
      vertex -2.3945 -1.0144 -5
    endloop
  endfacet
  facet normal 0 -0 -1
    outer loop
      vertex -3.22432 -2.48782 -5
      vertex -2.67139 -1.33965 -5
      vertex -3.27187 -2.69615 -5
    endloop
  endfacet
  facet normal 0 0 -1
    outer loop
      vertex -2.9044 -1.69762 -5
      vertex -2.79364 -1.51489 -5
      vertex -2.67139 -1.33965 -5
    endloop
  endfacet
  facet normal 0 -0 -1
    outer loop
      vertex -3.00323 -1.88705 -5
      vertex -2.9044 -1.69762 -5
      vertex -3.22432 -2.48782 -5
    endloop
  endfacet
  facet normal 0 0 -1
    outer loop
      vertex -3.22432 -2.48782 -5
      vertex -2.9044 -1.69762 -5
      vertex -2.67139 -1.33965 -5
    endloop
  endfacet
  facet normal 0 -0 -1
    outer loop
      vertex -3.16353 -2.28297 -5
      vertex -3.08974 -2.08246 -5
      vertex -3.22432 -2.48782 -5
    endloop
  endfacet
  facet normal 0 0 -1
    outer loop
      vertex -3.22432 -2.48782 -5
      vertex -3.08974 -2.08246 -5
      vertex -3.00323 -1.88705 -5
    endloop
  endfacet
  facet normal 0 -0 -1
    outer loop
      vertex -3.27187 -2.69615 -5
      vertex 3.27185 -2.69615 -5
      vertex -3.30597 -2.90709 -5
    endloop
  endfacet
  facet normal 0 0 -1
    outer loop
      vertex -3.30597 -2.90709 -5
      vertex 3.27185 -2.69615 -5
      vertex 3.30595 -2.90709 -5
    endloop
  endfacet
  facet normal 0 0 -1
    outer loop
      vertex -3.33334 -3.33334 -5
      vertex -3.30597 -2.90709 -5
      vertex 3.30595 -2.90709 -5
    endloop
  endfacet
  facet normal 0 0 -1
    outer loop
      vertex -3.33334 -3.33334 -5
      vertex -3.32649 -3.11977 -5
      vertex -3.30597 -2.90709 -5
    endloop
  endfacet
  facet normal 0 0 1
    outer loop
      vertex -3.33334 5 5
      vertex -3.33334 0.392029 5
      vertex -3.11746 0.575821 5
    endloop
  endfacet
  facet normal 0 0 1
    outer loop
      vertex 0.320068 -0.0154114 5
      vertex 0.106827 -0.00172424 5
      vertex 0.531998 -0.0427399 5
    endloop
  endfacet
  facet normal 0 -0 1
    outer loop
      vertex -2.59196 0.942368 5
      vertex -2.3127 1.09966 5
      vertex -3.33334 5 5
    endloop
  endfacet
  facet normal 0 0 1
    outer loop
      vertex -2.8606 0.767517 5
      vertex -3.33334 5 5
      vertex -3.11746 0.575821 5
    endloop
  endfacet
  facet normal 0 -0 1
    outer loop
      vertex -3.33334 -3.33334 5
      vertex -3.33334 0.392029 5
      vertex -3.36151 0.368042 5
    endloop
  endfacet
  facet normal 0 0 1
    outer loop
      vertex 0.106827 -0.00172424 5
      vertex 0.74173 -0.0835876 5
      vertex 0.531998 -0.0427399 5
    endloop
  endfacet
  facet normal 0 0 1
    outer loop
      vertex 0.106827 -0.00172424 5
      vertex -0.948425 -0.137787 5
      vertex 0.94841 -0.137787 5
    endloop
  endfacet
  facet normal 0 -0 1
    outer loop
      vertex -2.3127 1.09966 5
      vertex -2.02393 1.23872 5
      vertex -3.33334 5 5
    endloop
  endfacet
  facet normal 0 0 1
    outer loop
      vertex 1.34927 -0.285294 5
      vertex 1.72797 -0.482864 5
      vertex 1.54179 -0.378006 5
    endloop
  endfacet
  facet normal 0 -0 1
    outer loop
      vertex -2.02393 1.23872 5
      vertex -1.72684 1.35899 5
      vertex -3.33334 5 5
    endloop
  endfacet
  facet normal 0 0 1
    outer loop
      vertex 1.72797 -0.482864 5
      vertex 2.39449 -1.0144 5
      vertex 2.241 -0.865753 5
    endloop
  endfacet
  facet normal 0 -0 1
    outer loop
      vertex -1.72684 1.35899 5
      vertex -1.42264 1.45999 5
      vertex -3.33334 5 5
    endloop
  endfacet
  facet normal 0 0 1
    outer loop
      vertex 1.90704 -0.599426 5
      vertex 1.72797 -0.482864 5
      vertex 2.07829 -0.727234 5
    endloop
  endfacet
  facet normal 0 -0 1
    outer loop
      vertex -1.42264 1.45999 5
      vertex -1.11261 1.54131 5
      vertex -3.33334 5 5
    endloop
  endfacet
  facet normal 0 0 1
    outer loop
      vertex 0.94841 -0.137787 5
      vertex 3.27185 -2.69615 5
      vertex 2.39449 -1.0144 5
    endloop
  endfacet
  facet normal 0 -0 1
    outer loop
      vertex -1.11261 1.54131 5
      vertex -0.798004 1.60257 5
      vertex -3.33334 5 5
    endloop
  endfacet
  facet normal 0 0 1
    outer loop
      vertex 2.67137 -1.33965 5
      vertex 2.90439 -1.69762 5
      vertex 2.79362 -1.51489 5
    endloop
  endfacet
  facet normal 0 -0 1
    outer loop
      vertex -0.798004 1.60257 5
      vertex -0.480118 1.64355 5
      vertex -3.33334 5 5
    endloop
  endfacet
  facet normal 0 0 1
    outer loop
      vertex 2.67137 -1.33965 5
      vertex 3.27185 -2.69615 5
      vertex 3.2243 -2.48782 5
    endloop
  endfacet
  facet normal 0 -0 1
    outer loop
      vertex -0.480118 1.64355 5
      vertex -0.160263 1.66409 5
      vertex -3.33334 5 5
    endloop
  endfacet
  facet normal 0 0 1
    outer loop
      vertex 3.00322 -1.88705 5
      vertex 3.2243 -2.48782 5
      vertex 3.08972 -2.08246 5
    endloop
  endfacet
  facet normal 0 -0 1
    outer loop
      vertex -0.160263 1.66409 5
      vertex 0.160248 1.66409 5
      vertex -3.33334 5 5
    endloop
  endfacet
  facet normal 0 0 1
    outer loop
      vertex 0.94841 -0.137787 5
      vertex -3.27187 -2.69615 5
      vertex 3.27185 -2.69615 5
    endloop
  endfacet
  facet normal 0 -0 1
    outer loop
      vertex 0.160248 1.66409 5
      vertex 3.33333 5 5
      vertex -3.33334 5 5
    endloop
  endfacet
  facet normal 0 0 1
    outer loop
      vertex -3.33334 -3.33334 5
      vertex 3.33333 -3.33334 5
      vertex 3.30595 -2.90709 5
    endloop
  endfacet
  facet normal 0 -0 1
    outer loop
      vertex 0.480103 1.64355 5
      vertex 3.33333 5 5
      vertex 0.160248 1.66409 5
    endloop
  endfacet
  facet normal 0 0 1
    outer loop
      vertex 3.30595 -2.90709 5
      vertex 3.33333 -3.33334 5
      vertex 3.32648 -3.11977 5
    endloop
  endfacet
  facet normal 0 -0 1
    outer loop
      vertex 0.797989 1.60257 5
      vertex 3.33333 5 5
      vertex 0.480103 1.64355 5
    endloop
  endfacet
  facet normal 0 0 1
    outer loop
      vertex 3.00322 -1.88705 5
      vertex 2.90439 -1.69762 5
      vertex 3.2243 -2.48782 5
    endloop
  endfacet
  facet normal 0 -0 1
    outer loop
      vertex 1.11259 1.54131 5
      vertex 3.33333 5 5
      vertex 0.797989 1.60257 5
    endloop
  endfacet
  facet normal 0 0 1
    outer loop
      vertex 3.16351 -2.28297 5
      vertex 3.08972 -2.08246 5
      vertex 3.2243 -2.48782 5
    endloop
  endfacet
  facet normal 0 -0 1
    outer loop
      vertex 1.42262 1.45999 5
      vertex 3.33333 5 5
      vertex 1.11259 1.54131 5
    endloop
  endfacet
  facet normal 0 0 1
    outer loop
      vertex 2.90439 -1.69762 5
      vertex 2.67137 -1.33965 5
      vertex 3.2243 -2.48782 5
    endloop
  endfacet
  facet normal 0 -0 1
    outer loop
      vertex 1.72682 1.35899 5
      vertex 3.33333 5 5
      vertex 1.42262 1.45999 5
    endloop
  endfacet
  facet normal 0 0 1
    outer loop
      vertex 2.39449 -1.0144 5
      vertex 3.27185 -2.69615 5
      vertex 2.67137 -1.33965 5
    endloop
  endfacet
  facet normal 0 -0 1
    outer loop
      vertex 2.02391 1.23872 5
      vertex 3.33333 5 5
      vertex 1.72682 1.35899 5
    endloop
  endfacet
  facet normal 0 0 1
    outer loop
      vertex 2.53815 -1.17258 5
      vertex 2.39449 -1.0144 5
      vertex 2.67137 -1.33965 5
    endloop
  endfacet
  facet normal 0 -0 1
    outer loop
      vertex 2.31268 1.09966 5
      vertex 3.33333 5 5
      vertex 2.02391 1.23872 5
    endloop
  endfacet
  facet normal 0 0 1
    outer loop
      vertex 2.07829 -0.727234 5
      vertex 1.72797 -0.482864 5
      vertex 2.241 -0.865753 5
    endloop
  endfacet
  facet normal 0 -0 1
    outer loop
      vertex 2.59195 0.942368 5
      vertex 3.33333 5 5
      vertex 2.31268 1.09966 5
    endloop
  endfacet
  facet normal 0 0 1
    outer loop
      vertex 0.94841 -0.137787 5
      vertex 2.39449 -1.0144 5
      vertex 1.72797 -0.482864 5
    endloop
  endfacet
  facet normal 0 -0 1
    outer loop
      vertex 2.86058 0.767517 5
      vertex 3.33333 5 5
      vertex 2.59195 0.942368 5
    endloop
  endfacet
  facet normal 0 0 1
    outer loop
      vertex 0.94841 -0.137787 5
      vertex 1.34927 -0.285294 5
      vertex 1.15121 -0.205109 5
    endloop
  endfacet
  facet normal 0 -0 1
    outer loop
      vertex 3.11745 0.575821 5
      vertex 3.33333 5 5
      vertex 2.86058 0.767517 5
    endloop
  endfacet
  facet normal 0 0 1
    outer loop
      vertex 0.94841 -0.137787 5
      vertex 1.72797 -0.482864 5
      vertex 1.34927 -0.285294 5
    endloop
  endfacet
  facet normal 0 -0 1
    outer loop
      vertex 3.33333 0.392029 5
      vertex 3.33333 5 5
      vertex 3.11745 0.575821 5
    endloop
  endfacet
  facet normal 0 0 1
    outer loop
      vertex 0.94841 -0.137787 5
      vertex 0.74173 -0.0835876 5
      vertex 0.106827 -0.00172424 5
    endloop
  endfacet
  facet normal 0 0 1
    outer loop
      vertex 3.33333 -3.33334 5
      vertex 5 -3.33334 5
      vertex 4.98972 -3.01299 5
    endloop
  endfacet
  facet normal 0 0 1
    outer loop
      vertex 3.33333 -3.33334 5
      vertex 4.98972 -3.01299 5
      vertex 4.95894 -2.69395 5
    endloop
  endfacet
  facet normal 0 0 1
    outer loop
      vertex 3.33333 -3.33334 5
      vertex 4.95894 -2.69395 5
      vertex 4.90779 -2.37755 5
    endloop
  endfacet
  facet normal 0 0 1
    outer loop
      vertex 3.33333 -3.33334 5
      vertex 4.90779 -2.37755 5
      vertex 4.83647 -2.06506 5
    endloop
  endfacet
  facet normal 0 0 1
    outer loop
      vertex 3.33333 -3.33334 5
      vertex 4.83647 -2.06506 5
      vertex 4.74527 -1.7578 5
    endloop
  endfacet
  facet normal 0 0 1
    outer loop
      vertex 3.33333 -3.33334 5
      vertex 4.74527 -1.7578 5
      vertex 4.63458 -1.457 5
    endloop
  endfacet
  facet normal 0 0 1
    outer loop
      vertex 3.33333 -3.33334 5
      vertex 4.63458 -1.457 5
      vertex 4.50484 -1.16393 5
    endloop
  endfacet
  facet normal 0 0 1
    outer loop
      vertex 3.33333 -3.33334 5
      vertex 4.50484 -1.16393 5
      vertex 4.35658 -0.879761 5
    endloop
  endfacet
  facet normal 0 0 1
    outer loop
      vertex 3.33333 -3.33334 5
      vertex 4.35658 -0.879761 5
      vertex 4.19043 -0.605667 5
    endloop
  endfacet
  facet normal 0 0 1
    outer loop
      vertex 3.33333 -3.33334 5
      vertex 4.19043 -0.605667 5
      vertex 4.00706 -0.342789 5
    endloop
  endfacet
  facet normal 0 0 1
    outer loop
      vertex 3.33333 -3.33334 5
      vertex 4.00706 -0.342789 5
      vertex 3.80722 -0.0921936 5
    endloop
  endfacet
  facet normal 0 0 1
    outer loop
      vertex 3.33333 -3.33334 5
      vertex 3.80722 -0.0921936 5
      vertex 3.59174 0.145065 5
    endloop
  endfacet
  facet normal 0 0 1
    outer loop
      vertex 3.33333 -3.33334 5
      vertex 3.59174 0.145065 5
      vertex 3.3615 0.368042 5
    endloop
  endfacet
  facet normal 0 0 1
    outer loop
      vertex 3.33333 -3.33334 5
      vertex 3.3615 0.368042 5
      vertex 3.33333 0.392029 5
    endloop
  endfacet
  facet normal 0 0 1
    outer loop
      vertex -2.59196 0.942368 5
      vertex -3.33334 5 5
      vertex -2.8606 0.767517 5
    endloop
  endfacet
  facet normal 0 0 1
    outer loop
      vertex -3.36151 0.368042 5
      vertex -3.59175 0.145065 5
      vertex -3.33334 -3.33334 5
    endloop
  endfacet
  facet normal 0 0 1
    outer loop
      vertex -3.59175 0.145065 5
      vertex -3.80724 -0.0921936 5
      vertex -3.33334 -3.33334 5
    endloop
  endfacet
  facet normal 0 0 1
    outer loop
      vertex -3.80724 -0.0921936 5
      vertex -4.00708 -0.342789 5
      vertex -3.33334 -3.33334 5
    endloop
  endfacet
  facet normal 0 0 1
    outer loop
      vertex -4.00708 -0.342789 5
      vertex -4.19044 -0.605667 5
      vertex -3.33334 -3.33334 5
    endloop
  endfacet
  facet normal 0 0 1
    outer loop
      vertex -4.19044 -0.605667 5
      vertex -4.3566 -0.879761 5
      vertex -3.33334 -3.33334 5
    endloop
  endfacet
  facet normal 0 0 1
    outer loop
      vertex -4.3566 -0.879761 5
      vertex -4.50485 -1.16393 5
      vertex -3.33334 -3.33334 5
    endloop
  endfacet
  facet normal 0 0 1
    outer loop
      vertex -4.50485 -1.16393 5
      vertex -4.6346 -1.457 5
      vertex -3.33334 -3.33334 5
    endloop
  endfacet
  facet normal 0 0 1
    outer loop
      vertex -4.6346 -1.457 5
      vertex -4.74529 -1.7578 5
      vertex -3.33334 -3.33334 5
    endloop
  endfacet
  facet normal 0 0 1
    outer loop
      vertex -4.74529 -1.7578 5
      vertex -4.83649 -2.06506 5
      vertex -3.33334 -3.33334 5
    endloop
  endfacet
  facet normal 0 0 1
    outer loop
      vertex -4.83649 -2.06506 5
      vertex -4.90781 -2.37755 5
      vertex -3.33334 -3.33334 5
    endloop
  endfacet
  facet normal 0 0 1
    outer loop
      vertex -4.90781 -2.37755 5
      vertex -4.95895 -2.69395 5
      vertex -3.33334 -3.33334 5
    endloop
  endfacet
  facet normal 0 0 1
    outer loop
      vertex -4.95895 -2.69395 5
      vertex -4.98973 -3.01299 5
      vertex -3.33334 -3.33334 5
    endloop
  endfacet
  facet normal 0 0 1
    outer loop
      vertex -4.98973 -3.01299 5
      vertex -5 -3.33334 5
      vertex -3.33334 -3.33334 5
    endloop
  endfacet
  facet normal 0 0 1
    outer loop
      vertex -0.948425 -0.137787 5
      vertex 0.106827 -0.00172424 5
      vertex -0.106842 -0.00172424 5
    endloop
  endfacet
  facet normal 0 0 1
    outer loop
      vertex -0.741745 -0.0835876 5
      vertex -0.106842 -0.00172424 5
      vertex -0.532013 -0.0427399 5
    endloop
  endfacet
  facet normal 0 0 1
    outer loop
      vertex -0.106842 -0.00172424 5
      vertex -0.320084 -0.0154114 5
      vertex -0.532013 -0.0427399 5
    endloop
  endfacet
  facet normal 0 0 1
    outer loop
      vertex -0.948425 -0.137787 5
      vertex -0.106842 -0.00172424 5
      vertex -0.741745 -0.0835876 5
    endloop
  endfacet
  facet normal 0 0 1
    outer loop
      vertex -3.27187 -2.69615 5
      vertex 0.94841 -0.137787 5
      vertex -0.948425 -0.137787 5
    endloop
  endfacet
  facet normal 0 0 1
    outer loop
      vertex -3.27187 -2.69615 5
      vertex -0.948425 -0.137787 5
      vertex -2.3945 -1.0144 5
    endloop
  endfacet
  facet normal 0 0 1
    outer loop
      vertex -0.948425 -0.137787 5
      vertex -1.15123 -0.205109 5
      vertex -1.34929 -0.285294 5
    endloop
  endfacet
  facet normal 0 0 1
    outer loop
      vertex -1.72798 -0.482864 5
      vertex -1.34929 -0.285294 5
      vertex -1.54181 -0.378006 5
    endloop
  endfacet
  facet normal 0 0 1
    outer loop
      vertex -0.948425 -0.137787 5
      vertex -1.34929 -0.285294 5
      vertex -1.72798 -0.482864 5
    endloop
  endfacet
  facet normal 0 0 1
    outer loop
      vertex -2.24101 -0.865753 5
      vertex -1.72798 -0.482864 5
      vertex -2.07831 -0.727234 5
    endloop
  endfacet
  facet normal 0 0 1
    outer loop
      vertex -1.72798 -0.482864 5
      vertex -1.90706 -0.599426 5
      vertex -2.07831 -0.727234 5
    endloop
  endfacet
  facet normal 0 0 1
    outer loop
      vertex -2.3945 -1.0144 5
      vertex -1.72798 -0.482864 5
      vertex -2.24101 -0.865753 5
    endloop
  endfacet
  facet normal 0 0 1
    outer loop
      vertex -0.948425 -0.137787 5
      vertex -1.72798 -0.482864 5
      vertex -2.3945 -1.0144 5
    endloop
  endfacet
  facet normal 0 0 1
    outer loop
      vertex -3.27187 -2.69615 5
      vertex -2.3945 -1.0144 5
      vertex -2.67139 -1.33965 5
    endloop
  endfacet
  facet normal 0 0 1
    outer loop
      vertex -2.3945 -1.0144 5
      vertex -2.53816 -1.17258 5
      vertex -2.67139 -1.33965 5
    endloop
  endfacet
  facet normal 0 0 1
    outer loop
      vertex -3.27187 -2.69615 5
      vertex -2.67139 -1.33965 5
      vertex -3.22432 -2.48782 5
    endloop
  endfacet
  facet normal 0 0 1
    outer loop
      vertex -2.67139 -1.33965 5
      vertex -2.79364 -1.51489 5
      vertex -2.9044 -1.69762 5
    endloop
  endfacet
  facet normal 0 0 1
    outer loop
      vertex -3.22432 -2.48782 5
      vertex -2.9044 -1.69762 5
      vertex -3.00323 -1.88705 5
    endloop
  endfacet
  facet normal 0 0 1
    outer loop
      vertex -2.67139 -1.33965 5
      vertex -2.9044 -1.69762 5
      vertex -3.22432 -2.48782 5
    endloop
  endfacet
  facet normal 0 0 1
    outer loop
      vertex -3.22432 -2.48782 5
      vertex -3.08974 -2.08246 5
      vertex -3.16353 -2.28297 5
    endloop
  endfacet
  facet normal 0 0 1
    outer loop
      vertex -3.00323 -1.88705 5
      vertex -3.08974 -2.08246 5
      vertex -3.22432 -2.48782 5
    endloop
  endfacet
  facet normal 0 0 1
    outer loop
      vertex -3.30597 -2.90709 5
      vertex 3.27185 -2.69615 5
      vertex -3.27187 -2.69615 5
    endloop
  endfacet
  facet normal 0 0 1
    outer loop
      vertex 3.30595 -2.90709 5
      vertex 3.27185 -2.69615 5
      vertex -3.30597 -2.90709 5
    endloop
  endfacet
  facet normal 0 0 1
    outer loop
      vertex 3.30595 -2.90709 5
      vertex -3.30597 -2.90709 5
      vertex -3.33334 -3.33334 5
    endloop
  endfacet
  facet normal 0 0 1
    outer loop
      vertex -3.30597 -2.90709 5
      vertex -3.32649 -3.11977 5
      vertex -3.33334 -3.33334 5
    endloop
  endfacet
  facet normal 0.64825 -0.761427 0
    outer loop
      vertex -3.11746 0.575821 -5
      vertex -3.33334 0.392029 5
      vertex -3.33334 0.392029 -5
    endloop
  endfacet
  facet normal 0.64825 -0.761427 0
    outer loop
      vertex -3.11746 0.575821 -5
      vertex -3.11746 0.575821 5
      vertex -3.33334 0.392029 5
    endloop
  endfacet
  facet normal 0.598103 -0.801419 0
    outer loop
      vertex -2.8606 0.767517 -5
      vertex -3.11746 0.575821 5
      vertex -3.11746 0.575821 -5
    endloop
  endfacet
  facet normal 0.598103 -0.801419 0
    outer loop
      vertex -2.8606 0.767517 -5
      vertex -2.8606 0.767517 5
      vertex -3.11746 0.575821 5
    endloop
  endfacet
  facet normal 0.545504 -0.838108 0
    outer loop
      vertex -2.59196 0.942368 -5
      vertex -2.8606 0.767517 5
      vertex -2.8606 0.767517 -5
    endloop
  endfacet
  facet normal 0.545504 -0.838108 0
    outer loop
      vertex -2.59196 0.942368 -5
      vertex -2.59196 0.942368 5
      vertex -2.8606 0.767517 5
    endloop
  endfacet
  facet normal 0.490755 -0.871298 0
    outer loop
      vertex -2.3127 1.09966 -5
      vertex -2.59196 0.942368 5
      vertex -2.59196 0.942368 -5
    endloop
  endfacet
  facet normal 0.490755 -0.871298 0
    outer loop
      vertex -2.3127 1.09966 -5
      vertex -2.3127 1.09966 5
      vertex -2.59196 0.942368 5
    endloop
  endfacet
  facet normal 0.433873 -0.900974 0
    outer loop
      vertex -2.02393 1.23872 -5
      vertex -2.3127 1.09966 5
      vertex -2.3127 1.09966 -5
    endloop
  endfacet
  facet normal 0.433873 -0.900974 0
    outer loop
      vertex -2.02393 1.23872 -5
      vertex -2.02393 1.23872 5
      vertex -2.3127 1.09966 5
    endloop
  endfacet
  facet normal 0.375244 -0.926926 0
    outer loop
      vertex -1.72684 1.35899 -5
      vertex -2.02393 1.23872 5
      vertex -2.02393 1.23872 -5
    endloop
  endfacet
  facet normal 0.375244 -0.926926 0
    outer loop
      vertex -1.72684 1.35899 -5
      vertex -1.72684 1.35899 5
      vertex -2.02393 1.23872 5
    endloop
  endfacet
  facet normal 0.315104 -0.949057 0
    outer loop
      vertex -1.42264 1.45999 -5
      vertex -1.72684 1.35899 5
      vertex -1.72684 1.35899 -5
    endloop
  endfacet
  facet normal 0.315104 -0.949057 0
    outer loop
      vertex -1.42264 1.45999 -5
      vertex -1.42264 1.45999 5
      vertex -1.72684 1.35899 5
    endloop
  endfacet
  facet normal 0.253715 -0.967279 0
    outer loop
      vertex -1.11261 1.54131 -5
      vertex -1.42264 1.45999 5
      vertex -1.42264 1.45999 -5
    endloop
  endfacet
  facet normal 0.253715 -0.967279 0
    outer loop
      vertex -1.11261 1.54131 -5
      vertex -1.11261 1.54131 5
      vertex -1.42264 1.45999 5
    endloop
  endfacet
  facet normal 0.19113 -0.981565 0
    outer loop
      vertex -0.798004 1.60257 -5
      vertex -1.11261 1.54131 5
      vertex -1.11261 1.54131 -5
    endloop
  endfacet
  facet normal 0.19113 -0.981565 0
    outer loop
      vertex -0.798004 1.60257 -5
      vertex -0.798004 1.60257 5
      vertex -1.11261 1.54131 5
    endloop
  endfacet
  facet normal 0.127856 -0.991793 0
    outer loop
      vertex -0.480118 1.64355 -5
      vertex -0.798004 1.60257 5
      vertex -0.798004 1.60257 -5
    endloop
  endfacet
  facet normal 0.127856 -0.991793 0
    outer loop
      vertex -0.480118 1.64355 -5
      vertex -0.480118 1.64355 5
      vertex -0.798004 1.60257 5
    endloop
  endfacet
  facet normal 0.0640846 -0.997944 0
    outer loop
      vertex -0.160263 1.66409 -5
      vertex -0.480118 1.64355 5
      vertex -0.480118 1.64355 -5
    endloop
  endfacet
  facet normal 0.0640846 -0.997944 0
    outer loop
      vertex -0.160263 1.66409 -5
      vertex -0.160263 1.66409 5
      vertex -0.480118 1.64355 5
    endloop
  endfacet
  facet normal 0 -1 0
    outer loop
      vertex 0.160248 1.66409 -5
      vertex -0.160263 1.66409 5
      vertex -0.160263 1.66409 -5
    endloop
  endfacet
  facet normal 0 -1 0
    outer loop
      vertex 0.160248 1.66409 -5
      vertex 0.160248 1.66409 5
      vertex -0.160263 1.66409 5
    endloop
  endfacet
  facet normal -0.0640846 -0.997944 0
    outer loop
      vertex 0.480103 1.64355 -5
      vertex 0.160248 1.66409 5
      vertex 0.160248 1.66409 -5
    endloop
  endfacet
  facet normal -0.0640846 -0.997944 0
    outer loop
      vertex 0.480103 1.64355 -5
      vertex 0.480103 1.64355 5
      vertex 0.160248 1.66409 5
    endloop
  endfacet
  facet normal -0.127856 -0.991793 0
    outer loop
      vertex 0.797989 1.60257 -5
      vertex 0.480103 1.64355 5
      vertex 0.480103 1.64355 -5
    endloop
  endfacet
  facet normal -0.127856 -0.991793 0
    outer loop
      vertex 0.797989 1.60257 -5
      vertex 0.797989 1.60257 5
      vertex 0.480103 1.64355 5
    endloop
  endfacet
  facet normal -0.191133 -0.981564 0
    outer loop
      vertex 1.11259 1.54131 -5
      vertex 0.797989 1.60257 5
      vertex 0.797989 1.60257 -5
    endloop
  endfacet
  facet normal -0.191133 -0.981564 0
    outer loop
      vertex 1.11259 1.54131 -5
      vertex 1.11259 1.54131 5
      vertex 0.797989 1.60257 5
    endloop
  endfacet
  facet normal -0.253715 -0.967279 0
    outer loop
      vertex 1.42262 1.45999 -5
      vertex 1.11259 1.54131 5
      vertex 1.11259 1.54131 -5
    endloop
  endfacet
  facet normal -0.253715 -0.967279 0
    outer loop
      vertex 1.42262 1.45999 -5
      vertex 1.42262 1.45999 5
      vertex 1.11259 1.54131 5
    endloop
  endfacet
  facet normal -0.315104 -0.949057 0
    outer loop
      vertex 1.72682 1.35899 -5
      vertex 1.42262 1.45999 5
      vertex 1.42262 1.45999 -5
    endloop
  endfacet
  facet normal -0.315104 -0.949057 0
    outer loop
      vertex 1.72682 1.35899 -5
      vertex 1.72682 1.35899 5
      vertex 1.42262 1.45999 5
    endloop
  endfacet
  facet normal -0.375244 -0.926926 0
    outer loop
      vertex 2.02391 1.23872 -5
      vertex 1.72682 1.35899 5
      vertex 1.72682 1.35899 -5
    endloop
  endfacet
  facet normal -0.375244 -0.926926 0
    outer loop
      vertex 2.02391 1.23872 -5
      vertex 2.02391 1.23872 5
      vertex 1.72682 1.35899 5
    endloop
  endfacet
  facet normal -0.433873 -0.900974 0
    outer loop
      vertex 2.31268 1.09966 -5
      vertex 2.02391 1.23872 5
      vertex 2.02391 1.23872 -5
    endloop
  endfacet
  facet normal -0.433873 -0.900974 0
    outer loop
      vertex 2.31268 1.09966 -5
      vertex 2.31268 1.09966 5
      vertex 2.02391 1.23872 5
    endloop
  endfacet
  facet normal -0.490741 -0.871305 0
    outer loop
      vertex 2.59195 0.942368 -5
      vertex 2.31268 1.09966 5
      vertex 2.31268 1.09966 -5
    endloop
  endfacet
  facet normal -0.490741 -0.871305 0
    outer loop
      vertex 2.59195 0.942368 -5
      vertex 2.59195 0.942368 5
      vertex 2.31268 1.09966 5
    endloop
  endfacet
  facet normal -0.545518 -0.838099 0
    outer loop
      vertex 2.86058 0.767517 -5
      vertex 2.59195 0.942368 5
      vertex 2.59195 0.942368 -5
    endloop
  endfacet
  facet normal -0.545518 -0.838099 0
    outer loop
      vertex 2.86058 0.767517 -5
      vertex 2.86058 0.767517 5
      vertex 2.59195 0.942368 5
    endloop
  endfacet
  facet normal -0.598088 -0.80143 0
    outer loop
      vertex 3.11745 0.575821 -5
      vertex 2.86058 0.767517 5
      vertex 2.86058 0.767517 -5
    endloop
  endfacet
  facet normal -0.598088 -0.80143 0
    outer loop
      vertex 3.11745 0.575821 -5
      vertex 3.11745 0.575821 5
      vertex 2.86058 0.767517 5
    endloop
  endfacet
  facet normal -0.64825 -0.761427 0
    outer loop
      vertex 3.33333 0.392029 -5
      vertex 3.11745 0.575821 5
      vertex 3.11745 0.575821 -5
    endloop
  endfacet
  facet normal -0.64825 -0.761427 0
    outer loop
      vertex 3.33333 0.392029 -5
      vertex 3.33333 0.392029 5
      vertex 3.11745 0.575821 5
    endloop
  endfacet
  facet normal -1 0 0
    outer loop
      vertex 3.33333 -3.33334 -5
      vertex 3.33333 0.392029 5
      vertex 3.33333 0.392029 -5
    endloop
  endfacet
  facet normal -1 0 0
    outer loop
      vertex 3.33333 -3.33334 -5
      vertex 3.33333 -3.33334 5
      vertex 3.33333 0.392029 5
    endloop
  endfacet
  facet normal 0 -1 0
    outer loop
      vertex 5 -3.33334 -5
      vertex 3.33333 -3.33334 5
      vertex 3.33333 -3.33334 -5
    endloop
  endfacet
  facet normal 0 -1 0
    outer loop
      vertex 5 -3.33334 -5
      vertex 5 -3.33334 5
      vertex 3.33333 -3.33334 5
    endloop
  endfacet
  facet normal 0.999486 0.0320734 0
    outer loop
      vertex 4.98972 -3.01299 -5
      vertex 5 -3.33334 5
      vertex 5 -3.33334 -5
    endloop
  endfacet
  facet normal 0.999486 0.0320734 -0
    outer loop
      vertex 4.98972 -3.01299 -5
      vertex 4.98972 -3.01299 5
      vertex 5 -3.33334 5
    endloop
  endfacet
  facet normal 0.995378 0.096031 0
    outer loop
      vertex 4.95894 -2.69395 -5
      vertex 4.98972 -3.01299 5
      vertex 4.98972 -3.01299 -5
    endloop
  endfacet
  facet normal 0.995378 0.096031 -0
    outer loop
      vertex 4.95894 -2.69395 -5
      vertex 4.95894 -2.69395 5
      vertex 4.98972 -3.01299 5
    endloop
  endfacet
  facet normal 0.987183 0.15959 0
    outer loop
      vertex 4.90779 -2.37755 -5
      vertex 4.95894 -2.69395 5
      vertex 4.95894 -2.69395 -5
    endloop
  endfacet
  facet normal 0.987183 0.15959 -0
    outer loop
      vertex 4.90779 -2.37755 -5
      vertex 4.90779 -2.37755 5
      vertex 4.95894 -2.69395 5
    endloop
  endfacet
  facet normal 0.97493 0.22251 0
    outer loop
      vertex 4.83647 -2.06506 -5
      vertex 4.90779 -2.37755 5
      vertex 4.90779 -2.37755 -5
    endloop
  endfacet
  facet normal 0.97493 0.22251 -0
    outer loop
      vertex 4.83647 -2.06506 -5
      vertex 4.83647 -2.06506 5
      vertex 4.90779 -2.37755 5
    endloop
  endfacet
  facet normal 0.958662 0.284547 0
    outer loop
      vertex 4.74527 -1.7578 -5
      vertex 4.83647 -2.06506 5
      vertex 4.83647 -2.06506 -5
    endloop
  endfacet
  facet normal 0.958662 0.284547 -0
    outer loop
      vertex 4.74527 -1.7578 -5
      vertex 4.74527 -1.7578 5
      vertex 4.83647 -2.06506 5
    endloop
  endfacet
  facet normal 0.938476 0.345345 0
    outer loop
      vertex 4.63458 -1.457 -5
      vertex 4.74527 -1.7578 5
      vertex 4.74527 -1.7578 -5
    endloop
  endfacet
  facet normal 0.938476 0.345345 -0
    outer loop
      vertex 4.63458 -1.457 -5
      vertex 4.63458 -1.457 5
      vertex 4.74527 -1.7578 5
    endloop
  endfacet
  facet normal 0.914405 0.404801 0
    outer loop
      vertex 4.50484 -1.16393 -5
      vertex 4.63458 -1.457 5
      vertex 4.63458 -1.457 -5
    endloop
  endfacet
  facet normal 0.914405 0.404801 -0
    outer loop
      vertex 4.50484 -1.16393 -5
      vertex 4.50484 -1.16393 5
      vertex 4.63458 -1.457 5
    endloop
  endfacet
  facet normal 0.886588 0.462561 0
    outer loop
      vertex 4.35658 -0.879761 -5
      vertex 4.50484 -1.16393 5
      vertex 4.50484 -1.16393 -5
    endloop
  endfacet
  facet normal 0.886588 0.462561 -0
    outer loop
      vertex 4.35658 -0.879761 -5
      vertex 4.35658 -0.879761 5
      vertex 4.50484 -1.16393 5
    endloop
  endfacet
  facet normal 0.855153 0.518376 0
    outer loop
      vertex 4.19043 -0.605667 -5
      vertex 4.35658 -0.879761 5
      vertex 4.35658 -0.879761 -5
    endloop
  endfacet
  facet normal 0.855153 0.518376 -0
    outer loop
      vertex 4.19043 -0.605667 -5
      vertex 4.19043 -0.605667 5
      vertex 4.35658 -0.879761 5
    endloop
  endfacet
  facet normal 0.820176 0.572112 0
    outer loop
      vertex 4.00706 -0.342789 -5
      vertex 4.19043 -0.605667 5
      vertex 4.19043 -0.605667 -5
    endloop
  endfacet
  facet normal 0.820176 0.572112 -0
    outer loop
      vertex 4.00706 -0.342789 -5
      vertex 4.00706 -0.342789 5
      vertex 4.19043 -0.605667 5
    endloop
  endfacet
  facet normal 0.781836 0.623484 0
    outer loop
      vertex 3.80722 -0.0921936 -5
      vertex 4.00706 -0.342789 5
      vertex 4.00706 -0.342789 -5
    endloop
  endfacet
  facet normal 0.781836 0.623484 -0
    outer loop
      vertex 3.80722 -0.0921936 -5
      vertex 3.80722 -0.0921936 5
      vertex 4.00706 -0.342789 5
    endloop
  endfacet
  facet normal 0.740266 0.672315 0
    outer loop
      vertex 3.59174 0.145065 -5
      vertex 3.80722 -0.0921936 5
      vertex 3.80722 -0.0921936 -5
    endloop
  endfacet
  facet normal 0.740266 0.672315 -0
    outer loop
      vertex 3.59174 0.145065 -5
      vertex 3.59174 0.145065 5
      vertex 3.80722 -0.0921936 5
    endloop
  endfacet
  facet normal 0.695686 0.718346 0
    outer loop
      vertex 3.3615 0.368042 -5
      vertex 3.59174 0.145065 5
      vertex 3.59174 0.145065 -5
    endloop
  endfacet
  facet normal 0.695686 0.718346 -0
    outer loop
      vertex 3.3615 0.368042 -5
      vertex 3.3615 0.368042 5
      vertex 3.59174 0.145065 5
    endloop
  endfacet
  facet normal 0.648315 0.761372 0
    outer loop
      vertex 3.33333 0.392029 -5
      vertex 3.3615 0.368042 5
      vertex 3.3615 0.368042 -5
    endloop
  endfacet
  facet normal 0.648315 0.761372 -0
    outer loop
      vertex 3.33333 0.392029 -5
      vertex 3.33333 0.392029 5
      vertex 3.3615 0.368042 5
    endloop
  endfacet
  facet normal 1 0 0
    outer loop
      vertex 3.33333 5 -5
      vertex 3.33333 0.392029 5
      vertex 3.33333 0.392029 -5
    endloop
  endfacet
  facet normal 1 0 -0
    outer loop
      vertex 3.33333 5 -5
      vertex 3.33333 5 5
      vertex 3.33333 0.392029 5
    endloop
  endfacet
  facet normal 0 1 0
    outer loop
      vertex -3.33334 5 -5
      vertex 3.33333 5 5
      vertex 3.33333 5 -5
    endloop
  endfacet
  facet normal 0 1 0
    outer loop
      vertex -3.33334 5 -5
      vertex -3.33334 5 5
      vertex 3.33333 5 5
    endloop
  endfacet
  facet normal -1 0 0
    outer loop
      vertex -3.33334 0.392029 -5
      vertex -3.33334 5 5
      vertex -3.33334 5 -5
    endloop
  endfacet
  facet normal -1 0 0
    outer loop
      vertex -3.33334 0.392029 -5
      vertex -3.33334 0.392029 5
      vertex -3.33334 5 5
    endloop
  endfacet
  facet normal -0.648315 0.761372 0
    outer loop
      vertex -3.36151 0.368042 -5
      vertex -3.33334 0.392029 5
      vertex -3.33334 0.392029 -5
    endloop
  endfacet
  facet normal -0.648315 0.761372 0
    outer loop
      vertex -3.36151 0.368042 -5
      vertex -3.36151 0.368042 5
      vertex -3.33334 0.392029 5
    endloop
  endfacet
  facet normal -0.695686 0.718346 0
    outer loop
      vertex -3.59175 0.145065 -5
      vertex -3.36151 0.368042 5
      vertex -3.36151 0.368042 -5
    endloop
  endfacet
  facet normal -0.695686 0.718346 0
    outer loop
      vertex -3.59175 0.145065 -5
      vertex -3.59175 0.145065 5
      vertex -3.36151 0.368042 5
    endloop
  endfacet
  facet normal -0.74025 0.672332 0
    outer loop
      vertex -3.80724 -0.0921936 -5
      vertex -3.59175 0.145065 5
      vertex -3.59175 0.145065 -5
    endloop
  endfacet
  facet normal -0.74025 0.672332 0
    outer loop
      vertex -3.80724 -0.0921936 -5
      vertex -3.80724 -0.0921936 5
      vertex -3.59175 0.145065 5
    endloop
  endfacet
  facet normal -0.781836 0.623484 0
    outer loop
      vertex -4.00708 -0.342789 -5
      vertex -3.80724 -0.0921936 5
      vertex -3.80724 -0.0921936 -5
    endloop
  endfacet
  facet normal -0.781836 0.623484 0
    outer loop
      vertex -4.00708 -0.342789 -5
      vertex -4.00708 -0.342789 5
      vertex -3.80724 -0.0921936 5
    endloop
  endfacet
  facet normal -0.82019 0.572091 0
    outer loop
      vertex -4.19044 -0.605667 -5
      vertex -4.00708 -0.342789 5
      vertex -4.00708 -0.342789 -5
    endloop
  endfacet
  facet normal -0.82019 0.572091 0
    outer loop
      vertex -4.19044 -0.605667 -5
      vertex -4.19044 -0.605667 5
      vertex -4.00708 -0.342789 5
    endloop
  endfacet
  facet normal -0.855139 0.518399 0
    outer loop
      vertex -4.3566 -0.879761 -5
      vertex -4.19044 -0.605667 5
      vertex -4.19044 -0.605667 -5
    endloop
  endfacet
  facet normal -0.855139 0.518399 0
    outer loop
      vertex -4.3566 -0.879761 -5
      vertex -4.3566 -0.879761 5
      vertex -4.19044 -0.605667 5
    endloop
  endfacet
  facet normal -0.8866 0.462536 0
    outer loop
      vertex -4.50485 -1.16393 -5
      vertex -4.3566 -0.879761 5
      vertex -4.3566 -0.879761 -5
    endloop
  endfacet
  facet normal -0.8866 0.462536 0
    outer loop
      vertex -4.50485 -1.16393 -5
      vertex -4.50485 -1.16393 5
      vertex -4.3566 -0.879761 5
    endloop
  endfacet
  facet normal -0.914393 0.404827 0
    outer loop
      vertex -4.6346 -1.457 -5
      vertex -4.50485 -1.16393 5
      vertex -4.50485 -1.16393 -5
    endloop
  endfacet
  facet normal -0.914393 0.404827 0
    outer loop
      vertex -4.6346 -1.457 -5
      vertex -4.6346 -1.457 5
      vertex -4.50485 -1.16393 5
    endloop
  endfacet
  facet normal -0.938476 0.345345 0
    outer loop
      vertex -4.74529 -1.7578 -5
      vertex -4.6346 -1.457 5
      vertex -4.6346 -1.457 -5
    endloop
  endfacet
  facet normal -0.938476 0.345345 0
    outer loop
      vertex -4.74529 -1.7578 -5
      vertex -4.74529 -1.7578 5
      vertex -4.6346 -1.457 5
    endloop
  endfacet
  facet normal -0.958662 0.284547 0
    outer loop
      vertex -4.83649 -2.06506 -5
      vertex -4.74529 -1.7578 5
      vertex -4.74529 -1.7578 -5
    endloop
  endfacet
  facet normal -0.958662 0.284547 0
    outer loop
      vertex -4.83649 -2.06506 -5
      vertex -4.83649 -2.06506 5
      vertex -4.74529 -1.7578 5
    endloop
  endfacet
  facet normal -0.97493 0.22251 0
    outer loop
      vertex -4.90781 -2.37755 -5
      vertex -4.83649 -2.06506 5
      vertex -4.83649 -2.06506 -5
    endloop
  endfacet
  facet normal -0.97493 0.22251 0
    outer loop
      vertex -4.90781 -2.37755 -5
      vertex -4.90781 -2.37755 5
      vertex -4.83649 -2.06506 5
    endloop
  endfacet
  facet normal -0.987188 0.15956 0
    outer loop
      vertex -4.95895 -2.69395 -5
      vertex -4.90781 -2.37755 5
      vertex -4.90781 -2.37755 -5
    endloop
  endfacet
  facet normal -0.987188 0.15956 0
    outer loop
      vertex -4.95895 -2.69395 -5
      vertex -4.95895 -2.69395 5
      vertex -4.90781 -2.37755 5
    endloop
  endfacet
  facet normal -0.995378 0.096031 0
    outer loop
      vertex -4.98973 -3.01299 -5
      vertex -4.95895 -2.69395 5
      vertex -4.95895 -2.69395 -5
    endloop
  endfacet
  facet normal -0.995378 0.096031 0
    outer loop
      vertex -4.98973 -3.01299 -5
      vertex -4.98973 -3.01299 5
      vertex -4.95895 -2.69395 5
    endloop
  endfacet
  facet normal -0.999487 0.0320422 0
    outer loop
      vertex -5 -3.33334 -5
      vertex -4.98973 -3.01299 5
      vertex -4.98973 -3.01299 -5
    endloop
  endfacet
  facet normal -0.999487 0.0320422 0
    outer loop
      vertex -5 -3.33334 -5
      vertex -5 -3.33334 5
      vertex -4.98973 -3.01299 5
    endloop
  endfacet
  facet normal 0 -1 0
    outer loop
      vertex -3.33334 -3.33334 -5
      vertex -5 -3.33334 5
      vertex -5 -3.33334 -5
    endloop
  endfacet
  facet normal 0 -1 0
    outer loop
      vertex -3.33334 -3.33334 -5
      vertex -3.33334 -3.33334 5
      vertex -5 -3.33334 5
    endloop
  endfacet
  facet normal 1 0 0
    outer loop
      vertex -3.33334 0.392029 -5
      vertex -3.33334 -3.33334 5
      vertex -3.33334 -3.33334 -5
    endloop
  endfacet
  facet normal 1 0 -0
    outer loop
      vertex -3.33334 0.392029 -5
      vertex -3.33334 0.392029 5
      vertex -3.33334 -3.33334 5
    endloop
  endfacet
  facet normal 0.995373 0.0960834 0
    outer loop
      vertex 3.30595 -2.90709 -5
      vertex 3.32648 -3.11977 5
      vertex 3.32648 -3.11977 -5
    endloop
  endfacet
  facet normal 0.995373 0.0960834 -0
    outer loop
      vertex 3.30595 -2.90709 -5
      vertex 3.30595 -2.90709 5
      vertex 3.32648 -3.11977 5
    endloop
  endfacet
  facet normal 0.987184 0.159586 0
    outer loop
      vertex 3.27185 -2.69615 -5
      vertex 3.30595 -2.90709 5
      vertex 3.30595 -2.90709 -5
    endloop
  endfacet
  facet normal 0.987184 0.159586 -0
    outer loop
      vertex 3.27185 -2.69615 -5
      vertex 3.27185 -2.69615 5
      vertex 3.30595 -2.90709 5
    endloop
  endfacet
  facet normal 0.974928 0.222521 0
    outer loop
      vertex 3.2243 -2.48782 -5
      vertex 3.27185 -2.69615 5
      vertex 3.27185 -2.69615 -5
    endloop
  endfacet
  facet normal 0.974928 0.222521 -0
    outer loop
      vertex 3.2243 -2.48782 -5
      vertex 3.2243 -2.48782 5
      vertex 3.27185 -2.69615 5
    endloop
  endfacet
  facet normal 0.958679 0.284491 0
    outer loop
      vertex 3.16351 -2.28297 -5
      vertex 3.2243 -2.48782 5
      vertex 3.2243 -2.48782 -5
    endloop
  endfacet
  facet normal 0.958679 0.284491 -0
    outer loop
      vertex 3.16351 -2.28297 -5
      vertex 3.16351 -2.28297 5
      vertex 3.2243 -2.48782 5
    endloop
  endfacet
  facet normal 0.938468 0.345367 0
    outer loop
      vertex 3.08972 -2.08246 -5
      vertex 3.16351 -2.28297 5
      vertex 3.16351 -2.28297 -5
    endloop
  endfacet
  facet normal 0.938468 0.345367 -0
    outer loop
      vertex 3.08972 -2.08246 -5
      vertex 3.08972 -2.08246 5
      vertex 3.16351 -2.28297 5
    endloop
  endfacet
  facet normal 0.914416 0.404775 0
    outer loop
      vertex 3.00322 -1.88705 -5
      vertex 3.08972 -2.08246 5
      vertex 3.08972 -2.08246 -5
    endloop
  endfacet
  facet normal 0.914416 0.404775 -0
    outer loop
      vertex 3.00322 -1.88705 -5
      vertex 3.00322 -1.88705 5
      vertex 3.08972 -2.08246 5
    endloop
  endfacet
  facet normal 0.886591 0.462555 0
    outer loop
      vertex 2.90439 -1.69762 -5
      vertex 3.00322 -1.88705 5
      vertex 3.00322 -1.88705 -5
    endloop
  endfacet
  facet normal 0.886591 0.462555 -0
    outer loop
      vertex 2.90439 -1.69762 -5
      vertex 2.90439 -1.69762 5
      vertex 3.00322 -1.88705 5
    endloop
  endfacet
  facet normal 0.855147 0.518386 0
    outer loop
      vertex 2.79362 -1.51489 -5
      vertex 2.90439 -1.69762 5
      vertex 2.90439 -1.69762 -5
    endloop
  endfacet
  facet normal 0.855147 0.518386 -0
    outer loop
      vertex 2.79362 -1.51489 -5
      vertex 2.79362 -1.51489 5
      vertex 2.90439 -1.69762 5
    endloop
  endfacet
  facet normal 0.82015 0.572149 0
    outer loop
      vertex 2.67137 -1.33965 -5
      vertex 2.79362 -1.51489 5
      vertex 2.79362 -1.51489 -5
    endloop
  endfacet
  facet normal 0.82015 0.572149 -0
    outer loop
      vertex 2.67137 -1.33965 -5
      vertex 2.67137 -1.33965 5
      vertex 2.79362 -1.51489 5
    endloop
  endfacet
  facet normal 0.781863 0.62345 0
    outer loop
      vertex 2.53815 -1.17258 -5
      vertex 2.67137 -1.33965 5
      vertex 2.67137 -1.33965 -5
    endloop
  endfacet
  facet normal 0.781863 0.62345 -0
    outer loop
      vertex 2.53815 -1.17258 -5
      vertex 2.53815 -1.17258 5
      vertex 2.67137 -1.33965 5
    endloop
  endfacet
  facet normal 0.740266 0.672314 0
    outer loop
      vertex 2.39449 -1.0144 -5
      vertex 2.53815 -1.17258 5
      vertex 2.53815 -1.17258 -5
    endloop
  endfacet
  facet normal 0.740266 0.672314 -0
    outer loop
      vertex 2.39449 -1.0144 -5
      vertex 2.39449 -1.0144 5
      vertex 2.53815 -1.17258 5
    endloop
  endfacet
  facet normal 0.695683 0.718349 0
    outer loop
      vertex 2.241 -0.865753 -5
      vertex 2.39449 -1.0144 5
      vertex 2.39449 -1.0144 -5
    endloop
  endfacet
  facet normal 0.695683 0.718349 -0
    outer loop
      vertex 2.241 -0.865753 -5
      vertex 2.241 -0.865753 5
      vertex 2.39449 -1.0144 5
    endloop
  endfacet
  facet normal 0.648234 0.761441 0
    outer loop
      vertex 2.07829 -0.727234 -5
      vertex 2.241 -0.865753 5
      vertex 2.241 -0.865753 -5
    endloop
  endfacet
  facet normal 0.648234 0.761441 -0
    outer loop
      vertex 2.07829 -0.727234 -5
      vertex 2.07829 -0.727234 5
      vertex 2.241 -0.865753 5
    endloop
  endfacet
  facet normal 0.598113 0.801412 0
    outer loop
      vertex 1.90704 -0.599426 -5
      vertex 2.07829 -0.727234 5
      vertex 2.07829 -0.727234 -5
    endloop
  endfacet
  facet normal 0.598113 0.801412 -0
    outer loop
      vertex 1.90704 -0.599426 -5
      vertex 1.90704 -0.599426 5
      vertex 2.07829 -0.727234 5
    endloop
  endfacet
  facet normal 0.545536 0.838087 0
    outer loop
      vertex 1.72797 -0.482864 -5
      vertex 1.90704 -0.599426 5
      vertex 1.90704 -0.599426 -5
    endloop
  endfacet
  facet normal 0.545536 0.838087 -0
    outer loop
      vertex 1.72797 -0.482864 -5
      vertex 1.72797 -0.482864 5
      vertex 1.90704 -0.599426 5
    endloop
  endfacet
  facet normal 0.49073 0.871312 0
    outer loop
      vertex 1.54179 -0.378006 -5
      vertex 1.72797 -0.482864 5
      vertex 1.72797 -0.482864 -5
    endloop
  endfacet
  facet normal 0.49073 0.871312 -0
    outer loop
      vertex 1.54179 -0.378006 -5
      vertex 1.54179 -0.378006 5
      vertex 1.72797 -0.482864 5
    endloop
  endfacet
  facet normal 0.433881 0.90097 0
    outer loop
      vertex 1.34927 -0.285294 -5
      vertex 1.54179 -0.378006 5
      vertex 1.54179 -0.378006 -5
    endloop
  endfacet
  facet normal 0.433881 0.90097 -0
    outer loop
      vertex 1.34927 -0.285294 -5
      vertex 1.34927 -0.285294 5
      vertex 1.54179 -0.378006 5
    endloop
  endfacet
  facet normal 0.375265 0.926918 0
    outer loop
      vertex 1.15121 -0.205109 -5
      vertex 1.34927 -0.285294 5
      vertex 1.34927 -0.285294 -5
    endloop
  endfacet
  facet normal 0.375265 0.926918 -0
    outer loop
      vertex 1.15121 -0.205109 -5
      vertex 1.15121 -0.205109 5
      vertex 1.34927 -0.285294 5
    endloop
  endfacet
  facet normal 0.315057 0.949073 0
    outer loop
      vertex 0.94841 -0.137787 -5
      vertex 1.15121 -0.205109 5
      vertex 1.15121 -0.205109 -5
    endloop
  endfacet
  facet normal 0.315057 0.949073 -0
    outer loop
      vertex 0.94841 -0.137787 -5
      vertex 0.94841 -0.137787 5
      vertex 1.15121 -0.205109 5
    endloop
  endfacet
  facet normal 0.253661 0.967293 0
    outer loop
      vertex 0.74173 -0.0835876 -5
      vertex 0.94841 -0.137787 5
      vertex 0.94841 -0.137787 -5
    endloop
  endfacet
  facet normal 0.253661 0.967293 -0
    outer loop
      vertex 0.74173 -0.0835876 -5
      vertex 0.74173 -0.0835876 5
      vertex 0.94841 -0.137787 5
    endloop
  endfacet
  facet normal 0.191169 0.981557 0
    outer loop
      vertex 0.531998 -0.0427399 -5
      vertex 0.74173 -0.0835876 5
      vertex 0.74173 -0.0835876 -5
    endloop
  endfacet
  facet normal 0.191169 0.981557 -0
    outer loop
      vertex 0.531998 -0.0427399 -5
      vertex 0.531998 -0.0427399 5
      vertex 0.74173 -0.0835876 5
    endloop
  endfacet
  facet normal 0.127892 0.991788 0
    outer loop
      vertex 0.320068 -0.0154114 -5
      vertex 0.531998 -0.0427399 5
      vertex 0.531998 -0.0427399 -5
    endloop
  endfacet
  facet normal 0.127892 0.991788 -0
    outer loop
      vertex 0.320068 -0.0154114 -5
      vertex 0.320068 -0.0154114 5
      vertex 0.531998 -0.0427399 5
    endloop
  endfacet
  facet normal 0.0640545 0.997946 0
    outer loop
      vertex 0.106827 -0.00172424 -5
      vertex 0.320068 -0.0154114 5
      vertex 0.320068 -0.0154114 -5
    endloop
  endfacet
  facet normal 0.0640545 0.997946 -0
    outer loop
      vertex 0.106827 -0.00172424 -5
      vertex 0.106827 -0.00172424 5
      vertex 0.320068 -0.0154114 5
    endloop
  endfacet
  facet normal 0 1 0
    outer loop
      vertex -0.106842 -0.00172424 -5
      vertex 0.106827 -0.00172424 5
      vertex 0.106827 -0.00172424 -5
    endloop
  endfacet
  facet normal 0 1 0
    outer loop
      vertex -0.106842 -0.00172424 -5
      vertex -0.106842 -0.00172424 5
      vertex 0.106827 -0.00172424 5
    endloop
  endfacet
  facet normal -0.0640542 0.997946 0
    outer loop
      vertex -0.320084 -0.0154114 -5
      vertex -0.106842 -0.00172424 5
      vertex -0.106842 -0.00172424 -5
    endloop
  endfacet
  facet normal -0.0640542 0.997946 0
    outer loop
      vertex -0.320084 -0.0154114 -5
      vertex -0.320084 -0.0154114 5
      vertex -0.106842 -0.00172424 5
    endloop
  endfacet
  facet normal -0.127892 0.991788 0
    outer loop
      vertex -0.532013 -0.0427399 -5
      vertex -0.320084 -0.0154114 5
      vertex -0.320084 -0.0154114 -5
    endloop
  endfacet
  facet normal -0.127892 0.991788 0
    outer loop
      vertex -0.532013 -0.0427399 -5
      vertex -0.532013 -0.0427399 5
      vertex -0.320084 -0.0154114 5
    endloop
  endfacet
  facet normal -0.191169 0.981557 0
    outer loop
      vertex -0.741745 -0.0835876 -5
      vertex -0.532013 -0.0427399 5
      vertex -0.532013 -0.0427399 -5
    endloop
  endfacet
  facet normal -0.191169 0.981557 0
    outer loop
      vertex -0.741745 -0.0835876 -5
      vertex -0.741745 -0.0835876 5
      vertex -0.532013 -0.0427399 5
    endloop
  endfacet
  facet normal -0.253661 0.967293 0
    outer loop
      vertex -0.948425 -0.137787 -5
      vertex -0.741745 -0.0835876 5
      vertex -0.741745 -0.0835876 -5
    endloop
  endfacet
  facet normal -0.253661 0.967293 0
    outer loop
      vertex -0.948425 -0.137787 -5
      vertex -0.948425 -0.137787 5
      vertex -0.741745 -0.0835876 5
    endloop
  endfacet
  facet normal -0.31505 0.949075 0
    outer loop
      vertex -1.15123 -0.205109 -5
      vertex -0.948425 -0.137787 5
      vertex -0.948425 -0.137787 -5
    endloop
  endfacet
  facet normal -0.31505 0.949075 0
    outer loop
      vertex -1.15123 -0.205109 -5
      vertex -1.15123 -0.205109 5
      vertex -0.948425 -0.137787 5
    endloop
  endfacet
  facet normal -0.375265 0.926918 0
    outer loop
      vertex -1.34929 -0.285294 -5
      vertex -1.15123 -0.205109 5
      vertex -1.15123 -0.205109 -5
    endloop
  endfacet
  facet normal -0.375265 0.926918 0
    outer loop
      vertex -1.34929 -0.285294 -5
      vertex -1.34929 -0.285294 5
      vertex -1.15123 -0.205109 5
    endloop
  endfacet
  facet normal -0.433881 0.90097 0
    outer loop
      vertex -1.54181 -0.378006 -5
      vertex -1.34929 -0.285294 5
      vertex -1.34929 -0.285294 -5
    endloop
  endfacet
  facet normal -0.433881 0.90097 0
    outer loop
      vertex -1.54181 -0.378006 -5
      vertex -1.54181 -0.378006 5
      vertex -1.34929 -0.285294 5
    endloop
  endfacet
  facet normal -0.49075 0.871301 0
    outer loop
      vertex -1.72798 -0.482864 -5
      vertex -1.54181 -0.378006 5
      vertex -1.54181 -0.378006 -5
    endloop
  endfacet
  facet normal -0.49075 0.871301 0
    outer loop
      vertex -1.72798 -0.482864 -5
      vertex -1.72798 -0.482864 5
      vertex -1.54181 -0.378006 5
    endloop
  endfacet
  facet normal -0.545515 0.838101 0
    outer loop
      vertex -1.90706 -0.599426 -5
      vertex -1.72798 -0.482864 5
      vertex -1.72798 -0.482864 -5
    endloop
  endfacet
  facet normal -0.545515 0.838101 0
    outer loop
      vertex -1.90706 -0.599426 -5
      vertex -1.90706 -0.599426 5
      vertex -1.72798 -0.482864 5
    endloop
  endfacet
  facet normal -0.598113 0.801412 0
    outer loop
      vertex -2.07831 -0.727234 -5
      vertex -1.90706 -0.599426 5
      vertex -1.90706 -0.599426 -5
    endloop
  endfacet
  facet normal -0.598113 0.801412 0
    outer loop
      vertex -2.07831 -0.727234 -5
      vertex -2.07831 -0.727234 5
      vertex -1.90706 -0.599426 5
    endloop
  endfacet
  facet normal -0.648257 0.761422 0
    outer loop
      vertex -2.24101 -0.865753 -5
      vertex -2.07831 -0.727234 5
      vertex -2.07831 -0.727234 -5
    endloop
  endfacet
  facet normal -0.648257 0.761422 0
    outer loop
      vertex -2.24101 -0.865753 -5
      vertex -2.24101 -0.865753 5
      vertex -2.07831 -0.727234 5
    endloop
  endfacet
  facet normal -0.695683 0.718349 0
    outer loop
      vertex -2.3945 -1.0144 -5
      vertex -2.24101 -0.865753 5
      vertex -2.24101 -0.865753 -5
    endloop
  endfacet
  facet normal -0.695683 0.718349 0
    outer loop
      vertex -2.3945 -1.0144 -5
      vertex -2.3945 -1.0144 5
      vertex -2.24101 -0.865753 5
    endloop
  endfacet
  facet normal -0.740266 0.672314 0
    outer loop
      vertex -2.53816 -1.17258 -5
      vertex -2.3945 -1.0144 5
      vertex -2.3945 -1.0144 -5
    endloop
  endfacet
  facet normal -0.740266 0.672314 0
    outer loop
      vertex -2.53816 -1.17258 -5
      vertex -2.53816 -1.17258 5
      vertex -2.3945 -1.0144 5
    endloop
  endfacet
  facet normal -0.78184 0.623479 0
    outer loop
      vertex -2.67139 -1.33965 -5
      vertex -2.53816 -1.17258 5
      vertex -2.53816 -1.17258 -5
    endloop
  endfacet
  facet normal -0.78184 0.623479 0
    outer loop
      vertex -2.67139 -1.33965 -5
      vertex -2.67139 -1.33965 5
      vertex -2.53816 -1.17258 5
    endloop
  endfacet
  facet normal -0.82015 0.572149 0
    outer loop
      vertex -2.79364 -1.51489 -5
      vertex -2.67139 -1.33965 5
      vertex -2.67139 -1.33965 -5
    endloop
  endfacet
  facet normal -0.82015 0.572149 0
    outer loop
      vertex -2.79364 -1.51489 -5
      vertex -2.79364 -1.51489 5
      vertex -2.67139 -1.33965 5
    endloop
  endfacet
  facet normal -0.855168 0.518352 0
    outer loop
      vertex -2.9044 -1.69762 -5
      vertex -2.79364 -1.51489 5
      vertex -2.79364 -1.51489 -5
    endloop
  endfacet
  facet normal -0.855168 0.518352 0
    outer loop
      vertex -2.9044 -1.69762 -5
      vertex -2.9044 -1.69762 5
      vertex -2.79364 -1.51489 5
    endloop
  endfacet
  facet normal -0.886591 0.462555 0
    outer loop
      vertex -3.00323 -1.88705 -5
      vertex -2.9044 -1.69762 5
      vertex -2.9044 -1.69762 -5
    endloop
  endfacet
  facet normal -0.886591 0.462555 0
    outer loop
      vertex -3.00323 -1.88705 -5
      vertex -3.00323 -1.88705 5
      vertex -2.9044 -1.69762 5
    endloop
  endfacet
  facet normal -0.914399 0.404814 0
    outer loop
      vertex -3.08974 -2.08246 -5
      vertex -3.00323 -1.88705 5
      vertex -3.00323 -1.88705 -5
    endloop
  endfacet
  facet normal -0.914399 0.404814 0
    outer loop
      vertex -3.08974 -2.08246 -5
      vertex -3.08974 -2.08246 5
      vertex -3.00323 -1.88705 5
    endloop
  endfacet
  facet normal -0.938468 0.345367 0
    outer loop
      vertex -3.16353 -2.28297 -5
      vertex -3.08974 -2.08246 5
      vertex -3.08974 -2.08246 -5
    endloop
  endfacet
  facet normal -0.938468 0.345367 0
    outer loop
      vertex -3.16353 -2.28297 -5
      vertex -3.16353 -2.28297 5
      vertex -3.08974 -2.08246 5
    endloop
  endfacet
  facet normal -0.958679 0.284491 0
    outer loop
      vertex -3.22432 -2.48782 -5
      vertex -3.16353 -2.28297 5
      vertex -3.16353 -2.28297 -5
    endloop
  endfacet
  facet normal -0.958679 0.284491 0
    outer loop
      vertex -3.22432 -2.48782 -5
      vertex -3.22432 -2.48782 5
      vertex -3.16353 -2.28297 5
    endloop
  endfacet
  facet normal -0.974928 0.222521 0
    outer loop
      vertex -3.27187 -2.69615 -5
      vertex -3.22432 -2.48782 5
      vertex -3.22432 -2.48782 -5
    endloop
  endfacet
  facet normal -0.974928 0.222521 0
    outer loop
      vertex -3.27187 -2.69615 -5
      vertex -3.27187 -2.69615 5
      vertex -3.22432 -2.48782 5
    endloop
  endfacet
  facet normal -0.987184 0.159586 0
    outer loop
      vertex -3.30597 -2.90709 -5
      vertex -3.27187 -2.69615 5
      vertex -3.27187 -2.69615 -5
    endloop
  endfacet
  facet normal -0.987184 0.159586 0
    outer loop
      vertex -3.30597 -2.90709 -5
      vertex -3.30597 -2.90709 5
      vertex -3.27187 -2.69615 5
    endloop
  endfacet
  facet normal -0.995378 0.096037 0
    outer loop
      vertex -3.32649 -3.11977 -5
      vertex -3.30597 -2.90709 5
      vertex -3.30597 -2.90709 -5
    endloop
  endfacet
  facet normal -0.995378 0.096037 0
    outer loop
      vertex -3.32649 -3.11977 -5
      vertex -3.32649 -3.11977 5
      vertex -3.30597 -2.90709 5
    endloop
  endfacet
  facet normal -0.999486 0.0320573 0
    outer loop
      vertex -3.33334 -3.33334 -5
      vertex -3.32649 -3.11977 5
      vertex -3.32649 -3.11977 -5
    endloop
  endfacet
  facet normal -0.999486 0.0320573 0
    outer loop
      vertex -3.33334 -3.33334 -5
      vertex -3.33334 -3.33334 5
      vertex -3.32649 -3.11977 5
    endloop
  endfacet
  facet normal 0 -1 0
    outer loop
      vertex 3.33333 -3.33334 -5
      vertex -3.33334 -3.33334 5
      vertex -3.33334 -3.33334 -5
    endloop
  endfacet
  facet normal 0 -1 0
    outer loop
      vertex 3.33333 -3.33334 -5
      vertex 3.33333 -3.33334 5
      vertex -3.33334 -3.33334 5
    endloop
  endfacet
  facet normal 0.999486 0.0320573 0
    outer loop
      vertex 3.32648 -3.11977 -5
      vertex 3.33333 -3.33334 5
      vertex 3.33333 -3.33334 -5
    endloop
  endfacet
  facet normal 0.999486 0.0320573 -0
    outer loop
      vertex 3.32648 -3.11977 -5
      vertex 3.32648 -3.11977 5
      vertex 3.33333 -3.33334 5
    endloop
  endfacet
endsolid OpenSCAD_Model
