solid OpenSCAD_Model
  facet normal 0 0 -1
    outer loop
      vertex -3.33334 5 -5
      vertex 3.33333 5 -5
      vertex 0 2 -5
    endloop
  endfacet
  facet normal 0 0 -1
    outer loop
      vertex 3.33333 5 -5
      vertex 2.5 -1 -5
      vertex 0 2 -5
    endloop
  endfacet
  facet normal 0 0 -1
    outer loop
      vertex -3.33334 5 -5
      vertex 0 2 -5
      vertex -2.5 -1 -5
    endloop
  endfacet
  facet normal 0 -0 1
    outer loop
      vertex 0 2 5
      vertex 3.33333 5 5
      vertex -3.33334 5 5
    endloop
  endfacet
  facet normal -0 0 1
    outer loop
      vertex 0 2 5
      vertex 2.5 -1 5
      vertex 3.33333 5 5
    endloop
  endfacet
  facet normal 0 -0 1
    outer loop
      vertex -2.5 -1 5
      vertex 0 2 5
      vertex -3.33334 5 5
    endloop
  endfacet
  facet normal 0 1 0
    outer loop
      vertex -3.33334 5 -5
      vertex 3.33333 5 5
      vertex 3.33333 5 -5
    endloop
  endfacet
  facet normal 0 1 0
    outer loop
      vertex -3.33334 5 -5
      vertex -3.33334 5 5
      vertex 3.33333 5 5
    endloop
  endfacet
  facet normal -0.990492 -0.137569 0
    outer loop
      vertex -2.5 -1 -5
      vertex -3.33334 5 5
      vertex -3.33334 5 -5
    endloop
  endfacet
  facet normal -0.990492 -0.137569 0
    outer loop
      vertex -2.5 -1 -5
      vertex -2.5 -1 5
      vertex -3.33334 5 5
    endloop
  endfacet
  facet normal 0.768221 -0.640184 0
    outer loop
      vertex 0 2 -5
      vertex -2.5 -1 5
      vertex -2.5 -1 -5
    endloop
  endfacet
  facet normal 0.768221 -0.640184 0
    outer loop
      vertex 0 2 -5
      vertex 0 2 5
      vertex -2.5 -1 5
    endloop
  endfacet
  facet normal -0.768221 -0.640184 0
    outer loop
      vertex 2.5 -1 -5
      vertex 0 2 5
      vertex 0 2 -5
    endloop
  endfacet
  facet normal -0.768221 -0.640184 0
    outer loop
      vertex 2.5 -1 -5
      vertex 2.5 -1 5
      vertex 0 2 5
    endloop
  endfacet
  facet normal 0.990492 -0.137568 0
    outer loop
      vertex 3.33333 5 -5
      vertex 2.5 -1 5
      vertex 2.5 -1 -5
    endloop
  endfacet
  facet normal 0.990492 -0.137568 0
    outer loop
      vertex 3.33333 5 -5
      vertex 3.33333 5 5
      vertex 2.5 -1 5
    endloop
  endfacet
endsolid OpenSCAD_Model
