solid OpenSCAD_Model
  facet normal 0 0 -1
    outer loop
      vertex 4 -5 -5
      vertex 5 -4 -5
      vertex 5 -5 -5
    endloop
  endfacet
  facet normal 0 0 -1
    outer loop
      vertex 4 -5 -5
      vertex 1 0 -5
      vertex 5 -4 -5
    endloop
  endfacet
  facet normal 0 0 -1
    outer loop
      vertex 1 0 -5
      vertex 0 1 -5
      vertex 4 5 -5
    endloop
  endfacet
  facet normal 0 0 -1
    outer loop
      vertex 4 -5 -5
      vertex 0 -1 -5
      vertex 1 0 -5
    endloop
  endfacet
  facet normal 0 0 -1
    outer loop
      vertex 1 0 -5
      vertex 4 5 -5
      vertex 5 4 -5
    endloop
  endfacet
  facet normal 0 0 -1
    outer loop
      vertex 5 4 -5
      vertex 4 5 -5
      vertex 5 5 -5
    endloop
  endfacet
  facet normal 0 0 -1
    outer loop
      vertex 0 -1 -5
      vertex 0 1 -5
      vertex 1 0 -5
    endloop
  endfacet
  facet normal 0 0 -1
    outer loop
      vertex -5 5 -5
      vertex -4 5 -5
      vertex -5 4 -5
    endloop
  endfacet
  facet normal 0 0 -1
    outer loop
      vertex -5 4 -5
      vertex -4 5 -5
      vertex -1 0 -5
    endloop
  endfacet
  facet normal -0 0 -1
    outer loop
      vertex 0 -1 -5
      vertex -4 -5 -5
      vertex -1 0 -5
    endloop
  endfacet
  facet normal 0 0 -1
    outer loop
      vertex -1 0 -5
      vertex -4 -5 -5
      vertex -5 -4 -5
    endloop
  endfacet
  facet normal 0 0 -1
    outer loop
      vertex 0 -1 -5
      vertex -1 0 -5
      vertex 0 1 -5
    endloop
  endfacet
  facet normal 0 0 -1
    outer loop
      vertex -1 0 -5
      vertex -4 5 -5
      vertex 0 1 -5
    endloop
  endfacet
  facet normal 0 0 -1
    outer loop
      vertex -5 -4 -5
      vertex -4 -5 -5
      vertex -5 -5 -5
    endloop
  endfacet
  facet normal 0 -0 1
    outer loop
      vertex 5 -5 5
      vertex 5 -4 5
      vertex 4 -5 5
    endloop
  endfacet
  facet normal 0 0 1
    outer loop
      vertex 5 -4 5
      vertex 1 0 5
      vertex 4 -5 5
    endloop
  endfacet
  facet normal 0 0 1
    outer loop
      vertex 4 5 5
      vertex 0 1 5
      vertex 1 0 5
    endloop
  endfacet
  facet normal 0 0 1
    outer loop
      vertex 1 0 5
      vertex 0 -1 5
      vertex 4 -5 5
    endloop
  endfacet
  facet normal 0 0 1
    outer loop
      vertex 5 4 5
      vertex 4 5 5
      vertex 1 0 5
    endloop
  endfacet
  facet normal 0 0 1
    outer loop
      vertex 5 5 5
      vertex 4 5 5
      vertex 5 4 5
    endloop
  endfacet
  facet normal 0 0 1
    outer loop
      vertex 1 0 5
      vertex 0 1 5
      vertex 0 -1 5
    endloop
  endfacet
  facet normal 0 0 1
    outer loop
      vertex -5 4 5
      vertex -4 5 5
      vertex -5 5 5
    endloop
  endfacet
  facet normal 0 0 1
    outer loop
      vertex -1 0 5
      vertex -4 5 5
      vertex -5 4 5
    endloop
  endfacet
  facet normal 0 0 1
    outer loop
      vertex -1 0 5
      vertex -4 -5 5
      vertex 0 -1 5
    endloop
  endfacet
  facet normal -0 0 1
    outer loop
      vertex -5 -4 5
      vertex -4 -5 5
      vertex -1 0 5
    endloop
  endfacet
  facet normal 0 0 1
    outer loop
      vertex 0 1 5
      vertex -1 0 5
      vertex 0 -1 5
    endloop
  endfacet
  facet normal 0 0 1
    outer loop
      vertex 0 1 5
      vertex -4 5 5
      vertex -1 0 5
    endloop
  endfacet
  facet normal 0 0 1
    outer loop
      vertex -5 -5 5
      vertex -4 -5 5
      vertex -5 -4 5
    endloop
  endfacet
  facet normal -0.707107 -0.707107 0
    outer loop
      vertex 4 -5 -5
      vertex 0 -1 5
      vertex 0 -1 -5
    endloop
  endfacet
  facet normal -0.707107 -0.707107 0
    outer loop
      vertex 4 -5 -5
      vertex 4 -5 5
      vertex 0 -1 5
    endloop
  endfacet
  facet normal 0 -1 0
    outer loop
      vertex 5 -5 -5
      vertex 4 -5 5
      vertex 4 -5 -5
    endloop
  endfacet
  facet normal 0 -1 0
    outer loop
      vertex 5 -5 -5
      vertex 5 -5 5
      vertex 4 -5 5
    endloop
  endfacet
  facet normal 1 0 0
    outer loop
      vertex 5 -4 -5
      vertex 5 -5 5
      vertex 5 -5 -5
    endloop
  endfacet
  facet normal 1 0 -0
    outer loop
      vertex 5 -4 -5
      vertex 5 -4 5
      vertex 5 -5 5
    endloop
  endfacet
  facet normal 0.707107 0.707107 0
    outer loop
      vertex 1 0 -5
      vertex 5 -4 5
      vertex 5 -4 -5
    endloop
  endfacet
  facet normal 0.707107 0.707107 -0
    outer loop
      vertex 1 0 -5
      vertex 1 0 5
      vertex 5 -4 5
    endloop
  endfacet
  facet normal 0.707107 -0.707107 0
    outer loop
      vertex 5 4 -5
      vertex 1 0 5
      vertex 1 0 -5
    endloop
  endfacet
  facet normal 0.707107 -0.707107 0
    outer loop
      vertex 5 4 -5
      vertex 5 4 5
      vertex 1 0 5
    endloop
  endfacet
  facet normal 1 0 0
    outer loop
      vertex 5 5 -5
      vertex 5 4 5
      vertex 5 4 -5
    endloop
  endfacet
  facet normal 1 0 -0
    outer loop
      vertex 5 5 -5
      vertex 5 5 5
      vertex 5 4 5
    endloop
  endfacet
  facet normal 0 1 0
    outer loop
      vertex 4 5 -5
      vertex 5 5 5
      vertex 5 5 -5
    endloop
  endfacet
  facet normal 0 1 0
    outer loop
      vertex 4 5 -5
      vertex 4 5 5
      vertex 5 5 5
    endloop
  endfacet
  facet normal -0.707107 0.707107 0
    outer loop
      vertex 0 1 -5
      vertex 4 5 5
      vertex 4 5 -5
    endloop
  endfacet
  facet normal -0.707107 0.707107 0
    outer loop
      vertex 0 1 -5
      vertex 0 1 5
      vertex 4 5 5
    endloop
  endfacet
  facet normal 0.707107 0.707107 0
    outer loop
      vertex -4 5 -5
      vertex 0 1 5
      vertex 0 1 -5
    endloop
  endfacet
  facet normal 0.707107 0.707107 -0
    outer loop
      vertex -4 5 -5
      vertex -4 5 5
      vertex 0 1 5
    endloop
  endfacet
  facet normal 0 1 0
    outer loop
      vertex -5 5 -5
      vertex -4 5 5
      vertex -4 5 -5
    endloop
  endfacet
  facet normal 0 1 0
    outer loop
      vertex -5 5 -5
      vertex -5 5 5
      vertex -4 5 5
    endloop
  endfacet
  facet normal -1 0 0
    outer loop
      vertex -5 4 -5
      vertex -5 5 5
      vertex -5 5 -5
    endloop
  endfacet
  facet normal -1 0 0
    outer loop
      vertex -5 4 -5
      vertex -5 4 5
      vertex -5 5 5
    endloop
  endfacet
  facet normal -0.707107 -0.707107 0
    outer loop
      vertex -1 0 -5
      vertex -5 4 5
      vertex -5 4 -5
    endloop
  endfacet
  facet normal -0.707107 -0.707107 0
    outer loop
      vertex -1 0 -5
      vertex -1 0 5
      vertex -5 4 5
    endloop
  endfacet
  facet normal -0.707107 0.707107 0
    outer loop
      vertex -5 -4 -5
      vertex -1 0 5
      vertex -1 0 -5
    endloop
  endfacet
  facet normal -0.707107 0.707107 0
    outer loop
      vertex -5 -4 -5
      vertex -5 -4 5
      vertex -1 0 5
    endloop
  endfacet
  facet normal -1 0 0
    outer loop
      vertex -5 -5 -5
      vertex -5 -4 5
      vertex -5 -4 -5
    endloop
  endfacet
  facet normal -1 0 0
    outer loop
      vertex -5 -5 -5
      vertex -5 -5 5
      vertex -5 -4 5
    endloop
  endfacet
  facet normal 0 -1 0
    outer loop
      vertex -4 -5 -5
      vertex -5 -5 5
      vertex -5 -5 -5
    endloop
  endfacet
  facet normal 0 -1 0
    outer loop
      vertex -4 -5 -5
      vertex -4 -5 5
      vertex -5 -5 5
    endloop
  endfacet
  facet normal 0.707107 -0.707107 0
    outer loop
      vertex 0 -1 -5
      vertex -4 -5 5
      vertex -4 -5 -5
    endloop
  endfacet
  facet normal 0.707107 -0.707107 0
    outer loop
      vertex 0 -1 -5
      vertex 0 -1 5
      vertex -4 -5 5
    endloop
  endfacet
endsolid OpenSCAD_Model
