solid OpenSCAD_Model
  facet normal 0 -0 -1
    outer loop
      vertex 2.241 -2.46761 -5
      vertex 3.11745 -3.90916 -5
      vertex 2.07829 -2.60611 -5
    endloop
  endfacet
  facet normal -0 0 -1
    outer loop
      vertex 3.3615 -3.7014 -5
      vertex 3.11745 -3.90916 -5
      vertex 2.241 -2.46761 -5
    endloop
  endfacet
  facet normal 0 0 -1
    outer loop
      vertex 3.80722 -3.24115 -5
      vertex 2.39449 -2.31895 -5
      vertex 2.53815 -2.16077 -5
    endloop
  endfacet
  facet normal -0 0 -1
    outer loop
      vertex 3.11745 -3.90916 -5
      vertex 2.86058 -4.10088 -5
      vertex 1.90704 -2.73392 -5
    endloop
  endfacet
  facet normal -0 0 -1
    outer loop
      vertex 4.50484 -2.16943 -5
      vertex 4.35658 -2.4536 -5
      vertex 3.00322 -1.44629 -5
    endloop
  endfacet
  facet normal 0 0 -1
    outer loop
      vertex 4.35658 -2.4536 -5
      vertex 2.79362 -1.81845 -5
      vertex 2.90439 -1.63573 -5
    endloop
  endfacet
  facet normal -0 0 -1
    outer loop
      vertex 4.35658 -2.4536 -5
      vertex 4.19043 -2.72768 -5
      vertex 2.79362 -1.81845 -5
    endloop
  endfacet
  facet normal -0 0 -1
    outer loop
      vertex 4.63458 -1.87634 -5
      vertex 4.50484 -2.16943 -5
      vertex 3.08972 -1.2509 -5
    endloop
  endfacet
  facet normal -0 0 -1
    outer loop
      vertex 4.74527 -1.57555 -5
      vertex 4.63458 -1.87634 -5
      vertex 3.08972 -1.2509 -5
    endloop
  endfacet
  facet normal 0 -0 -1
    outer loop
      vertex 3.16351 -1.05037 -5
      vertex 4.74527 -1.57555 -5
      vertex 3.08972 -1.2509 -5
    endloop
  endfacet
  facet normal 0 0 -1
    outer loop
      vertex 3.16351 -1.05037 -5
      vertex 4.83647 -1.26828 -5
      vertex 4.74527 -1.57555 -5
    endloop
  endfacet
  facet normal -0 0 -1
    outer loop
      vertex 4.19043 -2.72768 -5
      vertex 4.00706 -2.99055 -5
      vertex 2.67137 -1.99371 -5
    endloop
  endfacet
  facet normal 0 -0 -1
    outer loop
      vertex 3.30595 -0.42627 -5
      vertex 4.95894 -0.639389 -5
      vertex 3.27185 -0.637207 -5
    endloop
  endfacet
  facet normal 0 0 -1
    outer loop
      vertex 4.90779 -0.955795 -5
      vertex 3.2243 -0.84552 -5
      vertex 3.27185 -0.637207 -5
    endloop
  endfacet
  facet normal -0 0 -1
    outer loop
      vertex 4.95894 -0.639389 -5
      vertex 4.90779 -0.955795 -5
      vertex 3.27185 -0.637207 -5
    endloop
  endfacet
  facet normal -0 0 -1
    outer loop
      vertex 4.90779 -0.955795 -5
      vertex 4.83647 -1.26828 -5
      vertex 3.2243 -0.84552 -5
    endloop
  endfacet
  facet normal 0 0 -1
    outer loop
      vertex 4.95894 -0.639389 -5
      vertex 3.32648 -0.213577 -5
      vertex 4.98972 -0.320358 -5
    endloop
  endfacet
  facet normal 0 0 -1
    outer loop
      vertex 4.95894 -0.639389 -5
      vertex 3.30595 -0.42627 -5
      vertex 3.32648 -0.213577 -5
    endloop
  endfacet
  facet normal 0 0 -1
    outer loop
      vertex 4.83647 -1.26828 -5
      vertex 3.16351 -1.05037 -5
      vertex 3.2243 -0.84552 -5
    endloop
  endfacet
  facet normal 0 -0 -1
    outer loop
      vertex 3.33333 0 -5
      vertex 4.98972 -0.320358 -5
      vertex 3.32648 -0.213577 -5
    endloop
  endfacet
  facet normal 0 0 -1
    outer loop
      vertex 4.98972 -0.320358 -5
      vertex 3.33333 0 -5
      vertex 5 0 -5
    endloop
  endfacet
  facet normal 0 0 -1
    outer loop
      vertex 5 0 -5
      vertex 3.33333 5 -5
      vertex 5 5 -5
    endloop
  endfacet
  facet normal 0 0 -1
    outer loop
      vertex 2.31268 -4.433 -5
      vertex 1.34927 -3.04805 -5
      vertex 1.54179 -2.95534 -5
    endloop
  endfacet
  facet normal 0 0 -1
    outer loop
      vertex 0.480103 -4.9769 -5
      vertex 0.320068 -3.31793 -5
      vertex 0.531998 -3.29062 -5
    endloop
  endfacet
  facet normal 0 0 -1
    outer loop
      vertex 5 0 -5
      vertex 3.33333 0 -5
      vertex 3.33333 5 -5
    endloop
  endfacet
  facet normal 0 0 -1
    outer loop
      vertex 1.15121 -3.12823 -5
      vertex 2.02391 -4.57207 -5
      vertex 1.72682 -4.69235 -5
    endloop
  endfacet
  facet normal 0 0 -1
    outer loop
      vertex 4.50484 -2.16943 -5
      vertex 3.00322 -1.44629 -5
      vertex 3.08972 -1.2509 -5
    endloop
  endfacet
  facet normal -0 0 -1
    outer loop
      vertex 2.31268 -4.433 -5
      vertex 2.02391 -4.57207 -5
      vertex 1.34927 -3.04805 -5
    endloop
  endfacet
  facet normal 0 0 -1
    outer loop
      vertex 4.35658 -2.4536 -5
      vertex 2.90439 -1.63573 -5
      vertex 3.00322 -1.44629 -5
    endloop
  endfacet
  facet normal 0 -0 -1
    outer loop
      vertex 2.79362 -1.81845 -5
      vertex 4.19043 -2.72768 -5
      vertex 2.67137 -1.99371 -5
    endloop
  endfacet
  facet normal 0 0 -1
    outer loop
      vertex 2.67137 -1.99371 -5
      vertex 4.00706 -2.99055 -5
      vertex 3.80722 -3.24115 -5
    endloop
  endfacet
  facet normal 0 0 -1
    outer loop
      vertex 3.80722 -3.24115 -5
      vertex 2.53815 -2.16077 -5
      vertex 2.67137 -1.99371 -5
    endloop
  endfacet
  facet normal 0 0 -1
    outer loop
      vertex 2.241 -2.46761 -5
      vertex 2.39449 -2.31895 -5
      vertex 3.59174 -3.47842 -5
    endloop
  endfacet
  facet normal 0 0 -1
    outer loop
      vertex 2.39449 -2.31895 -5
      vertex 3.80722 -3.24115 -5
      vertex 3.59174 -3.47842 -5
    endloop
  endfacet
  facet normal 0 0 -1
    outer loop
      vertex 3.3615 -3.7014 -5
      vertex 2.241 -2.46761 -5
      vertex 3.59174 -3.47842 -5
    endloop
  endfacet
  facet normal 0 -0 -1
    outer loop
      vertex 2.07829 -2.60611 -5
      vertex 3.11745 -3.90916 -5
      vertex 1.90704 -2.73392 -5
    endloop
  endfacet
  facet normal 0 0 -1
    outer loop
      vertex 1.90704 -2.73392 -5
      vertex 2.86058 -4.10088 -5
      vertex 2.59195 -4.27573 -5
    endloop
  endfacet
  facet normal 0 0 -1
    outer loop
      vertex 1.54179 -2.95534 -5
      vertex 1.72797 -2.85048 -5
      vertex 2.59195 -4.27573 -5
    endloop
  endfacet
  facet normal 0 0 -1
    outer loop
      vertex 1.72797 -2.85048 -5
      vertex 1.90704 -2.73392 -5
      vertex 2.59195 -4.27573 -5
    endloop
  endfacet
  facet normal 0 0 -1
    outer loop
      vertex 2.31268 -4.433 -5
      vertex 1.54179 -2.95534 -5
      vertex 2.59195 -4.27573 -5
    endloop
  endfacet
  facet normal 0 -0 -1
    outer loop
      vertex 1.34927 -3.04805 -5
      vertex 2.02391 -4.57207 -5
      vertex 1.15121 -3.12823 -5
    endloop
  endfacet
  facet normal 0 0 -1
    outer loop
      vertex 1.42262 -4.79335 -5
      vertex 1.15121 -3.12823 -5
      vertex 1.72682 -4.69235 -5
    endloop
  endfacet
  facet normal 0 0 -1
    outer loop
      vertex 1.42262 -4.79335 -5
      vertex 0.94841 -3.19557 -5
      vertex 1.15121 -3.12823 -5
    endloop
  endfacet
  facet normal 0 0 -1
    outer loop
      vertex 1.42262 -4.79335 -5
      vertex 0.74173 -3.24977 -5
      vertex 0.94841 -3.19557 -5
    endloop
  endfacet
  facet normal -0 0 -1
    outer loop
      vertex 1.42262 -4.79335 -5
      vertex 1.11259 -4.87465 -5
      vertex 0.74173 -3.24977 -5
    endloop
  endfacet
  facet normal 0 -0 -1
    outer loop
      vertex 0.74173 -3.24977 -5
      vertex 1.11259 -4.87465 -5
      vertex 0.531998 -3.29062 -5
    endloop
  endfacet
  facet normal 0 0 -1
    outer loop
      vertex 0.531998 -3.29062 -5
      vertex 1.11259 -4.87465 -5
      vertex 0.797989 -4.93591 -5
    endloop
  endfacet
  facet normal 0 0 -1
    outer loop
      vertex 0.480103 -4.9769 -5
      vertex 0.531998 -3.29062 -5
      vertex 0.797989 -4.93591 -5
    endloop
  endfacet
  facet normal 0 0 -1
    outer loop
      vertex 0.480103 -4.9769 -5
      vertex 0.106827 -3.33163 -5
      vertex 0.320068 -3.31793 -5
    endloop
  endfacet
  facet normal -0 0 -1
    outer loop
      vertex 0.480103 -4.9769 -5
      vertex 0.160248 -4.99744 -5
      vertex 0.106827 -3.33163 -5
    endloop
  endfacet
  facet normal -0 0 -1
    outer loop
      vertex 0.106827 -3.33163 -5
      vertex -0.160263 -4.99744 -5
      vertex -0.106842 -3.33163 -5
    endloop
  endfacet
  facet normal 0 0 -1
    outer loop
      vertex -0.480118 -4.9769 -5
      vertex -0.532013 -3.29062 -5
      vertex -0.320084 -3.31793 -5
    endloop
  endfacet
  facet normal 0 0 -1
    outer loop
      vertex -0.798004 -4.93591 -5
      vertex -1.11261 -4.87465 -5
      vertex -0.532013 -3.29062 -5
    endloop
  endfacet
  facet normal 0 -0 -1
    outer loop
      vertex -1.15123 -3.12823 -5
      vertex -0.948425 -3.19557 -5
      vertex -1.42264 -4.79335 -5
    endloop
  endfacet
  facet normal 0 -0 -1
    outer loop
      vertex -1.34929 -3.04805 -5
      vertex -1.15123 -3.12823 -5
      vertex -2.02393 -4.57207 -5
    endloop
  endfacet
  facet normal 0 0 -1
    outer loop
      vertex -1.54181 -2.95534 -5
      vertex -2.3127 -4.433 -5
      vertex -2.59196 -4.27573 -5
    endloop
  endfacet
  facet normal 0 0 -1
    outer loop
      vertex -2.59196 -4.27573 -5
      vertex -2.8606 -4.10088 -5
      vertex -1.90706 -2.73392 -5
    endloop
  endfacet
  facet normal -0 0 -1
    outer loop
      vertex -1.90706 -2.73392 -5
      vertex -3.11746 -3.90916 -5
      vertex -2.07831 -2.60611 -5
    endloop
  endfacet
  facet normal 0 0 -1
    outer loop
      vertex -3.59175 -3.47842 -5
      vertex -2.3945 -2.31895 -5
      vertex -2.24101 -2.46761 -5
    endloop
  endfacet
  facet normal 0 0 -1
    outer loop
      vertex -3.80724 -3.24115 -5
      vertex -2.53816 -2.16077 -5
      vertex -2.3945 -2.31895 -5
    endloop
  endfacet
  facet normal 0 -0 -1
    outer loop
      vertex -2.79364 -1.81845 -5
      vertex -2.67139 -1.99371 -5
      vertex -4.19044 -2.72768 -5
    endloop
  endfacet
  facet normal 0 -0 -1
    outer loop
      vertex -2.9044 -1.63573 -5
      vertex -2.79364 -1.81845 -5
      vertex -4.3566 -2.4536 -5
    endloop
  endfacet
  facet normal 0 0 -1
    outer loop
      vertex -4.50485 -2.16943 -5
      vertex -4.6346 -1.87634 -5
      vertex -3.08974 -1.2509 -5
    endloop
  endfacet
  facet normal -0 0 -1
    outer loop
      vertex -3.00323 -1.44629 -5
      vertex -4.50485 -2.16943 -5
      vertex -3.08974 -1.2509 -5
    endloop
  endfacet
  facet normal 0 0 -1
    outer loop
      vertex -4.74529 -1.57555 -5
      vertex -3.08974 -1.2509 -5
      vertex -4.6346 -1.87634 -5
    endloop
  endfacet
  facet normal 0 0 -1
    outer loop
      vertex -4.74529 -1.57555 -5
      vertex -3.16353 -1.05037 -5
      vertex -3.08974 -1.2509 -5
    endloop
  endfacet
  facet normal 0 0 -1
    outer loop
      vertex -4.74529 -1.57555 -5
      vertex -4.83649 -1.26828 -5
      vertex -3.16353 -1.05037 -5
    endloop
  endfacet
  facet normal -0 0 -1
    outer loop
      vertex -3.16353 -1.05037 -5
      vertex -4.83649 -1.26828 -5
      vertex -3.22432 -0.84552 -5
    endloop
  endfacet
  facet normal 0 0 -1
    outer loop
      vertex -3.22432 -0.84552 -5
      vertex -4.83649 -1.26828 -5
      vertex -4.90781 -0.955795 -5
    endloop
  endfacet
  facet normal 0 -0 -1
    outer loop
      vertex -3.27187 -0.637207 -5
      vertex -3.22432 -0.84552 -5
      vertex -4.90781 -0.955795 -5
    endloop
  endfacet
  facet normal 0 0 -1
    outer loop
      vertex -4.95895 -0.639389 -5
      vertex -3.27187 -0.637207 -5
      vertex -4.90781 -0.955795 -5
    endloop
  endfacet
  facet normal 0 -0 -1
    outer loop
      vertex -3.32649 -0.213577 -5
      vertex -3.30597 -0.42627 -5
      vertex -4.95895 -0.639389 -5
    endloop
  endfacet
  facet normal 0 0 -1
    outer loop
      vertex -4.98973 -0.320358 -5
      vertex -3.32649 -0.213577 -5
      vertex -4.95895 -0.639389 -5
    endloop
  endfacet
  facet normal 0 0 -1
    outer loop
      vertex -4.98973 -0.320358 -5
      vertex -5 0 -5
      vertex -3.32649 -0.213577 -5
    endloop
  endfacet
  facet normal 0 0 -1
    outer loop
      vertex -3.32649 -0.213577 -5
      vertex -5 0 -5
      vertex -3.33334 0 -5
    endloop
  endfacet
  facet normal 0 0 -1
    outer loop
      vertex -3.33334 0 -5
      vertex -5 0 -5
      vertex -5 5 -5
    endloop
  endfacet
  facet normal -0 -0 -1
    outer loop
      vertex -3.33334 5 -5
      vertex -3.33334 0 -5
      vertex -5 5 -5
    endloop
  endfacet
  facet normal 0 0 -1
    outer loop
      vertex -4.95895 -0.639389 -5
      vertex -3.30597 -0.42627 -5
      vertex -3.27187 -0.637207 -5
    endloop
  endfacet
  facet normal 0 0 -1
    outer loop
      vertex -3.00323 -1.44629 -5
      vertex -4.3566 -2.4536 -5
      vertex -4.50485 -2.16943 -5
    endloop
  endfacet
  facet normal 0 -0 -1
    outer loop
      vertex -3.00323 -1.44629 -5
      vertex -2.9044 -1.63573 -5
      vertex -4.3566 -2.4536 -5
    endloop
  endfacet
  facet normal 0 0 -1
    outer loop
      vertex -4.3566 -2.4536 -5
      vertex -2.79364 -1.81845 -5
      vertex -4.19044 -2.72768 -5
    endloop
  endfacet
  facet normal 0 0 -1
    outer loop
      vertex -4.19044 -2.72768 -5
      vertex -2.67139 -1.99371 -5
      vertex -4.00708 -2.99055 -5
    endloop
  endfacet
  facet normal 0 0 -1
    outer loop
      vertex -4.00708 -2.99055 -5
      vertex -2.67139 -1.99371 -5
      vertex -3.80724 -3.24115 -5
    endloop
  endfacet
  facet normal 0 0 -1
    outer loop
      vertex -3.80724 -3.24115 -5
      vertex -2.67139 -1.99371 -5
      vertex -2.53816 -2.16077 -5
    endloop
  endfacet
  facet normal 0 0 -1
    outer loop
      vertex -3.59175 -3.47842 -5
      vertex -3.80724 -3.24115 -5
      vertex -2.3945 -2.31895 -5
    endloop
  endfacet
  facet normal 0 0 -1
    outer loop
      vertex -3.36151 -3.7014 -5
      vertex -3.59175 -3.47842 -5
      vertex -2.24101 -2.46761 -5
    endloop
  endfacet
  facet normal 0 0 -1
    outer loop
      vertex -3.11746 -3.90916 -5
      vertex -3.36151 -3.7014 -5
      vertex -2.24101 -2.46761 -5
    endloop
  endfacet
  facet normal -0 0 -1
    outer loop
      vertex -2.07831 -2.60611 -5
      vertex -3.11746 -3.90916 -5
      vertex -2.24101 -2.46761 -5
    endloop
  endfacet
  facet normal 0 0 -1
    outer loop
      vertex -1.90706 -2.73392 -5
      vertex -2.8606 -4.10088 -5
      vertex -3.11746 -3.90916 -5
    endloop
  endfacet
  facet normal -0 0 -1
    outer loop
      vertex -1.72798 -2.85048 -5
      vertex -2.59196 -4.27573 -5
      vertex -1.90706 -2.73392 -5
    endloop
  endfacet
  facet normal 0 -0 -1
    outer loop
      vertex -1.72798 -2.85048 -5
      vertex -1.54181 -2.95534 -5
      vertex -2.59196 -4.27573 -5
    endloop
  endfacet
  facet normal 0 -0 -1
    outer loop
      vertex -1.54181 -2.95534 -5
      vertex -1.34929 -3.04805 -5
      vertex -2.3127 -4.433 -5
    endloop
  endfacet
  facet normal 0 0 -1
    outer loop
      vertex -2.3127 -4.433 -5
      vertex -1.34929 -3.04805 -5
      vertex -2.02393 -4.57207 -5
    endloop
  endfacet
  facet normal 0 0 -1
    outer loop
      vertex -2.02393 -4.57207 -5
      vertex -1.15123 -3.12823 -5
      vertex -1.72684 -4.69235 -5
    endloop
  endfacet
  facet normal 0 0 -1
    outer loop
      vertex -1.72684 -4.69235 -5
      vertex -1.15123 -3.12823 -5
      vertex -1.42264 -4.79335 -5
    endloop
  endfacet
  facet normal 0 0 -1
    outer loop
      vertex -1.42264 -4.79335 -5
      vertex -0.948425 -3.19557 -5
      vertex -0.741745 -3.24977 -5
    endloop
  endfacet
  facet normal 0 0 -1
    outer loop
      vertex -1.11261 -4.87465 -5
      vertex -1.42264 -4.79335 -5
      vertex -0.741745 -3.24977 -5
    endloop
  endfacet
  facet normal -0 0 -1
    outer loop
      vertex -0.532013 -3.29062 -5
      vertex -1.11261 -4.87465 -5
      vertex -0.741745 -3.24977 -5
    endloop
  endfacet
  facet normal 0 0 -1
    outer loop
      vertex -0.480118 -4.9769 -5
      vertex -0.798004 -4.93591 -5
      vertex -0.532013 -3.29062 -5
    endloop
  endfacet
  facet normal -0 0 -1
    outer loop
      vertex -0.106842 -3.33163 -5
      vertex -0.480118 -4.9769 -5
      vertex -0.320084 -3.31793 -5
    endloop
  endfacet
  facet normal 0 0 -1
    outer loop
      vertex -0.106842 -3.33163 -5
      vertex -0.160263 -4.99744 -5
      vertex -0.480118 -4.9769 -5
    endloop
  endfacet
  facet normal 0 -0 -1
    outer loop
      vertex 0.106827 -3.33163 -5
      vertex 0.160248 -4.99744 -5
      vertex -0.160263 -4.99744 -5
    endloop
  endfacet
  facet normal -0 0 1
    outer loop
      vertex 2.07829 -2.60611 5
      vertex 3.11745 -3.90916 5
      vertex 2.241 -2.46761 5
    endloop
  endfacet
  facet normal 0 0 1
    outer loop
      vertex 2.241 -2.46761 5
      vertex 3.11745 -3.90916 5
      vertex 3.3615 -3.7014 5
    endloop
  endfacet
  facet normal 0 0 1
    outer loop
      vertex 2.53815 -2.16077 5
      vertex 2.39449 -2.31895 5
      vertex 3.80722 -3.24115 5
    endloop
  endfacet
  facet normal 0 0 1
    outer loop
      vertex 1.90704 -2.73392 5
      vertex 2.86058 -4.10088 5
      vertex 3.11745 -3.90916 5
    endloop
  endfacet
  facet normal 0 0 1
    outer loop
      vertex 3.00322 -1.44629 5
      vertex 4.35658 -2.4536 5
      vertex 4.50484 -2.16943 5
    endloop
  endfacet
  facet normal 0 0 1
    outer loop
      vertex 2.90439 -1.63573 5
      vertex 2.79362 -1.81845 5
      vertex 4.35658 -2.4536 5
    endloop
  endfacet
  facet normal 0 0 1
    outer loop
      vertex 2.79362 -1.81845 5
      vertex 4.19043 -2.72768 5
      vertex 4.35658 -2.4536 5
    endloop
  endfacet
  facet normal 0 0 1
    outer loop
      vertex 3.08972 -1.2509 5
      vertex 4.50484 -2.16943 5
      vertex 4.63458 -1.87634 5
    endloop
  endfacet
  facet normal 0 0 1
    outer loop
      vertex 3.08972 -1.2509 5
      vertex 4.63458 -1.87634 5
      vertex 4.74527 -1.57555 5
    endloop
  endfacet
  facet normal -0 0 1
    outer loop
      vertex 3.08972 -1.2509 5
      vertex 4.74527 -1.57555 5
      vertex 3.16351 -1.05037 5
    endloop
  endfacet
  facet normal 0 -0 1
    outer loop
      vertex 4.74527 -1.57555 5
      vertex 4.83647 -1.26828 5
      vertex 3.16351 -1.05037 5
    endloop
  endfacet
  facet normal 0 0 1
    outer loop
      vertex 2.67137 -1.99371 5
      vertex 4.00706 -2.99055 5
      vertex 4.19043 -2.72768 5
    endloop
  endfacet
  facet normal -0 0 1
    outer loop
      vertex 3.27185 -0.637207 5
      vertex 4.95894 -0.639389 5
      vertex 3.30595 -0.42627 5
    endloop
  endfacet
  facet normal 0 0 1
    outer loop
      vertex 3.27185 -0.637207 5
      vertex 3.2243 -0.84552 5
      vertex 4.90779 -0.955795 5
    endloop
  endfacet
  facet normal 0 0 1
    outer loop
      vertex 3.27185 -0.637207 5
      vertex 4.90779 -0.955795 5
      vertex 4.95894 -0.639389 5
    endloop
  endfacet
  facet normal 0 0 1
    outer loop
      vertex 3.2243 -0.84552 5
      vertex 4.83647 -1.26828 5
      vertex 4.90779 -0.955795 5
    endloop
  endfacet
  facet normal 0 0 1
    outer loop
      vertex 4.98972 -0.320358 5
      vertex 3.32648 -0.213577 5
      vertex 4.95894 -0.639389 5
    endloop
  endfacet
  facet normal 0 0 1
    outer loop
      vertex 3.32648 -0.213577 5
      vertex 3.30595 -0.42627 5
      vertex 4.95894 -0.639389 5
    endloop
  endfacet
  facet normal 0 0 1
    outer loop
      vertex 3.2243 -0.84552 5
      vertex 3.16351 -1.05037 5
      vertex 4.83647 -1.26828 5
    endloop
  endfacet
  facet normal -0 0 1
    outer loop
      vertex 3.32648 -0.213577 5
      vertex 4.98972 -0.320358 5
      vertex 3.33333 0 5
    endloop
  endfacet
  facet normal 0 0 1
    outer loop
      vertex 5 0 5
      vertex 3.33333 0 5
      vertex 4.98972 -0.320358 5
    endloop
  endfacet
  facet normal 0 0 1
    outer loop
      vertex 5 5 5
      vertex 3.33333 5 5
      vertex 5 0 5
    endloop
  endfacet
  facet normal 0 0 1
    outer loop
      vertex 1.54179 -2.95534 5
      vertex 1.34927 -3.04805 5
      vertex 2.31268 -4.433 5
    endloop
  endfacet
  facet normal 0 0 1
    outer loop
      vertex 0.531998 -3.29062 5
      vertex 0.320068 -3.31793 5
      vertex 0.480103 -4.9769 5
    endloop
  endfacet
  facet normal 0 0 1
    outer loop
      vertex 3.33333 5 5
      vertex 3.33333 0 5
      vertex 5 0 5
    endloop
  endfacet
  facet normal 0 -0 1
    outer loop
      vertex 1.72682 -4.69235 5
      vertex 2.02391 -4.57207 5
      vertex 1.15121 -3.12823 5
    endloop
  endfacet
  facet normal 0 0 1
    outer loop
      vertex 3.08972 -1.2509 5
      vertex 3.00322 -1.44629 5
      vertex 4.50484 -2.16943 5
    endloop
  endfacet
  facet normal 0 0 1
    outer loop
      vertex 1.34927 -3.04805 5
      vertex 2.02391 -4.57207 5
      vertex 2.31268 -4.433 5
    endloop
  endfacet
  facet normal 0 0 1
    outer loop
      vertex 3.00322 -1.44629 5
      vertex 2.90439 -1.63573 5
      vertex 4.35658 -2.4536 5
    endloop
  endfacet
  facet normal -0 0 1
    outer loop
      vertex 2.67137 -1.99371 5
      vertex 4.19043 -2.72768 5
      vertex 2.79362 -1.81845 5
    endloop
  endfacet
  facet normal 0 -0 1
    outer loop
      vertex 3.80722 -3.24115 5
      vertex 4.00706 -2.99055 5
      vertex 2.67137 -1.99371 5
    endloop
  endfacet
  facet normal 0 0 1
    outer loop
      vertex 2.67137 -1.99371 5
      vertex 2.53815 -2.16077 5
      vertex 3.80722 -3.24115 5
    endloop
  endfacet
  facet normal 0 0 1
    outer loop
      vertex 3.59174 -3.47842 5
      vertex 2.39449 -2.31895 5
      vertex 2.241 -2.46761 5
    endloop
  endfacet
  facet normal 0 -0 1
    outer loop
      vertex 3.59174 -3.47842 5
      vertex 3.80722 -3.24115 5
      vertex 2.39449 -2.31895 5
    endloop
  endfacet
  facet normal 0 0 1
    outer loop
      vertex 3.59174 -3.47842 5
      vertex 2.241 -2.46761 5
      vertex 3.3615 -3.7014 5
    endloop
  endfacet
  facet normal -0 0 1
    outer loop
      vertex 1.90704 -2.73392 5
      vertex 3.11745 -3.90916 5
      vertex 2.07829 -2.60611 5
    endloop
  endfacet
  facet normal 0 -0 1
    outer loop
      vertex 2.59195 -4.27573 5
      vertex 2.86058 -4.10088 5
      vertex 1.90704 -2.73392 5
    endloop
  endfacet
  facet normal 0 0 1
    outer loop
      vertex 2.59195 -4.27573 5
      vertex 1.72797 -2.85048 5
      vertex 1.54179 -2.95534 5
    endloop
  endfacet
  facet normal 0 0 1
    outer loop
      vertex 2.59195 -4.27573 5
      vertex 1.90704 -2.73392 5
      vertex 1.72797 -2.85048 5
    endloop
  endfacet
  facet normal 0 0 1
    outer loop
      vertex 2.59195 -4.27573 5
      vertex 1.54179 -2.95534 5
      vertex 2.31268 -4.433 5
    endloop
  endfacet
  facet normal -0 0 1
    outer loop
      vertex 1.15121 -3.12823 5
      vertex 2.02391 -4.57207 5
      vertex 1.34927 -3.04805 5
    endloop
  endfacet
  facet normal 0 0 1
    outer loop
      vertex 1.72682 -4.69235 5
      vertex 1.15121 -3.12823 5
      vertex 1.42262 -4.79335 5
    endloop
  endfacet
  facet normal 0 0 1
    outer loop
      vertex 1.15121 -3.12823 5
      vertex 0.94841 -3.19557 5
      vertex 1.42262 -4.79335 5
    endloop
  endfacet
  facet normal 0 0 1
    outer loop
      vertex 0.94841 -3.19557 5
      vertex 0.74173 -3.24977 5
      vertex 1.42262 -4.79335 5
    endloop
  endfacet
  facet normal 0 0 1
    outer loop
      vertex 0.74173 -3.24977 5
      vertex 1.11259 -4.87465 5
      vertex 1.42262 -4.79335 5
    endloop
  endfacet
  facet normal -0 0 1
    outer loop
      vertex 0.531998 -3.29062 5
      vertex 1.11259 -4.87465 5
      vertex 0.74173 -3.24977 5
    endloop
  endfacet
  facet normal 0 -0 1
    outer loop
      vertex 0.797989 -4.93591 5
      vertex 1.11259 -4.87465 5
      vertex 0.531998 -3.29062 5
    endloop
  endfacet
  facet normal 0 0 1
    outer loop
      vertex 0.797989 -4.93591 5
      vertex 0.531998 -3.29062 5
      vertex 0.480103 -4.9769 5
    endloop
  endfacet
  facet normal 0 0 1
    outer loop
      vertex 0.320068 -3.31793 5
      vertex 0.106827 -3.33163 5
      vertex 0.480103 -4.9769 5
    endloop
  endfacet
  facet normal 0 0 1
    outer loop
      vertex 0.106827 -3.33163 5
      vertex 0.160248 -4.99744 5
      vertex 0.480103 -4.9769 5
    endloop
  endfacet
  facet normal -0 0 1
    outer loop
      vertex -0.106842 -3.33163 5
      vertex -0.160263 -4.99744 5
      vertex 0.106827 -3.33163 5
    endloop
  endfacet
  facet normal 0 0 1
    outer loop
      vertex -0.320084 -3.31793 5
      vertex -0.532013 -3.29062 5
      vertex -0.480118 -4.9769 5
    endloop
  endfacet
  facet normal 0 0 1
    outer loop
      vertex -0.532013 -3.29062 5
      vertex -1.11261 -4.87465 5
      vertex -0.798004 -4.93591 5
    endloop
  endfacet
  facet normal 0 0 1
    outer loop
      vertex -1.42264 -4.79335 5
      vertex -0.948425 -3.19557 5
      vertex -1.15123 -3.12823 5
    endloop
  endfacet
  facet normal 0 0 1
    outer loop
      vertex -2.02393 -4.57207 5
      vertex -1.15123 -3.12823 5
      vertex -1.34929 -3.04805 5
    endloop
  endfacet
  facet normal -0 0 1
    outer loop
      vertex -2.59196 -4.27573 5
      vertex -2.3127 -4.433 5
      vertex -1.54181 -2.95534 5
    endloop
  endfacet
  facet normal 0 0 1
    outer loop
      vertex -1.90706 -2.73392 5
      vertex -2.8606 -4.10088 5
      vertex -2.59196 -4.27573 5
    endloop
  endfacet
  facet normal 0 0 1
    outer loop
      vertex -2.07831 -2.60611 5
      vertex -3.11746 -3.90916 5
      vertex -1.90706 -2.73392 5
    endloop
  endfacet
  facet normal 0 0 1
    outer loop
      vertex -2.24101 -2.46761 5
      vertex -2.3945 -2.31895 5
      vertex -3.59175 -3.47842 5
    endloop
  endfacet
  facet normal 0 0 1
    outer loop
      vertex -2.3945 -2.31895 5
      vertex -2.53816 -2.16077 5
      vertex -3.80724 -3.24115 5
    endloop
  endfacet
  facet normal 0 0 1
    outer loop
      vertex -4.19044 -2.72768 5
      vertex -2.67139 -1.99371 5
      vertex -2.79364 -1.81845 5
    endloop
  endfacet
  facet normal 0 0 1
    outer loop
      vertex -4.3566 -2.4536 5
      vertex -2.79364 -1.81845 5
      vertex -2.9044 -1.63573 5
    endloop
  endfacet
  facet normal 0 0 1
    outer loop
      vertex -3.08974 -1.2509 5
      vertex -4.6346 -1.87634 5
      vertex -4.50485 -2.16943 5
    endloop
  endfacet
  facet normal 0 0 1
    outer loop
      vertex -3.08974 -1.2509 5
      vertex -4.50485 -2.16943 5
      vertex -3.00323 -1.44629 5
    endloop
  endfacet
  facet normal 0 -0 1
    outer loop
      vertex -4.6346 -1.87634 5
      vertex -3.08974 -1.2509 5
      vertex -4.74529 -1.57555 5
    endloop
  endfacet
  facet normal 0 0 1
    outer loop
      vertex -3.08974 -1.2509 5
      vertex -3.16353 -1.05037 5
      vertex -4.74529 -1.57555 5
    endloop
  endfacet
  facet normal 0 0 1
    outer loop
      vertex -3.16353 -1.05037 5
      vertex -4.83649 -1.26828 5
      vertex -4.74529 -1.57555 5
    endloop
  endfacet
  facet normal 0 0 1
    outer loop
      vertex -3.22432 -0.84552 5
      vertex -4.83649 -1.26828 5
      vertex -3.16353 -1.05037 5
    endloop
  endfacet
  facet normal -0 0 1
    outer loop
      vertex -4.90781 -0.955795 5
      vertex -4.83649 -1.26828 5
      vertex -3.22432 -0.84552 5
    endloop
  endfacet
  facet normal 0 0 1
    outer loop
      vertex -4.90781 -0.955795 5
      vertex -3.22432 -0.84552 5
      vertex -3.27187 -0.637207 5
    endloop
  endfacet
  facet normal 0 -0 1
    outer loop
      vertex -4.90781 -0.955795 5
      vertex -3.27187 -0.637207 5
      vertex -4.95895 -0.639389 5
    endloop
  endfacet
  facet normal 0 0 1
    outer loop
      vertex -4.95895 -0.639389 5
      vertex -3.30597 -0.42627 5
      vertex -3.32649 -0.213577 5
    endloop
  endfacet
  facet normal 0 -0 1
    outer loop
      vertex -4.95895 -0.639389 5
      vertex -3.32649 -0.213577 5
      vertex -4.98973 -0.320358 5
    endloop
  endfacet
  facet normal 0 0 1
    outer loop
      vertex -3.32649 -0.213577 5
      vertex -5 0 5
      vertex -4.98973 -0.320358 5
    endloop
  endfacet
  facet normal 0 0 1
    outer loop
      vertex -3.33334 0 5
      vertex -5 0 5
      vertex -3.32649 -0.213577 5
    endloop
  endfacet
  facet normal 0 0 1
    outer loop
      vertex -5 5 5
      vertex -5 0 5
      vertex -3.33334 0 5
    endloop
  endfacet
  facet normal -0 0 1
    outer loop
      vertex -5 5 5
      vertex -3.33334 0 5
      vertex -3.33334 5 5
    endloop
  endfacet
  facet normal 0 0 1
    outer loop
      vertex -3.27187 -0.637207 5
      vertex -3.30597 -0.42627 5
      vertex -4.95895 -0.639389 5
    endloop
  endfacet
  facet normal -0 0 1
    outer loop
      vertex -4.50485 -2.16943 5
      vertex -4.3566 -2.4536 5
      vertex -3.00323 -1.44629 5
    endloop
  endfacet
  facet normal 0 0 1
    outer loop
      vertex -4.3566 -2.4536 5
      vertex -2.9044 -1.63573 5
      vertex -3.00323 -1.44629 5
    endloop
  endfacet
  facet normal 0 -0 1
    outer loop
      vertex -4.19044 -2.72768 5
      vertex -2.79364 -1.81845 5
      vertex -4.3566 -2.4536 5
    endloop
  endfacet
  facet normal 0 -0 1
    outer loop
      vertex -4.00708 -2.99055 5
      vertex -2.67139 -1.99371 5
      vertex -4.19044 -2.72768 5
    endloop
  endfacet
  facet normal 0 -0 1
    outer loop
      vertex -3.80724 -3.24115 5
      vertex -2.67139 -1.99371 5
      vertex -4.00708 -2.99055 5
    endloop
  endfacet
  facet normal 0 0 1
    outer loop
      vertex -2.53816 -2.16077 5
      vertex -2.67139 -1.99371 5
      vertex -3.80724 -3.24115 5
    endloop
  endfacet
  facet normal 0 0 1
    outer loop
      vertex -2.3945 -2.31895 5
      vertex -3.80724 -3.24115 5
      vertex -3.59175 -3.47842 5
    endloop
  endfacet
  facet normal 0 0 1
    outer loop
      vertex -2.24101 -2.46761 5
      vertex -3.59175 -3.47842 5
      vertex -3.36151 -3.7014 5
    endloop
  endfacet
  facet normal 0 0 1
    outer loop
      vertex -2.24101 -2.46761 5
      vertex -3.36151 -3.7014 5
      vertex -3.11746 -3.90916 5
    endloop
  endfacet
  facet normal 0 0 1
    outer loop
      vertex -2.24101 -2.46761 5
      vertex -3.11746 -3.90916 5
      vertex -2.07831 -2.60611 5
    endloop
  endfacet
  facet normal -0 0 1
    outer loop
      vertex -3.11746 -3.90916 5
      vertex -2.8606 -4.10088 5
      vertex -1.90706 -2.73392 5
    endloop
  endfacet
  facet normal 0 0 1
    outer loop
      vertex -1.90706 -2.73392 5
      vertex -2.59196 -4.27573 5
      vertex -1.72798 -2.85048 5
    endloop
  endfacet
  facet normal 0 0 1
    outer loop
      vertex -2.59196 -4.27573 5
      vertex -1.54181 -2.95534 5
      vertex -1.72798 -2.85048 5
    endloop
  endfacet
  facet normal 0 0 1
    outer loop
      vertex -2.3127 -4.433 5
      vertex -1.34929 -3.04805 5
      vertex -1.54181 -2.95534 5
    endloop
  endfacet
  facet normal 0 -0 1
    outer loop
      vertex -2.02393 -4.57207 5
      vertex -1.34929 -3.04805 5
      vertex -2.3127 -4.433 5
    endloop
  endfacet
  facet normal 0 -0 1
    outer loop
      vertex -1.72684 -4.69235 5
      vertex -1.15123 -3.12823 5
      vertex -2.02393 -4.57207 5
    endloop
  endfacet
  facet normal 0 -0 1
    outer loop
      vertex -1.42264 -4.79335 5
      vertex -1.15123 -3.12823 5
      vertex -1.72684 -4.69235 5
    endloop
  endfacet
  facet normal 0 0 1
    outer loop
      vertex -0.741745 -3.24977 5
      vertex -0.948425 -3.19557 5
      vertex -1.42264 -4.79335 5
    endloop
  endfacet
  facet normal 0 0 1
    outer loop
      vertex -0.741745 -3.24977 5
      vertex -1.42264 -4.79335 5
      vertex -1.11261 -4.87465 5
    endloop
  endfacet
  facet normal 0 0 1
    outer loop
      vertex -0.741745 -3.24977 5
      vertex -1.11261 -4.87465 5
      vertex -0.532013 -3.29062 5
    endloop
  endfacet
  facet normal 0 0 1
    outer loop
      vertex -0.532013 -3.29062 5
      vertex -0.798004 -4.93591 5
      vertex -0.480118 -4.9769 5
    endloop
  endfacet
  facet normal 0 0 1
    outer loop
      vertex -0.320084 -3.31793 5
      vertex -0.480118 -4.9769 5
      vertex -0.106842 -3.33163 5
    endloop
  endfacet
  facet normal -0 0 1
    outer loop
      vertex -0.480118 -4.9769 5
      vertex -0.160263 -4.99744 5
      vertex -0.106842 -3.33163 5
    endloop
  endfacet
  facet normal 0 0 1
    outer loop
      vertex -0.160263 -4.99744 5
      vertex 0.160248 -4.99744 5
      vertex 0.106827 -3.33163 5
    endloop
  endfacet
  facet normal 0.127887 -0.991789 0
    outer loop
      vertex 0.797989 -4.93591 -5
      vertex 0.480103 -4.9769 5
      vertex 0.480103 -4.9769 -5
    endloop
  endfacet
  facet normal 0.127887 -0.991789 0
    outer loop
      vertex 0.797989 -4.93591 -5
      vertex 0.797989 -4.93591 5
      vertex 0.480103 -4.9769 5
    endloop
  endfacet
  facet normal 0.191133 -0.981564 0
    outer loop
      vertex 1.11259 -4.87465 -5
      vertex 0.797989 -4.93591 5
      vertex 0.797989 -4.93591 -5
    endloop
  endfacet
  facet normal 0.191133 -0.981564 0
    outer loop
      vertex 1.11259 -4.87465 -5
      vertex 1.11259 -4.87465 5
      vertex 0.797989 -4.93591 5
    endloop
  endfacet
  facet normal 0.253656 -0.967294 0
    outer loop
      vertex 1.42262 -4.79335 -5
      vertex 1.11259 -4.87465 5
      vertex 1.11259 -4.87465 -5
    endloop
  endfacet
  facet normal 0.253656 -0.967294 0
    outer loop
      vertex 1.42262 -4.79335 -5
      vertex 1.42262 -4.79335 5
      vertex 1.11259 -4.87465 5
    endloop
  endfacet
  facet normal 0.315104 -0.949057 0
    outer loop
      vertex 1.72682 -4.69235 -5
      vertex 1.42262 -4.79335 5
      vertex 1.42262 -4.79335 -5
    endloop
  endfacet
  facet normal 0.315104 -0.949057 0
    outer loop
      vertex 1.72682 -4.69235 -5
      vertex 1.72682 -4.69235 5
      vertex 1.42262 -4.79335 5
    endloop
  endfacet
  facet normal 0.375271 -0.926915 0
    outer loop
      vertex 2.02391 -4.57207 -5
      vertex 1.72682 -4.69235 5
      vertex 1.72682 -4.69235 -5
    endloop
  endfacet
  facet normal 0.375271 -0.926915 0
    outer loop
      vertex 2.02391 -4.57207 -5
      vertex 2.02391 -4.57207 5
      vertex 1.72682 -4.69235 5
    endloop
  endfacet
  facet normal 0.433898 -0.900962 0
    outer loop
      vertex 2.31268 -4.433 -5
      vertex 2.02391 -4.57207 5
      vertex 2.02391 -4.57207 -5
    endloop
  endfacet
  facet normal 0.433898 -0.900962 0
    outer loop
      vertex 2.31268 -4.433 -5
      vertex 2.31268 -4.433 5
      vertex 2.02391 -4.57207 5
    endloop
  endfacet
  facet normal 0.490689 -0.871335 0
    outer loop
      vertex 2.59195 -4.27573 -5
      vertex 2.31268 -4.433 5
      vertex 2.31268 -4.433 -5
    endloop
  endfacet
  facet normal 0.490689 -0.871335 0
    outer loop
      vertex 2.59195 -4.27573 -5
      vertex 2.59195 -4.27573 5
      vertex 2.31268 -4.433 5
    endloop
  endfacet
  facet normal 0.545516 -0.838101 0
    outer loop
      vertex 2.86058 -4.10088 -5
      vertex 2.59195 -4.27573 5
      vertex 2.59195 -4.27573 -5
    endloop
  endfacet
  facet normal 0.545516 -0.838101 0
    outer loop
      vertex 2.86058 -4.10088 -5
      vertex 2.86058 -4.10088 5
      vertex 2.59195 -4.27573 5
    endloop
  endfacet
  facet normal 0.598136 -0.801394 0
    outer loop
      vertex 3.11745 -3.90916 -5
      vertex 2.86058 -4.10088 5
      vertex 2.86058 -4.10088 -5
    endloop
  endfacet
  facet normal 0.598136 -0.801394 0
    outer loop
      vertex 3.11745 -3.90916 -5
      vertex 3.11745 -3.90916 5
      vertex 2.86058 -4.10088 5
    endloop
  endfacet
  facet normal 0.648223 -0.76145 0
    outer loop
      vertex 3.3615 -3.7014 -5
      vertex 3.11745 -3.90916 5
      vertex 3.11745 -3.90916 -5
    endloop
  endfacet
  facet normal 0.648223 -0.76145 0
    outer loop
      vertex 3.3615 -3.7014 -5
      vertex 3.3615 -3.7014 5
      vertex 3.11745 -3.90916 5
    endloop
  endfacet
  facet normal 0.695691 -0.718342 0
    outer loop
      vertex 3.59174 -3.47842 -5
      vertex 3.3615 -3.7014 5
      vertex 3.3615 -3.7014 -5
    endloop
  endfacet
  facet normal 0.695691 -0.718342 0
    outer loop
      vertex 3.59174 -3.47842 -5
      vertex 3.59174 -3.47842 5
      vertex 3.3615 -3.7014 5
    endloop
  endfacet
  facet normal 0.740282 -0.672297 0
    outer loop
      vertex 3.80722 -3.24115 -5
      vertex 3.59174 -3.47842 5
      vertex 3.59174 -3.47842 -5
    endloop
  endfacet
  facet normal 0.740282 -0.672297 0
    outer loop
      vertex 3.80722 -3.24115 -5
      vertex 3.80722 -3.24115 5
      vertex 3.59174 -3.47842 5
    endloop
  endfacet
  facet normal 0.781842 -0.623477 0
    outer loop
      vertex 4.00706 -2.99055 -5
      vertex 3.80722 -3.24115 5
      vertex 3.80722 -3.24115 -5
    endloop
  endfacet
  facet normal 0.781842 -0.623477 0
    outer loop
      vertex 4.00706 -2.99055 -5
      vertex 4.00706 -2.99055 5
      vertex 3.80722 -3.24115 5
    endloop
  endfacet
  facet normal 0.820167 -0.572124 0
    outer loop
      vertex 4.19043 -2.72768 -5
      vertex 4.00706 -2.99055 5
      vertex 4.00706 -2.99055 -5
    endloop
  endfacet
  facet normal 0.820167 -0.572124 0
    outer loop
      vertex 4.19043 -2.72768 -5
      vertex 4.19043 -2.72768 5
      vertex 4.00706 -2.99055 5
    endloop
  endfacet
  facet normal 0.855141 -0.518395 0
    outer loop
      vertex 4.35658 -2.4536 -5
      vertex 4.19043 -2.72768 5
      vertex 4.19043 -2.72768 -5
    endloop
  endfacet
  facet normal 0.855141 -0.518395 0
    outer loop
      vertex 4.35658 -2.4536 -5
      vertex 4.35658 -2.4536 5
      vertex 4.19043 -2.72768 5
    endloop
  endfacet
  facet normal 0.886588 -0.46256 0
    outer loop
      vertex 4.50484 -2.16943 -5
      vertex 4.35658 -2.4536 5
      vertex 4.35658 -2.4536 -5
    endloop
  endfacet
  facet normal 0.886588 -0.46256 0
    outer loop
      vertex 4.50484 -2.16943 -5
      vertex 4.50484 -2.16943 5
      vertex 4.35658 -2.4536 5
    endloop
  endfacet
  facet normal 0.914415 -0.404777 0
    outer loop
      vertex 4.63458 -1.87634 -5
      vertex 4.50484 -2.16943 5
      vertex 4.50484 -2.16943 -5
    endloop
  endfacet
  facet normal 0.914415 -0.404777 0
    outer loop
      vertex 4.63458 -1.87634 -5
      vertex 4.63458 -1.87634 5
      vertex 4.50484 -2.16943 5
    endloop
  endfacet
  facet normal 0.938472 -0.345355 0
    outer loop
      vertex 4.74527 -1.57555 -5
      vertex 4.63458 -1.87634 5
      vertex 4.63458 -1.87634 -5
    endloop
  endfacet
  facet normal 0.938472 -0.345355 0
    outer loop
      vertex 4.74527 -1.57555 -5
      vertex 4.74527 -1.57555 5
      vertex 4.63458 -1.87634 5
    endloop
  endfacet
  facet normal 0.958665 -0.284539 0
    outer loop
      vertex 4.83647 -1.26828 -5
      vertex 4.74527 -1.57555 5
      vertex 4.74527 -1.57555 -5
    endloop
  endfacet
  facet normal 0.958665 -0.284539 0
    outer loop
      vertex 4.83647 -1.26828 -5
      vertex 4.83647 -1.26828 5
      vertex 4.74527 -1.57555 5
    endloop
  endfacet
  facet normal 0.97493 -0.222513 0
    outer loop
      vertex 4.90779 -0.955795 -5
      vertex 4.83647 -1.26828 5
      vertex 4.83647 -1.26828 -5
    endloop
  endfacet
  facet normal 0.97493 -0.222513 0
    outer loop
      vertex 4.90779 -0.955795 -5
      vertex 4.90779 -0.955795 5
      vertex 4.83647 -1.26828 5
    endloop
  endfacet
  facet normal 0.987184 -0.159588 0
    outer loop
      vertex 4.95894 -0.639389 -5
      vertex 4.90779 -0.955795 5
      vertex 4.90779 -0.955795 -5
    endloop
  endfacet
  facet normal 0.987184 -0.159588 0
    outer loop
      vertex 4.95894 -0.639389 -5
      vertex 4.95894 -0.639389 5
      vertex 4.90779 -0.955795 5
    endloop
  endfacet
  facet normal 0.995378 -0.0960337 0
    outer loop
      vertex 4.98972 -0.320358 -5
      vertex 4.95894 -0.639389 5
      vertex 4.95894 -0.639389 -5
    endloop
  endfacet
  facet normal 0.995378 -0.0960337 0
    outer loop
      vertex 4.98972 -0.320358 -5
      vertex 4.98972 -0.320358 5
      vertex 4.95894 -0.639389 5
    endloop
  endfacet
  facet normal 0.999486 -0.0320726 0
    outer loop
      vertex 5 0 -5
      vertex 4.98972 -0.320358 5
      vertex 4.98972 -0.320358 -5
    endloop
  endfacet
  facet normal 0.999486 -0.0320726 0
    outer loop
      vertex 5 0 -5
      vertex 5 0 5
      vertex 4.98972 -0.320358 5
    endloop
  endfacet
  facet normal 1 0 0
    outer loop
      vertex 5 5 -5
      vertex 5 0 5
      vertex 5 0 -5
    endloop
  endfacet
  facet normal 1 0 -0
    outer loop
      vertex 5 5 -5
      vertex 5 5 5
      vertex 5 0 5
    endloop
  endfacet
  facet normal 0 1 0
    outer loop
      vertex 3.33333 5 -5
      vertex 5 5 5
      vertex 5 5 -5
    endloop
  endfacet
  facet normal 0 1 0
    outer loop
      vertex 3.33333 5 -5
      vertex 3.33333 5 5
      vertex 5 5 5
    endloop
  endfacet
  facet normal -1 0 0
    outer loop
      vertex 3.33333 0 -5
      vertex 3.33333 5 5
      vertex 3.33333 5 -5
    endloop
  endfacet
  facet normal -1 0 0
    outer loop
      vertex 3.33333 0 -5
      vertex 3.33333 0 5
      vertex 3.33333 5 5
    endloop
  endfacet
  facet normal -0.999486 0.0320563 0
    outer loop
      vertex 3.32648 -0.213577 -5
      vertex 3.33333 0 5
      vertex 3.33333 0 -5
    endloop
  endfacet
  facet normal -0.999486 0.0320563 0
    outer loop
      vertex 3.32648 -0.213577 -5
      vertex 3.32648 -0.213577 5
      vertex 3.33333 0 5
    endloop
  endfacet
  facet normal -0.995374 0.0960776 0
    outer loop
      vertex 3.30595 -0.42627 -5
      vertex 3.32648 -0.213577 5
      vertex 3.32648 -0.213577 -5
    endloop
  endfacet
  facet normal -0.995374 0.0960776 0
    outer loop
      vertex 3.30595 -0.42627 -5
      vertex 3.30595 -0.42627 5
      vertex 3.32648 -0.213577 5
    endloop
  endfacet
  facet normal -0.987184 0.159588 0
    outer loop
      vertex 3.27185 -0.637207 -5
      vertex 3.30595 -0.42627 5
      vertex 3.30595 -0.42627 -5
    endloop
  endfacet
  facet normal -0.987184 0.159588 0
    outer loop
      vertex 3.27185 -0.637207 -5
      vertex 3.27185 -0.637207 5
      vertex 3.30595 -0.42627 5
    endloop
  endfacet
  facet normal -0.974924 0.222538 0
    outer loop
      vertex 3.2243 -0.84552 -5
      vertex 3.27185 -0.637207 5
      vertex 3.27185 -0.637207 -5
    endloop
  endfacet
  facet normal -0.974924 0.222538 0
    outer loop
      vertex 3.2243 -0.84552 -5
      vertex 3.2243 -0.84552 5
      vertex 3.27185 -0.637207 5
    endloop
  endfacet
  facet normal -0.958679 0.284491 0
    outer loop
      vertex 3.16351 -1.05037 -5
      vertex 3.2243 -0.84552 5
      vertex 3.2243 -0.84552 -5
    endloop
  endfacet
  facet normal -0.958679 0.284491 0
    outer loop
      vertex 3.16351 -1.05037 -5
      vertex 3.16351 -1.05037 5
      vertex 3.2243 -0.84552 5
    endloop
  endfacet
  facet normal -0.938479 0.345337 0
    outer loop
      vertex 3.08972 -1.2509 -5
      vertex 3.16351 -1.05037 5
      vertex 3.16351 -1.05037 -5
    endloop
  endfacet
  facet normal -0.938479 0.345337 0
    outer loop
      vertex 3.08972 -1.2509 -5
      vertex 3.08972 -1.2509 5
      vertex 3.16351 -1.05037 5
    endloop
  endfacet
  facet normal -0.914401 0.404809 0
    outer loop
      vertex 3.00322 -1.44629 -5
      vertex 3.08972 -1.2509 5
      vertex 3.08972 -1.2509 -5
    endloop
  endfacet
  facet normal -0.914401 0.404809 0
    outer loop
      vertex 3.00322 -1.44629 -5
      vertex 3.00322 -1.44629 5
      vertex 3.08972 -1.2509 5
    endloop
  endfacet
  facet normal -0.886601 0.462536 0
    outer loop
      vertex 2.90439 -1.63573 -5
      vertex 3.00322 -1.44629 5
      vertex 3.00322 -1.44629 -5
    endloop
  endfacet
  facet normal -0.886601 0.462536 0
    outer loop
      vertex 2.90439 -1.63573 -5
      vertex 2.90439 -1.63573 5
      vertex 3.00322 -1.44629 5
    endloop
  endfacet
  facet normal -0.855134 0.518406 0
    outer loop
      vertex 2.79362 -1.81845 -5
      vertex 2.90439 -1.63573 5
      vertex 2.90439 -1.63573 -5
    endloop
  endfacet
  facet normal -0.855134 0.518406 0
    outer loop
      vertex 2.79362 -1.81845 -5
      vertex 2.79362 -1.81845 5
      vertex 2.90439 -1.63573 5
    endloop
  endfacet
  facet normal -0.820181 0.572105 0
    outer loop
      vertex 2.67137 -1.99371 -5
      vertex 2.79362 -1.81845 5
      vertex 2.79362 -1.81845 -5
    endloop
  endfacet
  facet normal -0.820181 0.572105 0
    outer loop
      vertex 2.67137 -1.99371 -5
      vertex 2.67137 -1.99371 5
      vertex 2.79362 -1.81845 5
    endloop
  endfacet
  facet normal -0.781845 0.623473 0
    outer loop
      vertex 2.53815 -2.16077 -5
      vertex 2.67137 -1.99371 5
      vertex 2.67137 -1.99371 -5
    endloop
  endfacet
  facet normal -0.781845 0.623473 0
    outer loop
      vertex 2.53815 -2.16077 -5
      vertex 2.53815 -2.16077 5
      vertex 2.67137 -1.99371 5
    endloop
  endfacet
  facet normal -0.740266 0.672314 0
    outer loop
      vertex 2.39449 -2.31895 -5
      vertex 2.53815 -2.16077 5
      vertex 2.53815 -2.16077 -5
    endloop
  endfacet
  facet normal -0.740266 0.672314 0
    outer loop
      vertex 2.39449 -2.31895 -5
      vertex 2.39449 -2.31895 5
      vertex 2.53815 -2.16077 5
    endloop
  endfacet
  facet normal -0.695714 0.718318 0
    outer loop
      vertex 2.241 -2.46761 -5
      vertex 2.39449 -2.31895 5
      vertex 2.39449 -2.31895 -5
    endloop
  endfacet
  facet normal -0.695714 0.718318 0
    outer loop
      vertex 2.241 -2.46761 -5
      vertex 2.241 -2.46761 5
      vertex 2.39449 -2.31895 5
    endloop
  endfacet
  facet normal -0.648182 0.761485 0
    outer loop
      vertex 2.07829 -2.60611 -5
      vertex 2.241 -2.46761 5
      vertex 2.241 -2.46761 -5
    endloop
  endfacet
  facet normal -0.648182 0.761485 0
    outer loop
      vertex 2.07829 -2.60611 -5
      vertex 2.07829 -2.60611 5
      vertex 2.241 -2.46761 5
    endloop
  endfacet
  facet normal -0.598119 0.801407 0
    outer loop
      vertex 1.90704 -2.73392 -5
      vertex 2.07829 -2.60611 5
      vertex 2.07829 -2.60611 -5
    endloop
  endfacet
  facet normal -0.598119 0.801407 0
    outer loop
      vertex 1.90704 -2.73392 -5
      vertex 1.90704 -2.73392 5
      vertex 2.07829 -2.60611 5
    endloop
  endfacet
  facet normal -0.545529 0.838092 0
    outer loop
      vertex 1.72797 -2.85048 -5
      vertex 1.90704 -2.73392 5
      vertex 1.90704 -2.73392 -5
    endloop
  endfacet
  facet normal -0.545529 0.838092 0
    outer loop
      vertex 1.72797 -2.85048 -5
      vertex 1.72797 -2.85048 5
      vertex 1.90704 -2.73392 5
    endloop
  endfacet
  facet normal -0.490737 0.871308 0
    outer loop
      vertex 1.54179 -2.95534 -5
      vertex 1.72797 -2.85048 5
      vertex 1.72797 -2.85048 -5
    endloop
  endfacet
  facet normal -0.490737 0.871308 0
    outer loop
      vertex 1.54179 -2.95534 -5
      vertex 1.54179 -2.95534 5
      vertex 1.72797 -2.85048 5
    endloop
  endfacet
  facet normal -0.433873 0.900974 0
    outer loop
      vertex 1.34927 -3.04805 -5
      vertex 1.54179 -2.95534 5
      vertex 1.54179 -2.95534 -5
    endloop
  endfacet
  facet normal -0.433873 0.900974 0
    outer loop
      vertex 1.34927 -3.04805 -5
      vertex 1.34927 -3.04805 5
      vertex 1.54179 -2.95534 5
    endloop
  endfacet
  facet normal -0.375244 0.926926 0
    outer loop
      vertex 1.15121 -3.12823 -5
      vertex 1.34927 -3.04805 5
      vertex 1.34927 -3.04805 -5
    endloop
  endfacet
  facet normal -0.375244 0.926926 0
    outer loop
      vertex 1.15121 -3.12823 -5
      vertex 1.15121 -3.12823 5
      vertex 1.34927 -3.04805 5
    endloop
  endfacet
  facet normal -0.315133 0.949048 0
    outer loop
      vertex 0.94841 -3.19557 -5
      vertex 1.15121 -3.12823 5
      vertex 1.15121 -3.12823 -5
    endloop
  endfacet
  facet normal -0.315133 0.949048 0
    outer loop
      vertex 0.94841 -3.19557 -5
      vertex 0.94841 -3.19557 5
      vertex 1.15121 -3.12823 5
    endloop
  endfacet
  facet normal -0.253664 0.967292 0
    outer loop
      vertex 0.74173 -3.24977 -5
      vertex 0.94841 -3.19557 5
      vertex 0.94841 -3.19557 -5
    endloop
  endfacet
  facet normal -0.253664 0.967292 0
    outer loop
      vertex 0.74173 -3.24977 -5
      vertex 0.74173 -3.24977 5
      vertex 0.94841 -3.19557 5
    endloop
  endfacet
  facet normal -0.19118 0.981555 0
    outer loop
      vertex 0.531998 -3.29062 -5
      vertex 0.74173 -3.24977 5
      vertex 0.74173 -3.24977 -5
    endloop
  endfacet
  facet normal -0.19118 0.981555 0
    outer loop
      vertex 0.531998 -3.29062 -5
      vertex 0.531998 -3.29062 5
      vertex 0.74173 -3.24977 5
    endloop
  endfacet
  facet normal -0.127807 0.991799 0
    outer loop
      vertex 0.320068 -3.31793 -5
      vertex 0.531998 -3.29062 5
      vertex 0.531998 -3.29062 -5
    endloop
  endfacet
  facet normal -0.127807 0.991799 0
    outer loop
      vertex 0.320068 -3.31793 -5
      vertex 0.320068 -3.31793 5
      vertex 0.531998 -3.29062 5
    endloop
  endfacet
  facet normal -0.0641144 0.997943 0
    outer loop
      vertex 0.106827 -3.33163 -5
      vertex 0.320068 -3.31793 5
      vertex 0.320068 -3.31793 -5
    endloop
  endfacet
  facet normal -0.0641144 0.997943 0
    outer loop
      vertex 0.106827 -3.33163 -5
      vertex 0.106827 -3.33163 5
      vertex 0.320068 -3.31793 5
    endloop
  endfacet
  facet normal 0 1 0
    outer loop
      vertex -0.106842 -3.33163 -5
      vertex 0.106827 -3.33163 5
      vertex 0.106827 -3.33163 -5
    endloop
  endfacet
  facet normal 0 1 0
    outer loop
      vertex -0.106842 -3.33163 -5
      vertex -0.106842 -3.33163 5
      vertex 0.106827 -3.33163 5
    endloop
  endfacet
  facet normal 0.0641141 0.997943 0
    outer loop
      vertex -0.320084 -3.31793 -5
      vertex -0.106842 -3.33163 5
      vertex -0.106842 -3.33163 -5
    endloop
  endfacet
  facet normal 0.0641141 0.997943 -0
    outer loop
      vertex -0.320084 -3.31793 -5
      vertex -0.320084 -3.31793 5
      vertex -0.106842 -3.33163 5
    endloop
  endfacet
  facet normal 0.127807 0.991799 0
    outer loop
      vertex -0.532013 -3.29062 -5
      vertex -0.320084 -3.31793 5
      vertex -0.320084 -3.31793 -5
    endloop
  endfacet
  facet normal 0.127807 0.991799 -0
    outer loop
      vertex -0.532013 -3.29062 -5
      vertex -0.532013 -3.29062 5
      vertex -0.320084 -3.31793 5
    endloop
  endfacet
  facet normal 0.19118 0.981555 0
    outer loop
      vertex -0.741745 -3.24977 -5
      vertex -0.532013 -3.29062 5
      vertex -0.532013 -3.29062 -5
    endloop
  endfacet
  facet normal 0.19118 0.981555 -0
    outer loop
      vertex -0.741745 -3.24977 -5
      vertex -0.741745 -3.24977 5
      vertex -0.532013 -3.29062 5
    endloop
  endfacet
  facet normal 0.253664 0.967292 0
    outer loop
      vertex -0.948425 -3.19557 -5
      vertex -0.741745 -3.24977 5
      vertex -0.741745 -3.24977 -5
    endloop
  endfacet
  facet normal 0.253664 0.967292 -0
    outer loop
      vertex -0.948425 -3.19557 -5
      vertex -0.948425 -3.19557 5
      vertex -0.741745 -3.24977 5
    endloop
  endfacet
  facet normal 0.315126 0.94905 0
    outer loop
      vertex -1.15123 -3.12823 -5
      vertex -0.948425 -3.19557 5
      vertex -0.948425 -3.19557 -5
    endloop
  endfacet
  facet normal 0.315126 0.94905 -0
    outer loop
      vertex -1.15123 -3.12823 -5
      vertex -1.15123 -3.12823 5
      vertex -0.948425 -3.19557 5
    endloop
  endfacet
  facet normal 0.375244 0.926926 0
    outer loop
      vertex -1.34929 -3.04805 -5
      vertex -1.15123 -3.12823 5
      vertex -1.15123 -3.12823 -5
    endloop
  endfacet
  facet normal 0.375244 0.926926 -0
    outer loop
      vertex -1.34929 -3.04805 -5
      vertex -1.34929 -3.04805 5
      vertex -1.15123 -3.12823 5
    endloop
  endfacet
  facet normal 0.433873 0.900974 0
    outer loop
      vertex -1.54181 -2.95534 -5
      vertex -1.34929 -3.04805 5
      vertex -1.34929 -3.04805 -5
    endloop
  endfacet
  facet normal 0.433873 0.900974 -0
    outer loop
      vertex -1.54181 -2.95534 -5
      vertex -1.54181 -2.95534 5
      vertex -1.34929 -3.04805 5
    endloop
  endfacet
  facet normal 0.490757 0.871297 0
    outer loop
      vertex -1.72798 -2.85048 -5
      vertex -1.54181 -2.95534 5
      vertex -1.54181 -2.95534 -5
    endloop
  endfacet
  facet normal 0.490757 0.871297 -0
    outer loop
      vertex -1.72798 -2.85048 -5
      vertex -1.72798 -2.85048 5
      vertex -1.54181 -2.95534 5
    endloop
  endfacet
  facet normal 0.545508 0.838106 0
    outer loop
      vertex -1.90706 -2.73392 -5
      vertex -1.72798 -2.85048 5
      vertex -1.72798 -2.85048 -5
    endloop
  endfacet
  facet normal 0.545508 0.838106 -0
    outer loop
      vertex -1.90706 -2.73392 -5
      vertex -1.90706 -2.73392 5
      vertex -1.72798 -2.85048 5
    endloop
  endfacet
  facet normal 0.598119 0.801407 0
    outer loop
      vertex -2.07831 -2.60611 -5
      vertex -1.90706 -2.73392 5
      vertex -1.90706 -2.73392 -5
    endloop
  endfacet
  facet normal 0.598119 0.801407 -0
    outer loop
      vertex -2.07831 -2.60611 -5
      vertex -2.07831 -2.60611 5
      vertex -1.90706 -2.73392 5
    endloop
  endfacet
  facet normal 0.648205 0.761466 0
    outer loop
      vertex -2.24101 -2.46761 -5
      vertex -2.07831 -2.60611 5
      vertex -2.07831 -2.60611 -5
    endloop
  endfacet
  facet normal 0.648205 0.761466 -0
    outer loop
      vertex -2.24101 -2.46761 -5
      vertex -2.24101 -2.46761 5
      vertex -2.07831 -2.60611 5
    endloop
  endfacet
  facet normal 0.695714 0.718318 0
    outer loop
      vertex -2.3945 -2.31895 -5
      vertex -2.24101 -2.46761 5
      vertex -2.24101 -2.46761 -5
    endloop
  endfacet
  facet normal 0.695714 0.718318 -0
    outer loop
      vertex -2.3945 -2.31895 -5
      vertex -2.3945 -2.31895 5
      vertex -2.24101 -2.46761 5
    endloop
  endfacet
  facet normal 0.740266 0.672314 0
    outer loop
      vertex -2.53816 -2.16077 -5
      vertex -2.3945 -2.31895 5
      vertex -2.3945 -2.31895 -5
    endloop
  endfacet
  facet normal 0.740266 0.672314 -0
    outer loop
      vertex -2.53816 -2.16077 -5
      vertex -2.53816 -2.16077 5
      vertex -2.3945 -2.31895 5
    endloop
  endfacet
  facet normal 0.781822 0.623502 0
    outer loop
      vertex -2.67139 -1.99371 -5
      vertex -2.53816 -2.16077 5
      vertex -2.53816 -2.16077 -5
    endloop
  endfacet
  facet normal 0.781822 0.623502 -0
    outer loop
      vertex -2.67139 -1.99371 -5
      vertex -2.67139 -1.99371 5
      vertex -2.53816 -2.16077 5
    endloop
  endfacet
  facet normal 0.820181 0.572105 0
    outer loop
      vertex -2.79364 -1.81845 -5
      vertex -2.67139 -1.99371 5
      vertex -2.67139 -1.99371 -5
    endloop
  endfacet
  facet normal 0.820181 0.572105 -0
    outer loop
      vertex -2.79364 -1.81845 -5
      vertex -2.79364 -1.81845 5
      vertex -2.67139 -1.99371 5
    endloop
  endfacet
  facet normal 0.855155 0.518372 0
    outer loop
      vertex -2.9044 -1.63573 -5
      vertex -2.79364 -1.81845 5
      vertex -2.79364 -1.81845 -5
    endloop
  endfacet
  facet normal 0.855155 0.518372 -0
    outer loop
      vertex -2.9044 -1.63573 -5
      vertex -2.9044 -1.63573 5
      vertex -2.79364 -1.81845 5
    endloop
  endfacet
  facet normal 0.886601 0.462536 0
    outer loop
      vertex -3.00323 -1.44629 -5
      vertex -2.9044 -1.63573 5
      vertex -2.9044 -1.63573 -5
    endloop
  endfacet
  facet normal 0.886601 0.462536 -0
    outer loop
      vertex -3.00323 -1.44629 -5
      vertex -3.00323 -1.44629 5
      vertex -2.9044 -1.63573 5
    endloop
  endfacet
  facet normal 0.914384 0.404848 0
    outer loop
      vertex -3.08974 -1.2509 -5
      vertex -3.00323 -1.44629 5
      vertex -3.00323 -1.44629 -5
    endloop
  endfacet
  facet normal 0.914384 0.404848 -0
    outer loop
      vertex -3.08974 -1.2509 -5
      vertex -3.08974 -1.2509 5
      vertex -3.00323 -1.44629 5
    endloop
  endfacet
  facet normal 0.938479 0.345337 0
    outer loop
      vertex -3.16353 -1.05037 -5
      vertex -3.08974 -1.2509 5
      vertex -3.08974 -1.2509 -5
    endloop
  endfacet
  facet normal 0.938479 0.345337 -0
    outer loop
      vertex -3.16353 -1.05037 -5
      vertex -3.16353 -1.05037 5
      vertex -3.08974 -1.2509 5
    endloop
  endfacet
  facet normal 0.958679 0.284491 0
    outer loop
      vertex -3.22432 -0.84552 -5
      vertex -3.16353 -1.05037 5
      vertex -3.16353 -1.05037 -5
    endloop
  endfacet
  facet normal 0.958679 0.284491 -0
    outer loop
      vertex -3.22432 -0.84552 -5
      vertex -3.22432 -0.84552 5
      vertex -3.16353 -1.05037 5
    endloop
  endfacet
  facet normal 0.974924 0.222538 0
    outer loop
      vertex -3.27187 -0.637207 -5
      vertex -3.22432 -0.84552 5
      vertex -3.22432 -0.84552 -5
    endloop
  endfacet
  facet normal 0.974924 0.222538 -0
    outer loop
      vertex -3.27187 -0.637207 -5
      vertex -3.27187 -0.637207 5
      vertex -3.22432 -0.84552 5
    endloop
  endfacet
  facet normal 0.987184 0.159588 0
    outer loop
      vertex -3.30597 -0.42627 -5
      vertex -3.27187 -0.637207 5
      vertex -3.27187 -0.637207 -5
    endloop
  endfacet
  facet normal 0.987184 0.159588 -0
    outer loop
      vertex -3.30597 -0.42627 -5
      vertex -3.30597 -0.42627 5
      vertex -3.27187 -0.637207 5
    endloop
  endfacet
  facet normal 0.995378 0.0960312 0
    outer loop
      vertex -3.32649 -0.213577 -5
      vertex -3.30597 -0.42627 5
      vertex -3.30597 -0.42627 -5
    endloop
  endfacet
  facet normal 0.995378 0.0960312 -0
    outer loop
      vertex -3.32649 -0.213577 -5
      vertex -3.32649 -0.213577 5
      vertex -3.30597 -0.42627 5
    endloop
  endfacet
  facet normal 0.999486 0.0320563 0
    outer loop
      vertex -3.33334 0 -5
      vertex -3.32649 -0.213577 5
      vertex -3.32649 -0.213577 -5
    endloop
  endfacet
  facet normal 0.999486 0.0320563 -0
    outer loop
      vertex -3.33334 0 -5
      vertex -3.33334 0 5
      vertex -3.32649 -0.213577 5
    endloop
  endfacet
  facet normal 1 0 0
    outer loop
      vertex -3.33334 5 -5
      vertex -3.33334 0 5
      vertex -3.33334 0 -5
    endloop
  endfacet
  facet normal 1 0 -0
    outer loop
      vertex -3.33334 5 -5
      vertex -3.33334 5 5
      vertex -3.33334 0 5
    endloop
  endfacet
  facet normal 0 1 0
    outer loop
      vertex -5 5 -5
      vertex -3.33334 5 5
      vertex -3.33334 5 -5
    endloop
  endfacet
  facet normal 0 1 0
    outer loop
      vertex -5 5 -5
      vertex -5 5 5
      vertex -3.33334 5 5
    endloop
  endfacet
  facet normal -1 0 0
    outer loop
      vertex -5 0 -5
      vertex -5 5 5
      vertex -5 5 -5
    endloop
  endfacet
  facet normal -1 0 0
    outer loop
      vertex -5 0 -5
      vertex -5 0 5
      vertex -5 5 5
    endloop
  endfacet
  facet normal -0.999487 -0.0320414 0
    outer loop
      vertex -4.98973 -0.320358 -5
      vertex -5 0 5
      vertex -5 0 -5
    endloop
  endfacet
  facet normal -0.999487 -0.0320414 0
    outer loop
      vertex -4.98973 -0.320358 -5
      vertex -4.98973 -0.320358 5
      vertex -5 0 5
    endloop
  endfacet
  facet normal -0.995378 -0.0960337 0
    outer loop
      vertex -4.95895 -0.639389 -5
      vertex -4.98973 -0.320358 5
      vertex -4.98973 -0.320358 -5
    endloop
  endfacet
  facet normal -0.995378 -0.0960337 0
    outer loop
      vertex -4.95895 -0.639389 -5
      vertex -4.95895 -0.639389 5
      vertex -4.98973 -0.320358 5
    endloop
  endfacet
  facet normal -0.987189 -0.159557 0
    outer loop
      vertex -4.90781 -0.955795 -5
      vertex -4.95895 -0.639389 5
      vertex -4.95895 -0.639389 -5
    endloop
  endfacet
  facet normal -0.987189 -0.159557 0
    outer loop
      vertex -4.90781 -0.955795 -5
      vertex -4.90781 -0.955795 5
      vertex -4.95895 -0.639389 5
    endloop
  endfacet
  facet normal -0.97493 -0.222513 0
    outer loop
      vertex -4.83649 -1.26828 -5
      vertex -4.90781 -0.955795 5
      vertex -4.90781 -0.955795 -5
    endloop
  endfacet
  facet normal -0.97493 -0.222513 0
    outer loop
      vertex -4.83649 -1.26828 -5
      vertex -4.83649 -1.26828 5
      vertex -4.90781 -0.955795 5
    endloop
  endfacet
  facet normal -0.958665 -0.284539 0
    outer loop
      vertex -4.74529 -1.57555 -5
      vertex -4.83649 -1.26828 5
      vertex -4.83649 -1.26828 -5
    endloop
  endfacet
  facet normal -0.958665 -0.284539 0
    outer loop
      vertex -4.74529 -1.57555 -5
      vertex -4.74529 -1.57555 5
      vertex -4.83649 -1.26828 5
    endloop
  endfacet
  facet normal -0.938472 -0.345355 0
    outer loop
      vertex -4.6346 -1.87634 -5
      vertex -4.74529 -1.57555 5
      vertex -4.74529 -1.57555 -5
    endloop
  endfacet
  facet normal -0.938472 -0.345355 0
    outer loop
      vertex -4.6346 -1.87634 -5
      vertex -4.6346 -1.87634 5
      vertex -4.74529 -1.57555 5
    endloop
  endfacet
  facet normal -0.914404 -0.404804 0
    outer loop
      vertex -4.50485 -2.16943 -5
      vertex -4.6346 -1.87634 5
      vertex -4.6346 -1.87634 -5
    endloop
  endfacet
  facet normal -0.914404 -0.404804 0
    outer loop
      vertex -4.50485 -2.16943 -5
      vertex -4.50485 -2.16943 5
      vertex -4.6346 -1.87634 5
    endloop
  endfacet
  facet normal -0.886601 -0.462535 0
    outer loop
      vertex -4.3566 -2.4536 -5
      vertex -4.50485 -2.16943 5
      vertex -4.50485 -2.16943 -5
    endloop
  endfacet
  facet normal -0.886601 -0.462535 0
    outer loop
      vertex -4.3566 -2.4536 -5
      vertex -4.3566 -2.4536 5
      vertex -4.50485 -2.16943 5
    endloop
  endfacet
  facet normal -0.855127 -0.518418 0
    outer loop
      vertex -4.19044 -2.72768 -5
      vertex -4.3566 -2.4536 5
      vertex -4.3566 -2.4536 -5
    endloop
  endfacet
  facet normal -0.855127 -0.518418 0
    outer loop
      vertex -4.19044 -2.72768 -5
      vertex -4.19044 -2.72768 5
      vertex -4.3566 -2.4536 5
    endloop
  endfacet
  facet normal -0.820182 -0.572103 0
    outer loop
      vertex -4.00708 -2.99055 -5
      vertex -4.19044 -2.72768 5
      vertex -4.19044 -2.72768 -5
    endloop
  endfacet
  facet normal -0.820182 -0.572103 0
    outer loop
      vertex -4.00708 -2.99055 -5
      vertex -4.00708 -2.99055 5
      vertex -4.19044 -2.72768 5
    endloop
  endfacet
  facet normal -0.781842 -0.623477 0
    outer loop
      vertex -3.80724 -3.24115 -5
      vertex -4.00708 -2.99055 5
      vertex -4.00708 -2.99055 -5
    endloop
  endfacet
  facet normal -0.781842 -0.623477 0
    outer loop
      vertex -3.80724 -3.24115 -5
      vertex -3.80724 -3.24115 5
      vertex -4.00708 -2.99055 5
    endloop
  endfacet
  facet normal -0.740266 -0.672314 0
    outer loop
      vertex -3.59175 -3.47842 -5
      vertex -3.80724 -3.24115 5
      vertex -3.80724 -3.24115 -5
    endloop
  endfacet
  facet normal -0.740266 -0.672314 0
    outer loop
      vertex -3.59175 -3.47842 -5
      vertex -3.59175 -3.47842 5
      vertex -3.80724 -3.24115 5
    endloop
  endfacet
  facet normal -0.695691 -0.718342 0
    outer loop
      vertex -3.36151 -3.7014 -5
      vertex -3.59175 -3.47842 5
      vertex -3.59175 -3.47842 -5
    endloop
  endfacet
  facet normal -0.695691 -0.718342 0
    outer loop
      vertex -3.36151 -3.7014 -5
      vertex -3.36151 -3.7014 5
      vertex -3.59175 -3.47842 5
    endloop
  endfacet
  facet normal -0.648223 -0.76145 0
    outer loop
      vertex -3.11746 -3.90916 -5
      vertex -3.36151 -3.7014 5
      vertex -3.36151 -3.7014 -5
    endloop
  endfacet
  facet normal -0.648223 -0.76145 0
    outer loop
      vertex -3.11746 -3.90916 -5
      vertex -3.11746 -3.90916 5
      vertex -3.36151 -3.7014 5
    endloop
  endfacet
  facet normal -0.598151 -0.801383 0
    outer loop
      vertex -2.8606 -4.10088 -5
      vertex -3.11746 -3.90916 5
      vertex -3.11746 -3.90916 -5
    endloop
  endfacet
  facet normal -0.598151 -0.801383 0
    outer loop
      vertex -2.8606 -4.10088 -5
      vertex -2.8606 -4.10088 5
      vertex -3.11746 -3.90916 5
    endloop
  endfacet
  facet normal -0.545501 -0.83811 0
    outer loop
      vertex -2.59196 -4.27573 -5
      vertex -2.8606 -4.10088 5
      vertex -2.8606 -4.10088 -5
    endloop
  endfacet
  facet normal -0.545501 -0.83811 0
    outer loop
      vertex -2.59196 -4.27573 -5
      vertex -2.59196 -4.27573 5
      vertex -2.8606 -4.10088 5
    endloop
  endfacet
  facet normal -0.490703 -0.871327 0
    outer loop
      vertex -2.3127 -4.433 -5
      vertex -2.59196 -4.27573 5
      vertex -2.59196 -4.27573 -5
    endloop
  endfacet
  facet normal -0.490703 -0.871327 0
    outer loop
      vertex -2.3127 -4.433 -5
      vertex -2.3127 -4.433 5
      vertex -2.59196 -4.27573 5
    endloop
  endfacet
  facet normal -0.433898 -0.900962 0
    outer loop
      vertex -2.02393 -4.57207 -5
      vertex -2.3127 -4.433 5
      vertex -2.3127 -4.433 -5
    endloop
  endfacet
  facet normal -0.433898 -0.900962 0
    outer loop
      vertex -2.02393 -4.57207 -5
      vertex -2.02393 -4.57207 5
      vertex -2.3127 -4.433 5
    endloop
  endfacet
  facet normal -0.375271 -0.926915 0
    outer loop
      vertex -1.72684 -4.69235 -5
      vertex -2.02393 -4.57207 5
      vertex -2.02393 -4.57207 -5
    endloop
  endfacet
  facet normal -0.375271 -0.926915 0
    outer loop
      vertex -1.72684 -4.69235 -5
      vertex -1.72684 -4.69235 5
      vertex -2.02393 -4.57207 5
    endloop
  endfacet
  facet normal -0.315104 -0.949057 0
    outer loop
      vertex -1.42264 -4.79335 -5
      vertex -1.72684 -4.69235 5
      vertex -1.72684 -4.69235 -5
    endloop
  endfacet
  facet normal -0.315104 -0.949057 0
    outer loop
      vertex -1.42264 -4.79335 -5
      vertex -1.42264 -4.79335 5
      vertex -1.72684 -4.69235 5
    endloop
  endfacet
  facet normal -0.253656 -0.967294 0
    outer loop
      vertex -1.11261 -4.87465 -5
      vertex -1.42264 -4.79335 5
      vertex -1.42264 -4.79335 -5
    endloop
  endfacet
  facet normal -0.253656 -0.967294 0
    outer loop
      vertex -1.11261 -4.87465 -5
      vertex -1.11261 -4.87465 5
      vertex -1.42264 -4.79335 5
    endloop
  endfacet
  facet normal -0.19113 -0.981565 0
    outer loop
      vertex -0.798004 -4.93591 -5
      vertex -1.11261 -4.87465 5
      vertex -1.11261 -4.87465 -5
    endloop
  endfacet
  facet normal -0.19113 -0.981565 0
    outer loop
      vertex -0.798004 -4.93591 -5
      vertex -0.798004 -4.93591 5
      vertex -1.11261 -4.87465 5
    endloop
  endfacet
  facet normal -0.127887 -0.991789 0
    outer loop
      vertex -0.480118 -4.9769 -5
      vertex -0.798004 -4.93591 5
      vertex -0.798004 -4.93591 -5
    endloop
  endfacet
  facet normal -0.127887 -0.991789 0
    outer loop
      vertex -0.480118 -4.9769 -5
      vertex -0.480118 -4.9769 5
      vertex -0.798004 -4.93591 5
    endloop
  endfacet
  facet normal -0.0640846 -0.997944 0
    outer loop
      vertex -0.160263 -4.99744 -5
      vertex -0.480118 -4.9769 5
      vertex -0.480118 -4.9769 -5
    endloop
  endfacet
  facet normal -0.0640846 -0.997944 0
    outer loop
      vertex -0.160263 -4.99744 -5
      vertex -0.160263 -4.99744 5
      vertex -0.480118 -4.9769 5
    endloop
  endfacet
  facet normal 0 -1 0
    outer loop
      vertex 0.160248 -4.99744 -5
      vertex -0.160263 -4.99744 5
      vertex -0.160263 -4.99744 -5
    endloop
  endfacet
  facet normal 0 -1 0
    outer loop
      vertex 0.160248 -4.99744 -5
      vertex 0.160248 -4.99744 5
      vertex -0.160263 -4.99744 5
    endloop
  endfacet
  facet normal 0.0640846 -0.997944 0
    outer loop
      vertex 0.480103 -4.9769 -5
      vertex 0.160248 -4.99744 5
      vertex 0.160248 -4.99744 -5
    endloop
  endfacet
  facet normal 0.0640846 -0.997944 0
    outer loop
      vertex 0.480103 -4.9769 -5
      vertex 0.480103 -4.9769 5
      vertex 0.160248 -4.99744 5
    endloop
  endfacet
endsolid OpenSCAD_Model
