solid OpenSCAD_Model
  facet normal 0 0 -1
    outer loop
      vertex 0.666656 -5 -5
      vertex 1.66666 -3.33334 -5
      vertex 3 -5 -5
    endloop
  endfacet
  facet normal 0 0 -1
    outer loop
      vertex 0.666656 -5 -5
      vertex 0 -1.66667 -5
      vertex 1.66666 -3.33334 -5
    endloop
  endfacet
  facet normal 0 -0 -1
    outer loop
      vertex -1 0 -5
      vertex 0 -1.66667 -5
      vertex -1.66667 -3.33334 -5
    endloop
  endfacet
  facet normal 0 0 -1
    outer loop
      vertex 1.66666 -3.33334 -5
      vertex 0 -1.66667 -5
      vertex 1 0 -5
    endloop
  endfacet
  facet normal -0 0 -1
    outer loop
      vertex 1 0 -5
      vertex 0 -1.66667 -5
      vertex -1 0 -5
    endloop
  endfacet
  facet normal 0 0 -1
    outer loop
      vertex 3 -5 -5
      vertex 1.66666 -3.33334 -5
      vertex 5 5 -5
    endloop
  endfacet
  facet normal 0 0 -1
    outer loop
      vertex 1.66666 -3.33334 -5
      vertex 3.33333 5 -5
      vertex 5 5 -5
    endloop
  endfacet
  facet normal 0 0 -1
    outer loop
      vertex 0 -1.66667 -5
      vertex -0.666672 -5 -5
      vertex -1.66667 -3.33334 -5
    endloop
  endfacet
  facet normal 0 -0 -1
    outer loop
      vertex -1.66667 -3.33334 -5
      vertex -0.666672 -5 -5
      vertex -3 -5 -5
    endloop
  endfacet
  facet normal -0 -0 -1
    outer loop
      vertex -3.33334 5 -5
      vertex -1.66667 -3.33334 -5
      vertex -5 5 -5
    endloop
  endfacet
  facet normal 0 0 -1
    outer loop
      vertex -5 5 -5
      vertex -1.66667 -3.33334 -5
      vertex -3 -5 -5
    endloop
  endfacet
  facet normal 0 0 1
    outer loop
      vertex 3 -5 5
      vertex 1.66666 -3.33334 5
      vertex 0.666656 -5 5
    endloop
  endfacet
  facet normal 0 0 1
    outer loop
      vertex 1.66666 -3.33334 5
      vertex 0 -1.66667 5
      vertex 0.666656 -5 5
    endloop
  endfacet
  facet normal 0 0 1
    outer loop
      vertex -1.66667 -3.33334 5
      vertex 0 -1.66667 5
      vertex -1 0 5
    endloop
  endfacet
  facet normal 0 0 1
    outer loop
      vertex 1 0 5
      vertex 0 -1.66667 5
      vertex 1.66666 -3.33334 5
    endloop
  endfacet
  facet normal -0 0 1
    outer loop
      vertex -1 0 5
      vertex 0 -1.66667 5
      vertex 1 0 5
    endloop
  endfacet
  facet normal 0 0 1
    outer loop
      vertex 5 5 5
      vertex 1.66666 -3.33334 5
      vertex 3 -5 5
    endloop
  endfacet
  facet normal 0 0 1
    outer loop
      vertex 5 5 5
      vertex 3.33333 5 5
      vertex 1.66666 -3.33334 5
    endloop
  endfacet
  facet normal -0 0 1
    outer loop
      vertex -1.66667 -3.33334 5
      vertex -0.666672 -5 5
      vertex 0 -1.66667 5
    endloop
  endfacet
  facet normal 0 0 1
    outer loop
      vertex -3 -5 5
      vertex -0.666672 -5 5
      vertex -1.66667 -3.33334 5
    endloop
  endfacet
  facet normal -0 0 1
    outer loop
      vertex -5 5 5
      vertex -1.66667 -3.33334 5
      vertex -3.33334 5 5
    endloop
  endfacet
  facet normal 0 -0 1
    outer loop
      vertex -3 -5 5
      vertex -1.66667 -3.33334 5
      vertex -5 5 5
    endloop
  endfacet
  facet normal -0.980581 -0.196113 0
    outer loop
      vertex 0.666656 -5 -5
      vertex 0 -1.66667 5
      vertex 0 -1.66667 -5
    endloop
  endfacet
  facet normal -0.980581 -0.196113 0
    outer loop
      vertex 0.666656 -5 -5
      vertex 0.666656 -5 5
      vertex 0 -1.66667 5
    endloop
  endfacet
  facet normal 0 -1 0
    outer loop
      vertex 3 -5 -5
      vertex 0.666656 -5 5
      vertex 0.666656 -5 -5
    endloop
  endfacet
  facet normal 0 -1 0
    outer loop
      vertex 3 -5 -5
      vertex 3 -5 5
      vertex 0.666656 -5 5
    endloop
  endfacet
  facet normal 0.980581 -0.196116 0
    outer loop
      vertex 5 5 -5
      vertex 3 -5 5
      vertex 3 -5 -5
    endloop
  endfacet
  facet normal 0.980581 -0.196116 0
    outer loop
      vertex 5 5 -5
      vertex 5 5 5
      vertex 3 -5 5
    endloop
  endfacet
  facet normal 0 1 0
    outer loop
      vertex 3.33333 5 -5
      vertex 5 5 5
      vertex 5 5 -5
    endloop
  endfacet
  facet normal 0 1 0
    outer loop
      vertex 3.33333 5 -5
      vertex 3.33333 5 5
      vertex 5 5 5
    endloop
  endfacet
  facet normal -0.980581 0.196116 0
    outer loop
      vertex 1.66666 -3.33334 -5
      vertex 3.33333 5 5
      vertex 3.33333 5 -5
    endloop
  endfacet
  facet normal -0.980581 0.196116 0
    outer loop
      vertex 1.66666 -3.33334 -5
      vertex 1.66666 -3.33334 5
      vertex 3.33333 5 5
    endloop
  endfacet
  facet normal 0.980581 0.196114 0
    outer loop
      vertex 1 0 -5
      vertex 1.66666 -3.33334 5
      vertex 1.66666 -3.33334 -5
    endloop
  endfacet
  facet normal 0.980581 0.196114 -0
    outer loop
      vertex 1 0 -5
      vertex 1 0 5
      vertex 1.66666 -3.33334 5
    endloop
  endfacet
  facet normal 0 1 0
    outer loop
      vertex -1 0 -5
      vertex 1 0 5
      vertex 1 0 -5
    endloop
  endfacet
  facet normal 0 1 0
    outer loop
      vertex -1 0 -5
      vertex -1 0 5
      vertex 1 0 5
    endloop
  endfacet
  facet normal -0.980581 0.196117 0
    outer loop
      vertex -1.66667 -3.33334 -5
      vertex -1 0 5
      vertex -1 0 -5
    endloop
  endfacet
  facet normal -0.980581 0.196117 0
    outer loop
      vertex -1.66667 -3.33334 -5
      vertex -1.66667 -3.33334 5
      vertex -1 0 5
    endloop
  endfacet
  facet normal 0.980581 0.196116 0
    outer loop
      vertex -3.33334 5 -5
      vertex -1.66667 -3.33334 5
      vertex -1.66667 -3.33334 -5
    endloop
  endfacet
  facet normal 0.980581 0.196116 -0
    outer loop
      vertex -3.33334 5 -5
      vertex -3.33334 5 5
      vertex -1.66667 -3.33334 5
    endloop
  endfacet
  facet normal 0 1 0
    outer loop
      vertex -5 5 -5
      vertex -3.33334 5 5
      vertex -3.33334 5 -5
    endloop
  endfacet
  facet normal 0 1 0
    outer loop
      vertex -5 5 -5
      vertex -5 5 5
      vertex -3.33334 5 5
    endloop
  endfacet
  facet normal -0.980581 -0.196116 0
    outer loop
      vertex -3 -5 -5
      vertex -5 5 5
      vertex -5 5 -5
    endloop
  endfacet
  facet normal -0.980581 -0.196116 0
    outer loop
      vertex -3 -5 -5
      vertex -3 -5 5
      vertex -5 5 5
    endloop
  endfacet
  facet normal 0 -1 0
    outer loop
      vertex -0.666672 -5 -5
      vertex -3 -5 5
      vertex -3 -5 -5
    endloop
  endfacet
  facet normal 0 -1 0
    outer loop
      vertex -0.666672 -5 -5
      vertex -0.666672 -5 5
      vertex -3 -5 5
    endloop
  endfacet
  facet normal 0.98058 -0.196118 0
    outer loop
      vertex 0 -1.66667 -5
      vertex -0.666672 -5 5
      vertex -0.666672 -5 -5
    endloop
  endfacet
  facet normal 0.98058 -0.196118 0
    outer loop
      vertex 0 -1.66667 -5
      vertex 0 -1.66667 5
      vertex -0.666672 -5 5
    endloop
  endfacet
endsolid OpenSCAD_Model
