solid OpenSCAD_Model
  facet normal 0 0 -1
    outer loop
      vertex -1.36916 -3.33334 -5
      vertex 5 -3.33334 -5
      vertex 5 -5 -5
    endloop
  endfacet
  facet normal 0 -0 -1
    outer loop
      vertex -1.36916 -3.33334 -5
      vertex 5 -5 -5
      vertex -5 -5 -5
    endloop
  endfacet
  facet normal 0 0 -1
    outer loop
      vertex -5 3.33333 -5
      vertex -5 5 -5
      vertex 1.36914 3.33333 -5
    endloop
  endfacet
  facet normal 0 0 -1
    outer loop
      vertex -1.36916 -3.33334 -5
      vertex 1.36914 3.33333 -5
      vertex 5 5 -5
    endloop
  endfacet
  facet normal 0 0 -1
    outer loop
      vertex 1.36914 3.33333 -5
      vertex -5 5 -5
      vertex 5 5 -5
    endloop
  endfacet
  facet normal -0 0 -1
    outer loop
      vertex -1.36916 -3.33334 -5
      vertex -5 -5 -5
      vertex 1.36914 3.33333 -5
    endloop
  endfacet
  facet normal 0 -0 1
    outer loop
      vertex 5 -5 5
      vertex 5 -3.33334 5
      vertex -1.36916 -3.33334 5
    endloop
  endfacet
  facet normal 0 0 1
    outer loop
      vertex -5 -5 5
      vertex 5 -5 5
      vertex -1.36916 -3.33334 5
    endloop
  endfacet
  facet normal 0 0 1
    outer loop
      vertex 1.36914 3.33333 5
      vertex -5 5 5
      vertex -5 3.33333 5
    endloop
  endfacet
  facet normal 0 0 1
    outer loop
      vertex 5 5 5
      vertex 1.36914 3.33333 5
      vertex -1.36916 -3.33334 5
    endloop
  endfacet
  facet normal 0 0 1
    outer loop
      vertex 5 5 5
      vertex -5 5 5
      vertex 1.36914 3.33333 5
    endloop
  endfacet
  facet normal 0 0 1
    outer loop
      vertex 1.36914 3.33333 5
      vertex -5 -5 5
      vertex -1.36916 -3.33334 5
    endloop
  endfacet
  facet normal 0 1 0
    outer loop
      vertex -1.36916 -3.33334 -5
      vertex 5 -3.33334 5
      vertex 5 -3.33334 -5
    endloop
  endfacet
  facet normal 0 1 0
    outer loop
      vertex -1.36916 -3.33334 -5
      vertex -1.36916 -3.33334 5
      vertex 5 -3.33334 5
    endloop
  endfacet
  facet normal 0.794514 -0.607246 0
    outer loop
      vertex 5 5 -5
      vertex -1.36916 -3.33334 5
      vertex -1.36916 -3.33334 -5
    endloop
  endfacet
  facet normal 0.794514 -0.607246 0
    outer loop
      vertex 5 5 -5
      vertex 5 5 5
      vertex -1.36916 -3.33334 5
    endloop
  endfacet
  facet normal 0 1 0
    outer loop
      vertex -5 5 -5
      vertex 5 5 5
      vertex 5 5 -5
    endloop
  endfacet
  facet normal 0 1 0
    outer loop
      vertex -5 5 -5
      vertex -5 5 5
      vertex 5 5 5
    endloop
  endfacet
  facet normal -1 0 0
    outer loop
      vertex -5 3.33333 -5
      vertex -5 5 5
      vertex -5 5 -5
    endloop
  endfacet
  facet normal -1 0 0
    outer loop
      vertex -5 3.33333 -5
      vertex -5 3.33333 5
      vertex -5 5 5
    endloop
  endfacet
  facet normal 0 -1 0
    outer loop
      vertex 1.36914 3.33333 -5
      vertex -5 3.33333 5
      vertex -5 3.33333 -5
    endloop
  endfacet
  facet normal 0 -1 0
    outer loop
      vertex 1.36914 3.33333 -5
      vertex 1.36914 3.33333 5
      vertex -5 3.33333 5
    endloop
  endfacet
  facet normal -0.794515 0.607245 0
    outer loop
      vertex -5 -5 -5
      vertex 1.36914 3.33333 5
      vertex 1.36914 3.33333 -5
    endloop
  endfacet
  facet normal -0.794515 0.607245 0
    outer loop
      vertex -5 -5 -5
      vertex -5 -5 5
      vertex 1.36914 3.33333 5
    endloop
  endfacet
  facet normal 0 -1 0
    outer loop
      vertex 5 -5 -5
      vertex -5 -5 5
      vertex -5 -5 -5
    endloop
  endfacet
  facet normal 0 -1 0
    outer loop
      vertex 5 -5 -5
      vertex 5 -5 5
      vertex -5 -5 5
    endloop
  endfacet
  facet normal 1 0 0
    outer loop
      vertex 5 -3.33334 -5
      vertex 5 -5 5
      vertex 5 -5 -5
    endloop
  endfacet
  facet normal 1 0 -0
    outer loop
      vertex 5 -3.33334 -5
      vertex 5 -3.33334 5
      vertex 5 -5 5
    endloop
  endfacet
endsolid OpenSCAD_Model
